<svg xmlns="http://www.w3.org/2000/svg" xmlns:xlink="http://www.w3.org/1999/xlink" version="1.1" id="Layer_1" x="0px" y="0px" width="100px" height="100px" viewBox="5.0 -10.0 100.0 135.0" enable-background="new 0 0 100 100" xml:space="preserve">
<ellipse cx="49.528" cy="27.672" rx="4.98" ry="5.325"/>
<ellipse cx="84.719" cy="28.292" rx="4.979" ry="5.325"/>
<path d="M41.653,51.302c-2.311,0.879-1.343,4.237-1.343,4.237L42.995,72c-2.905,0.622-2.075,2.905-2.075,2.905l8.239,0.064V72  c0,0-1.833-12.779-2.431-17.011C46.129,50.754,43.962,50.424,41.653,51.302z"/>
<path d="M57.49,51.302c-2.312-0.878-4.478-0.548-5.076,3.688C51.813,59.221,49.982,72,49.982,72v2.97l8.237-0.064  c0,0,0.833-2.283-2.072-2.905l2.684-16.461C58.831,55.539,59.799,52.181,57.49,51.302z"/>
<path d="M97.238,50.778c-0.968-8.382-0.839-13.355-7.063-18.611l-4.978,5.395l-1.247-2.904c0,0-2.799,7.16-4.106,10.908h-3.11  l-0.057-1.373h-10.23l0.068-9.475l-1.649-0.069v10.917h-2.852c-0.306-1.343-1.623-6.986-2.766-9.626  c-1.301-3.009-7.359-2.037-7.359-2.037l-2.305,4.143l-2.618-4.143c0,0-2.414,0.296-4.388,0.754  c-4.453,1.034-4.809,9.299-4.837,10.908H34.53V34.417l-1.65,0.068l0.069,9.475h-10.23l-0.066,1.605h-3.019  c-1.27-3.677-4.188-11.14-4.188-11.14l-1.247,2.904L9.22,31.936c-6.225,5.256-6.096,10.229-7.063,18.611  c-0.968,8.382,2.856,7.468,2.856,7.468l11.674,0.062l5.808,16.597c0,0,6.988,2.558,7.688-0.171c0.706-2.729-0.562-2.663-1.862-3.133  c-1.3-0.468-2.058-4.156-2.058-4.156s-0.026-9.824,0.006-13.288c0.034-3.466-1.629-3.378-1.629-3.378s-6.645,0.049-8.531,0  c-0.625-0.016-0.953-0.578-1.135-1.299h69.512c-0.163,0.84-0.508,1.512-1.201,1.53c-1.886,0.05-8.531,0-8.531,0  s-1.663-0.088-1.628,3.378c0.032,3.463,0.006,13.288,0.006,13.288s-0.757,3.688-2.058,4.156c-1.3,0.47-2.568,0.403-1.862,3.133  c0.699,2.729,7.688,0.172,7.688,0.172l5.809-16.597l11.675-0.062C94.383,58.246,98.206,59.16,97.238,50.778z"/>
<ellipse cx="14.677" cy="28.06" rx="4.978" ry="5.325"/>
</svg>