<svg xmlns="http://www.w3.org/2000/svg" xmlns:xlink="http://www.w3.org/1999/xlink" version="1.1" id="Icon" x="0px" y="0px" width="100px" height="100px" viewBox="5.0 -10.0 100.0 135.0" enable-background="new 0 0 100 100" xml:space="preserve">
<circle cx="50" cy="50" r="60" fill="white"/>
<g>
	<g>
		<path d="M86.238,78.749l-0.086,0.052l-0.004,0.004C76.924,84.732,64.352,88,50.73,88c-11.635,0-22.917-2.496-31.771-7.02    c-5.004-2.563-9.063-5.715-12.048-9.241c0.66,6.422,5.592,12.717,14.651,17.351c8.377,4.284,18.803,6.393,29.169,6.393    c11.964,0,23.842-2.807,32.39-8.326l0.021-0.009c6.699-4.331,10.247-9.634,10.817-15.017    C91.902,74.528,89.325,76.756,86.238,78.749z M86.238,65.648l-0.086,0.051l-0.004,0.005c-9.225,5.933-21.797,9.195-35.418,9.195    c-11.635,0-22.917-2.496-31.771-7.02c-5.004-2.563-9.063-5.715-12.048-9.241c0.66,6.422,5.592,12.717,14.651,17.351    c8.377,4.284,18.803,6.397,29.169,6.397c11.964,0,23.842-2.812,32.39-8.331l0.021-0.009c6.699-4.331,10.247-9.634,10.817-15.017    C91.902,61.428,89.325,63.655,86.238,65.648z M86.238,52.548l-0.086,0.056l-0.004,0.004c-9.225,5.929-21.797,9.191-35.418,9.191    c-11.635,0-22.917-2.496-31.771-7.02c-5.004-2.563-9.063-5.715-12.048-9.244c0.66,6.424,5.592,12.719,14.651,17.353    c8.377,4.285,18.803,6.397,29.169,6.397c11.964,0,23.842-2.812,32.39-8.331l0.021-0.009c6.699-4.331,10.247-9.634,10.817-15.013    C91.902,48.33,89.325,50.555,86.238,52.548z M21.562,49.822c18.045,9.225,45.601,8.364,61.559-1.934l0.021-0.011    c6.993-4.521,10.592-10.1,10.916-15.718c0.017-0.351-0.021-0.703-0.026-1.052c-0.008-0.441,0.018-0.879-0.033-1.32    c-0.673-6.412-5.609-12.689-14.646-17.311c-8.373-4.284-18.8-6.395-29.162-6.395c-0.779,0-1.559,0.047-2.333,0.07    c-0.047,0-0.09,0.002-0.132,0.002c-1.35,0.045-2.688,0.124-4.021,0.238c-0.06,0.004-0.115,0.009-0.17,0.015    c-1.329,0.119-2.645,0.268-3.952,0.456c-0.051,0.009-0.106,0.017-0.162,0.025c-1.312,0.192-2.61,0.416-3.888,0.68    c-0.034,0.006-0.064,0.013-0.098,0.021c-6.58,1.359-12.683,3.623-17.653,6.83l-0.013,0.006    C10.778,18.94,7.179,24.516,6.859,30.131C6.429,37.344,11.408,44.628,21.562,49.822z"/>
	</g>
</g>
</svg>