<?xml version="1.0" standalone="no"?>
<!DOCTYPE svg PUBLIC "-//W3C//DTD SVG 1.1//EN" "http://www.w3.org/Graphics/SVG/1.1/DTD/svg11.dtd" >
<svg xmlns="http://www.w3.org/2000/svg" xmlns:xlink="http://www.w3.org/1999/xlink" version="1.1">
<metadata></metadata>
<defs>
<font id="swaggerlightlight" horiz-adv-x="946" >
<font-face units-per-em="2048" ascent="1638" descent="-410" />
<missing-glyph horiz-adv-x="614" />
<glyph horiz-adv-x="0" />
<glyph unicode="&#xd;" horiz-adv-x="681" />
<glyph unicode=" "  horiz-adv-x="614" />
<glyph unicode="&#x09;" horiz-adv-x="614" />
<glyph unicode="&#xa0;" horiz-adv-x="614" />
<glyph unicode="!" horiz-adv-x="280" d="M236 1044q0 63 10 184.5t12 180.5q0 16 10.5 26.5t25.5 9.5t25.5 -11.5t8.5 -24.5q0 -63 -10.5 -184t-12.5 -181q-2 -104 2 -295.5t4 -256.5q0 -14 -10 -25.5t-24.5 -11.5t-24.5 11t-10 26q0 66 -5.5 257t-0.5 295zM240 90q0 16 12 28.5t28.5 12.5t29 -12.5t12.5 -28.5 t-12.5 -28.5t-29 -12.5t-28.5 12.5t-12 28.5z" />
<glyph unicode="&#x22;" horiz-adv-x="468" d="M174 928q-4 78 0 227.5t2 224.5q-2 14 8.5 24.5t25.5 11.5t25.5 -9t10.5 -27q4 -74 0 -225q-4 -150 -2 -223q2 -16 -8.5 -26.5t-25.5 -11.5t-25.5 9.5t-10.5 24.5zM444 928q-4 78 0.5 227.5t1.5 224.5q-2 14 8.5 24.5t26 11.5t25.5 -9t10 -27q4 -74 0 -225 q-4 -150 -2 -223q2 -16 -8 -26.5t-25.5 -11.5t-26 9.5t-10.5 24.5z" />
<glyph unicode="#" horiz-adv-x="1040" d="M-46 545.5q1 15.5 12.5 25t27.5 7.5q61 -4 164 -3h43h49q31 129 76 269h-260q-14 0 -25.5 10t-11.5 24.5t11 24.5t26 10h282q55 168 137 383q4 14 17.5 20.5t28 1.5t20.5 -18.5t0 -27.5q-76 -201 -127 -359h256q45 172 98 320q4 14 17.5 20.5t28 1t20.5 -18.5t0 -28 q-47 -135 -90 -295h299q14 0 25.5 -10t11.5 -24.5t-11.5 -24.5t-25.5 -10h-318q-33 -131 -63 -285q129 -6 223 -4q14 2 24.5 -8t11.5 -25.5t-9.5 -26t-26.5 -10.5q-96 -4 -238 4l-61 -331q-2 -14 -14.5 -22.5t-26.5 -6.5t-22.5 14.5t-6.5 26.5l58 324q-184 10 -258 12h-21 q-39 -166 -63 -340q-2 -14 -13.5 -23.5t-26 -7.5t-23.5 13.5t-7 25.5q20 160 59 330h-34h-39q-104 -2 -172 4q-14 0 -23.5 11t-8.5 26.5zM324 578q2 0 2 -3q73 0 272 -12q31 152 64 281h-263q-43 -139 -75 -266z" />
<glyph unicode="$" horiz-adv-x="948" d="M-1 382.5q3 14.5 16.5 23t27.5 5.5t23 -18q78 -121 179 -196.5t206 -90.5l20 -4q0 37 -4 207q-10 262 -12 443q-90 -8 -146 -2q-145 12 -203 120q-53 96 7 215q49 102 161 187q88 66 187 94q4 94 12 178q0 16 11.5 25.5t26.5 8.5t24.5 -12.5t7.5 -25.5q-4 -76 -8 -160 q119 14 202 -45q23 -14 39 -49l10 -22q4 -10 9 -17q8 -12 4 -26.5t-16.5 -22.5t-27 -4t-22.5 16q-6 10 -12 25q-2 2 -3 6t-3 7t-4 7q-8 16 -15 23q-66 45 -166 31q-8 -213 -4 -478l29 3q166 16 256 -15q133 -45 176 -201q20 -80 -5.5 -172t-72.5 -165q-152 -227 -366 -248 q0 -72 -6 -131q0 -16 -11.5 -25.5t-27 -8.5t-24.5 12t-7 26q4 59 4 125q-14 2 -31 4q-123 18 -236.5 103t-199.5 218q-8 12 -5 26.5zM168 903q41 -74 147 -82q52 -6 140 2q-4 258 4 467q-74 -27 -144 -78q-96 -72 -139 -157.5t-8 -151.5zM526 758q2 -180 11 -445 q6 -199 6 -209q178 20 305 218q43 63 64.5 140t5.5 136q-33 121 -130 154q-74 25 -225 10q-14 0 -37 -4z" />
<glyph unicode="%" horiz-adv-x="1533" d="M115 1057q10 94 61 172t135 102q72 20 185 -20h4l98 -8q47 -4 53 -7q172 -2 455 50q2 0 5 2t10 5t16 7q47 18 73 -10q29 -35 7 -101q-14 -43 -50 -104q-25 -41 -61 -96q-8 -10 -17.5 -23.5t-14.5 -22t-7 -12.5q-100 -162 -298 -510t-308 -524q-8 -12 -22.5 -16t-27 4 t-16.5 22.5t4 26.5q113 176 309.5 525t297.5 509q2 4 8 13.5t16 22.5t17 26q35 51 59 92q31 55 43 90q4 8 6 16q-25 -10 -37 -12q-289 -53 -467 -49q-12 0 -61 4l-62 6q-4 -4 -10 -4q68 -74 68 -172q0 -57 -22.5 -120.5t-61.5 -113.5q-29 -37 -64 -57q-35 -23 -81 -30 t-95 16q-84 35 -121 120t-26 181zM186 1049q-8 -78 18.5 -140.5t86.5 -87.5q88 -37 155 49q66 86 66 191q0 111 -104 168q-4 0 -43 8q-18 4 -29 8q-6 4 -12 10q0 3 -2 5q-55 -20 -92 -79t-44 -132zM1097.5 227q-14.5 84 10.5 156q20 82 68.5 146.5t113.5 84.5q23 6 56 0 l20 -2l14 -2q7 -2 13 -4q2 6 4 8q8 12 23.5 14.5t25.5 -5.5l12 -9q6 -4 13.5 -8t13.5 -8q27 -18 43 -37q41 -51 50 -121.5t-8.5 -139.5t-51.5 -126q-61 -96 -150 -125q-104 -31 -201 47q-55 47 -69.5 131zM1168.5 238.5q9.5 -58.5 43.5 -84.5q68 -55 134 -35q63 18 110 94 t52 162t-38 141q-8 10 -26 23q-2 2 -14.5 9t-18.5 11q-10 -22 -35 -20q-10 0 -24 2l-9 2q-6 2 -10 2q-16 2 -22 0q-43 -12 -80 -61.5t-54.5 -118t-8 -127z" />
<glyph unicode="&#x26;" horiz-adv-x="716" d="M111 684q-2 35 22 72q35 55 127 112q72 43 156 79t119 40q27 4 48 5t42.5 -2t34 -5t40 -10t37.5 -10q14 -4 22.5 -16.5t4.5 -27t-16.5 -22.5t-26.5 -4l-41 10q-27 8 -36 10.5t-27.5 4.5t-34 1t-35.5 -3q-29 -4 -105 -37t-143 -74q-80 -49 -106 -90q-10 -16 -9.5 -28.5 t15.5 -24.5q4 -4 30 -5q29 0 74 11q66 16 137 43l6 4q63 45 89 55q2 2 17 9t26 12q20 6 34 6q33 -4 43 -33q6 -20 -8 -37q-2 -4 -8 -8t-14 -8q-12 -6 -39 -19q-33 -14 -105 -41q-98 -72 -168 -141q-76 -74 -86 -115q-2 -10 0 -12q10 -8 43 -12q49 -4 148 49l82 55l145 96 q12 8 27.5 5t24 -15t5 -27.5t-15.5 -23.5l-145 -96q-80 -51 -90 -56q-115 -63 -185 -57q-61 4 -88 33q-33 31 -18 80q14 59 102 147l37 33q-39 -8 -70 -8q-53 -2 -79 22q-35 33 -39 74zM485 1227l11 78q2 14 13 23t25.5 7t23.5 -13.5t7 -25.5l-10 -77q-2 -14 -13.5 -23.5 t-25.5 -7.5t-23.5 13t-7.5 26zM500 66v155q0 14 11 25.5t25.5 11.5t25.5 -11.5t11 -25.5v-155q0 -14 -11 -25.5t-25.5 -11.5t-25.5 11t-11 26z" />
<glyph unicode="'" horiz-adv-x="198" d="M174 928q-4 78 0 227.5t2 224.5q-2 14 8.5 24.5t25.5 11.5t25.5 -9t10.5 -27q4 -74 0 -225q-4 -150 -2 -223q2 -16 -8.5 -26.5t-25.5 -11.5t-25.5 9.5t-10.5 24.5z" />
<glyph unicode="(" horiz-adv-x="512" d="M135 435q0 196 39 388q43 205 126 374t202 267q10 10 25.5 9.5t24.5 -12t8 -27t-13 -23.5q-106 -90 -183 -248.5t-118 -353.5q-39 -188 -39 -375q0 -182 41 -321q35 -119 102 -228q68 -106 174 -233q10 -10 9 -25.5t-12 -25t-26.5 -8.5t-23.5 14q-111 129 -182.5 242.5 t-110.5 242.5q-43 147 -43 343z" />
<glyph unicode=")" horiz-adv-x="407" d="M-5 1422.5q1 15.5 11 25.5t25.5 9t25.5 -11q119 -123 199 -229q80 -109 125 -234q53 -147 70 -340q14 -190 -13 -389q-29 -211 -98 -381q-70 -174 -180 -285q-10 -10 -25.5 -9t-26 11.5t-9 26t11.5 25.5q100 96 165.5 260t90.5 362q27 188 12.5 373.5t-64.5 320.5 q-43 117 -118.5 217.5t-192.5 221.5q-10 10 -9 25.5z" />
<glyph unicode="*" horiz-adv-x="563" d="M23.5 1251.5q3.5 14.5 16 23.5t26.5 5q141 -27 235 -72q4 -2 6 -6v242q0 14 11.5 24.5t25.5 10.5t25.5 -10.5t11.5 -24.5v-236q31 8 186 47q14 4 26.5 -4t16.5 -22.5t-4 -26.5t-22 -16l-187 -47q25 -45 103 -172q8 -12 4 -26.5t-16.5 -23t-27 -4t-22.5 16.5 q-76 125 -102 172q-51 -94 -105 -176q-8 -14 -22 -17.5t-27.5 5t-16.5 22.5t5 27q55 86 106 178q-4 0 -8 2q-84 41 -215 67q-14 2 -23.5 14.5t-6 27z" />
<glyph unicode="+" horiz-adv-x="991" d="M89 503.5q1 14.5 12.5 25t25.5 8.5q172 -6 399 -9q0 76 -1 215.5t-1 194.5q0 14 11.5 25.5t25.5 11.5t25.5 -11.5t11.5 -25.5v-193v-217h209h197q14 0 25 -10t11 -24.5t-11 -24.5t-25 -10q-57 0 -194.5 -1t-211.5 -1q-2 -229 -10 -404q0 -14 -10.5 -24.5t-25.5 -9.5 t-25.5 11.5t-8.5 26.5q6 172 8 400q-229 2 -403 10q-14 0 -24.5 11t-9.5 25.5z" />
<glyph unicode="," horiz-adv-x="315" d="M80 -192.5q0 14.5 11.5 25.5t25.5 11q25 0 59.5 19.5t63.5 54.5q53 59 51 111q-10 -6 -17 -11q-37 -18 -71 -6q-25 8 -39 23q-20 23 -10 51q12 33 59 45q23 4 49.5 5t55 -16.5t38.5 -49.5q33 -96 -61 -201q-86 -98 -178 -98q-14 0 -25.5 11t-11.5 25.5z" />
<glyph unicode="-" horiz-adv-x="491" d="M24 541.5q1 15.5 11 25.5t24 8q72 -2 223.5 0.5t221.5 -0.5q16 0 26.5 -10t9.5 -25.5t-11.5 -25.5t-24.5 -8q-72 0 -223.5 -2t-221.5 2q-16 0 -26 10t-9 25.5z" />
<glyph unicode="." horiz-adv-x="235" d="M201 82q0 16 12 28.5t28.5 12.5t29 -12.5t12.5 -28.5t-12.5 -28.5t-29 -12.5t-28.5 12.5t-12 28.5z" />
<glyph unicode="/" horiz-adv-x="542" d="M-12 2.5q-6 14.5 0 26.5l233 630q188 502 301 771q6 12 19.5 18t27 0t19.5 -19.5t0 -27.5q-111 -268 -297 -770l-238 -627q-4 -14 -18.5 -20.5t-27.5 -1t-19 20z" />
<glyph unicode="0" horiz-adv-x="815" d="M193 569q-2 201 39.5 406t99.5 295q47 76 71 94q6 4 93 53q31 16 49 -12q156 -57 241 -277q78 -201 76 -458.5t-84 -433.5q-96 -209 -264 -211q-170 -6 -254 170q-14 35 -27 73q-4 2 -8 6q-16 18 -6 41q-25 111 -26 254zM264 569q2 -104 17 -190q90 96 232 295.5 t200 271.5q10 12 24.5 13t26.5 -7q-16 78 -43 150q-78 197 -211 239h-2q-53 -29 -59 -32q-14 -12 -56 -76q-51 -80 -91 -274.5t-38 -389.5zM299 295q12 -37 27 -70q63 -133 188 -131q121 4 199 170q74 162 78 408q1 122 -19 235q0 -4 -2 -6q-43 -51 -205 -275.5t-266 -330.5 z" />
<glyph unicode="1" horiz-adv-x="833" d="M185.5 990.5q3.5 15.5 15.5 23.5q94 61 219 203l86 100l20 26l4 7l2 2l3 2v2q2 2 6 4q2 2 8 4q20 8 37 -6q29 -27 14 -78q-2 -10 -5 -18.5t-4 -13.5t-3 -9q-6 -94 -10 -209q-8 -477 -9 -936q156 23 273 33q16 2 27.5 -7t12.5 -24.5t-8.5 -27t-23.5 -11.5 q-92 -10 -183.5 -22t-236.5 -35q-143 -25 -182 -29q-16 -2 -27.5 6.5t-13.5 23.5t6 26.5t23 13.5l262 41q0 428 10 948q2 117 6 187l-41 -50q-131 -147 -231 -215q-12 -8 -27.5 -5t-24 15.5t-5 28z" />
<glyph unicode="2" horiz-adv-x="937" d="M98 920q-2 76 76 174q70 90 170 157q111 74 205 84q119 12 176 -84q100 -168 -18 -485q-76 -203 -224 -430q-82 -123 -155 -193q-23 -20 -45 -39q20 2 43.5 5.5t38 4.5t16.5 1q242 18 571 0q14 0 24.5 -11.5t9.5 -26t-12 -24.5t-26 -8q-326 16 -563 0q-2 -2 -17.5 -3 t-42 -4t-49.5 -5q-45 -6 -73 -6q-16 -2 -29 -2q-6 2 -12 2q-12 2 -21 10q-18 14 -12 37q2 8 8 14q4 4 8 6q2 2 9 6l26 17q47 31 99 80q70 66 143 180q145 219 219 416q106 283 23 421q-35 57 -109 50q-76 -8 -170 -72q-92 -61 -156 -143q-61 -78 -61 -129q2 -10 10 -29 q2 -2 3 -6t3 -8.5t4 -6.5l11 -24q6 -14 0 -27.5t-20.5 -18.5t-28 1t-17.5 20q-4 6 -8 17l-12 22q-14 33 -15 60z" />
<glyph unicode="3" horiz-adv-x="915" d="M31 257.5q-2 14.5 7 26t23.5 13.5t26.5 -6q188 -145 301 -172q168 -39 313.5 49t178.5 254q25 129 0 237q-29 127 -121 152q-72 18 -201 -33q-35 -14 -82 -49q-25 -20 -28 -22q-10 -8 -21 -9q-23 -4 -35 13q-12 12 -8 28q2 12 10 27q6 6 15 16l43 41l118 115 q78 76 119 133q49 70 51 111q2 72 -47 86q-51 16 -149 -17q-90 -31 -180 -88q-84 -55 -109 -92q-6 -6 -8 -22v-9q0 -2 -1 -6t-1 -6q-2 -14 -4 -24q-4 -14 -16.5 -22.5t-27 -4.5t-22.5 16.5t-4 26.5q2 6 2 16q2 20 2 23q6 33 19 53q35 49 131 111q100 63 196 96 q119 41 195 18q100 -31 94 -159q-2 -61 -63 -148q-45 -61 -125 -143l-19 -17q98 29 172 11q137 -35 174 -207q29 -121 0 -264q-39 -199 -210 -302.5t-367 -58.5q-127 29 -330 184q-10 10 -12 24.5z" />
<glyph unicode="4" horiz-adv-x="952" d="M55 455q6 12 21 24q6 6 12 11.5t9 7.5t5 4q55 82 58 86q12 27 45 82q268 438 483 716q13 15 31 13q2 0 2 2q14 0 25.5 -11.5t11.5 -25.5q0 -135 -2 -405.5t-2 -405.5q113 12 211 12q14 0 24 -11t10 -25.5t-10 -25.5t-24 -11q-98 0 -211 -11q0 -240 4 -434 q2 -14 -8.5 -24.5t-25.5 -11.5t-25.5 9.5t-10.5 26.5q-6 190 -6 426q-78 -10 -225 -33l-174 -26l-113 -19q-35 -4 -55 -6q-10 -2 -19 -2h-10q-2 0 -6 2q-12 4 -21 12q-18 25 -4 54zM166 469l104 14q20 4 175 28t237 34q0 133 1 377.5t1 341.5q-197 -264 -418 -631 q-31 -51 -41 -74q-4 -12 -59 -90z" />
<glyph unicode="5" horiz-adv-x="915" d="M114 222.5q-1 15.5 8 26.5t24.5 12t25.5 -9q16 -12 46 -39t40 -35l35 -22q23 -16 44 -25.5t54 -17.5q74 -25 153 -20t146.5 29.5t120.5 78t72.5 126t-6 157.5t-86 159t-137 116t-148.5 40q-57 -4 -92 -16.5t-97 -49.5q-2 -2 -41 -39q-43 -43 -86 -30q-35 10 -34 47 q-2 16 8 37q2 6 6 15t6 13q4 12 6 17q2 18 17 131q31 258 30 352v10q-16 12 -14 31q0 16 10.5 26.5t24.5 8.5q311 -8 434 -9q14 0 25.5 -10t11.5 -24.5t-11.5 -24.5t-25.5 -10q-129 0 -385 6v-4q0 -88 -31 -361q-14 -119 -16 -135q0 -4 -2 -10q18 16 31 25q66 39 109.5 55 t111.5 18q94 6 185 -45t161 -135q68 -86 98.5 -186.5t5.5 -192.5q-20 -76 -66 -133t-106.5 -91t-131 -50.5t-140.5 -14.5q-72 4 -137 23q-37 10 -64 23q-27 10 -53.5 28.5t-38.5 27.5t-44 36.5t-44 40.5q-12 8 -13 23.5z" />
<glyph unicode="6" horiz-adv-x="833" d="M113 514q-6 135 24.5 277.5t81.5 257.5q70 156 133 231q115 133 256 100q33 -8 70 -31.5t54.5 -39t56 -55.5t38.5 -42q10 -10 10.5 -24t-10 -25.5t-25 -11.5t-24.5 12l-45 45l-49 49q-12 12 -40 30t-52 24q-98 23 -184 -78q-57 -68 -123 -213q-47 -106 -76 -241.5 t-25 -262.5q4 -80 23 -147q20 119 88 225q119 180 268 217q94 23 165 -5t110 -97q70 -125 30 -312q-39 -188 -157 -291q-143 -125 -326 -49q-256 106 -272 457zM258 252q57 -88 156 -129q139 -57 250 37q100 88 135 252q33 162 -25 262q-57 102 -194 67q-121 -31 -224 -188 q-78 -119 -88 -277q0 -14 -10 -24z" />
<glyph unicode="7" d="M46 1349.5q5 14.5 18.5 20.5t27.5 2q295 -104 555 -53q2 0 25.5 6t61.5 14.5t71 16.5q66 14 102 20q23 4 35 6h14q8 0 15 -2q23 -8 22 -32q4 -39 -39 -76q-37 -31 -39 -33q-90 -125 -151 -248q-94 -188 -139 -291q27 0 102.5 3.5t116.5 3.5q14 2 24.5 -8.5t11.5 -26 t-9.5 -25.5t-26.5 -10q-39 -2 -123 -5t-127 -3q-127 -307 -127 -549q0 -14 -10.5 -24.5t-24.5 -10.5t-24.5 10.5t-10.5 24.5q0 246 119 547q-158 0 -274 14q-14 2 -23.5 13.5t-7.5 25.5t13.5 23.5t25.5 7.5q123 -14 295 -13q49 113 153 326q66 127 160 256q6 8 14 16 l-51 -10q-33 -8 -71.5 -16t-62 -14.5t-28.5 -6.5q-276 -55 -591 54q-14 6 -20.5 19t-1.5 27.5z" />
<glyph unicode="8" horiz-adv-x="913" d="M123 315q27 129 123 275q49 72 106 133h-12q-127 4 -178 117q-51 111 2 227q55 117 164 190q72 47 147.5 68t154.5 -2t128 -94q10 -12 7 -26.5t-15 -22.5l-5 -4q43 -100 -20 -215q-12 -25 -31 -50q16 -2 37 -14l17 -8q8 -4 14 -6q18 -9 20 -29q29 -10 56 -29 q68 -47 100.5 -132t19.5 -185q-16 -164 -138 -290t-285 -167q-100 -27 -177 -28q-129 -6 -186 55q-82 82 -49 237zM193 301q-25 -119 28 -174q37 -37 135 -33q68 2 162 27q143 37 248.5 146.5t122.5 248.5q8 82 -17.5 149.5t-74.5 100.5q-41 37 -110 31t-138 -64 q-12 -8 -26.5 -7t-24.5 13q-4 7 -6 17l-3 -2q-100 -82 -184 -205q-88 -133 -112 -248zM227 868q33 -70 115 -73q51 -2 111 22l2 2q64 49 123 74q55 47 86 102q47 86 14 158q-4 10 -21 27l-16 14q-10 12 -16 20q-14 16 -7 37q-113 41 -249 -53q-94 -63 -136 -156 q-43 -92 -6 -174z" />
<glyph unicode="9" horiz-adv-x="858" d="M135 973q35 160 131 264q111 119 240 88q47 -12 90 -37.5t81 -65.5t60 -71l54 -74q129 -193 115.5 -442.5t-161.5 -429.5q-61 -74 -144 -119t-169 -49q-94 -4 -168 46t-110 155q-4 14 3 27.5t20 18.5t26.5 -2.5t19.5 -19.5q53 -162 205 -153q70 2 140.5 40.5t119.5 100.5 q96 115 130 269.5t1 303.5q-72 -113 -131 -178q-66 -70 -133.5 -100.5t-157.5 -22.5q-174 14 -241 160q-57 123 -21 291zM205 958q-31 -145 16 -245q49 -109 180 -121q74 -6 126.5 18.5t107.5 83.5q20 20 35.5 39t29.5 39l23 33l27 43l30 47q7 8 17 12q-27 70 -68 129 q-61 92 -115.5 147.5t-124.5 71.5q-90 20 -171.5 -68.5t-112.5 -228.5z" />
<glyph unicode=":" horiz-adv-x="327" d="M291 82q0 16 12 28.5t28.5 12.5t29 -12.5t12.5 -28.5t-12.5 -28.5t-29 -12.5t-28.5 12.5t-12 28.5zM293 876.5q0 16.5 12 29t28.5 12.5t29 -12.5t12.5 -29t-12.5 -28.5t-29 -12t-28.5 12t-12 28.5z" />
<glyph unicode=";" horiz-adv-x="315" d="M80 -192.5q0 14.5 11.5 25.5t25.5 11q25 0 59.5 19.5t63.5 54.5q53 59 51 111q-10 -6 -17 -11q-37 -18 -71 -6q-25 8 -39 23q-20 23 -10 51q12 33 59 45q23 4 49.5 5t55 -16.5t38.5 -49.5q33 -96 -61 -201q-86 -98 -178 -98q-14 0 -25.5 11t-11.5 25.5zM211 903.5 q0 16.5 12.5 28.5t28.5 12t28.5 -12t12.5 -28.5t-12.5 -29t-28.5 -12.5t-28.5 12.5t-12.5 29z" />
<glyph unicode="&#x3c;" horiz-adv-x="1165" d="M0 543q12 39 63 47q10 0 18.5 1t13.5 2t9 3q96 33 209 78l256 96l230 86q23 10 105.5 44t140 54.5t114.5 32.5q14 4 27.5 -4t16.5 -22.5t-5 -27.5t-22 -15q-55 -12 -108.5 -31t-134.5 -52.5t-110 -43.5l-229 -86l-252 -97q-115 -47 -213 -82q-14 -4 -41 -6q23 -14 64 -31 q27 -12 129 -45q111 -37 454 -172q291 -115 451 -155q14 -4 22.5 -16.5t4 -27t-16.5 -22.5t-27 -4q-180 47 -460 158q-348 137 -449 170q-106 35 -135 47q-53 23 -84 43q-20 12 -31 27q-16 25 -10 51z" />
<glyph unicode="=" horiz-adv-x="1099" d="M67 369.5q1 15.5 11 25.5t26 8q219 -6 1006 -6q14 0 25.5 -11t11.5 -25.5t-11.5 -25.5t-25.5 -11q-786 0 -1010 10q-14 0 -24 10t-9 25.5zM69 670.5q1 15.5 11 26t26 8.5q219 -8 1006 -9q14 0 24.5 -10t10.5 -24.5t-10.5 -24.5t-24.5 -10q-786 0 -1010 8q-14 0 -24 10 t-9 25.5z" />
<glyph unicode="&#x3e;" horiz-adv-x="1093" d="M-76 934q4 14 16.5 22.5t26.5 4.5q170 -45 461 -156q334 -127 451 -164l137 -45q53 -23 82 -41q20 -14 30 -29q18 -25 13 -49q-10 -41 -64 -49q-8 0 -17 -1t-14.5 -2t-9.5 -1l-209 -82l-483 -188l-102 -45q-82 -35 -139.5 -55.5t-114.5 -33.5q-14 -4 -26.5 4.5 t-16.5 22.5t4 26.5t22 16.5q53 12 106.5 31.5t132.5 53.5t109 44l480 189q170 68 213 81q12 6 41 9q-23 14 -64 30q-2 0 -131 43q-119 39 -455 166q-301 115 -452 154q-14 4 -22.5 16.5t-4.5 26.5z" />
<glyph unicode="?" horiz-adv-x="749" d="M16 1057q0 8 1 15t1 18v12q2 33 13 55q37 96 136 157.5t218 78.5q121 16 228.5 -23t158.5 -137q88 -172 -127 -350q-29 -23 -170 -125q-94 -68 -123 -105q-59 -72 -65 -123q-2 -35 22 -53q31 -25 89.5 -28t133.5 18q14 4 27.5 -3t18 -21.5t-3 -28t-21.5 -17.5 q-78 -23 -160 -18q-80 4 -127 41q-57 43 -49 119q6 72 78 159q37 45 139 119q131 92 164 121q57 45 87 85t39 87t-17 90q-37 72 -123 103.5t-191 17.5q-104 -12 -186 -64.5t-111 -123.5q-4 -12 -6 -35l-4 -49q-2 -14 -13.5 -23.5t-25.5 -7.5t-23.5 13.5t-7.5 25.5zM406 69.5 q0 14.5 10 25.5t24.5 11t24.5 -11t10 -25.5t-10 -25.5t-24.5 -11t-24.5 11t-10 25.5z" />
<glyph unicode="@" horiz-adv-x="1669" d="M254 771q16 124 86 247q104 182 300 311t417 152.5t424 -97.5q199 -127 229 -344q25 -166 -31 -338q-57 -174 -182 -270q-80 -59 -188 -72q-145 -14 -191 95q-16 39 -6 98q-111 -100 -221 -127q-82 -20 -143 8q-70 35 -102 128t22 212q51 119 147 207q102 94 205 111 q125 18 205 -86q31 -41 51 -121l2 -6q6 -2 10 -7q12 -10 12 -26v-12l-4 -9l-4 -8q8 -35 12.5 -49t-4 -26.5t-22.5 -16.5t-27 4q-23 -47 -37 -84q-23 -59 -30 -98q-8 -43 0 -64q27 -59 116 -51q90 10 152 57q109 82 158 236q51 156 30 303q-27 186 -196 295 q-127 80 -281.5 88t-297 -46t-266.5 -155.5t-198 -228.5q-61 -109 -75.5 -218.5t13.5 -204.5t89 -181q92 -125 243.5 -209t323.5 -102q201 -20 449 79q14 6 27.5 0t19.5 -19t0 -26.5t-18 -19.5q-266 -109 -486 -84q-186 18 -350 109.5t-266 230.5q-70 96 -101.5 203.5 t-15.5 231.5zM715 586q20 -66 63 -86q39 -18 94 -4q109 27 209 125q60 59 113 153v2l25 49q-6 23 -11 41q-18 66 -41 95q-53 72 -137 59q-82 -12 -168 -92q-84 -78 -127 -177.5t-20 -164.5z" />
<glyph unicode="A" d="M137 37q27 162 94 362q-14 2 -22 11.5t-8 24t10 25.5t25 11h20q29 86 99.5 270.5t101.5 278.5l61 176q2 4 2 9t1 15.5t1 20.5q6 59 53 66q14 2 27 -7l8 -8q2 -4 2 -8q2 -2 2 -6l4 -8q2 -10 5 -29l18 -86l27 -154l73 -446l207 57q14 4 27.5 -3t17.5 -21.5t-3 -27.5 t-21 -17l-215 -60q39 -236 75 -403q4 -14 -4 -27.5t-22.5 -16.5t-27.5 5t-15 22q-37 168 -76 404q-221 -58 -377 -66q-72 -211 -100 -376q-2 -14 -14.5 -22.5t-26.5 -6.5t-22.5 14.5t-6.5 26.5zM332 475q141 10 340 62q-70 424 -74 452l-27 139l-45 -133l-100 -274z" />
<glyph unicode="B" horiz-adv-x="743" d="M89 24.5q-1 14.5 9.5 25.5t24.5 11q10 2 20 2q-4 4 -8 13q-2 6 -4 14q-2 10 -2 29q-4 29 -4 76v51q0 23 1 45t1 24q0 18 -2 120q-1 68 -1 124v53q1 76 9 148q10 115 35 203q2 182 6 303q0 16 10.5 26.5t25.5 9t25.5 -11.5t8.5 -24q0 -63 -2 -138q20 27 43 50 q70 70 190 116q63 25 114 25h7q74 0 113 -47q29 -36 28 -85q0 -35 -14 -77q-27 -72 -98 -164q-68 -90 -181 -201q84 33 149 33q32 0 60 -8q135 -41 140 -209v-9q0 -115 -52 -230q-39 -86 -109.5 -152t-156.5 -101.5t-172 -55t-176 -21.5q-14 -2 -25.5 8t-12.5 24.5zM205 70 q162 18 289 87.5t182 192.5q45 102 45 201v8q-4 117 -88 141q-19 6 -43 6q-54 0 -131 -32q-90 -37 -170 -96q0 -2 -37 -37q-10 -8 -21 -15q0 -43 -2 -82q-2 -102 -10 -227q-4 -82 -6 -96q0 -23 -2 -33q-2 -8 -4 -12q0 -4 -2 -6zM233 639l117 113q152 152 217 237 q66 84 88 146q9 28 9 49q0 26 -13 43q-16 20 -55 20h-7q-37 0 -89 -20q-106 -41 -166 -99q-61 -61 -94 -176q-4 -279 -7 -313z" />
<glyph unicode="C" horiz-adv-x="897" d="M152 375q-2 25 -2 50q0 103 26 216q32 141 96 274q66 135 146 228q84 94 174 121q33 10 64 10q69 0 130 -51q92 -74 156 -252q6 -14 0 -27.5t-20.5 -18.5t-27.5 1t-17 20q-59 160 -136 221q-42 35 -89 35q-20 0 -40 -6q-70 -20 -143.5 -104t-132.5 -207 q-57 -123 -88 -258q-26 -113 -26 -211q0 -19 1 -37q16 -248 203 -273q31 -4 61 -4q75 0 142 25q41 14 81 35.5t100 62.5t81 54q12 8 26.5 4t22.5 -16.5t4 -27t-16 -22.5l-76 -49q-63 -43 -108.5 -68.5t-90.5 -42.5q-76 -25 -158 -25q-38 0 -77 5q-129 16 -193 108 q-66 92 -73 230z" />
<glyph unicode="D" horiz-adv-x="847" d="M19.5 94.5q-5.5 14.5 2 26.5t21.5 17t27 -1q47 -25 90 -39q2 84 12 243t14 234q1 43 1 117t-1 178t-1 178t1 117l-86 -24q-14 -4 -27.5 3t-17.5 21.5t3.5 27.5t21.5 17q6 2 51 15.5t70 19.5q10 8 24 6h4q82 20 153 20q80 0 144 -26q133 -53 224 -164q88 -111 122 -241 q25 -93 25 -190q0 -39 -4 -79q-12 -139 -72.5 -256.5t-175.5 -201.5t-266 -99q-49 -6 -92 -6q-34 0 -64 4q-10 -14 -28 -12q-27 0 -35 25q-59 14 -123 47q-12 8 -17.5 22.5zM231 84q30 -4 64.5 -4t75.5 4q197 20 314.5 159.5t135.5 336.5q4 37 4 73q-1 153 -69 289 q-84 168 -258 238q-51 21 -117 21q-56 0 -123 -15q-1 -48 -1 -125t1 -182q1 -70 1 -128q0 -115 -3 -180q-2 -72 -12.5 -235.5t-12.5 -251.5z" />
<glyph unicode="E" horiz-adv-x="874" d="M47 158q-13 28 -13 59q0 64 56 137q61 82 186 170l43 29q-143 8 -182 143q-11 39 -11 80q0 77 38 161q58 128 166 218q111 96 223 107q10 1 21 0q119 0 196 -107q8 -12 6 -26.5t-14 -22.5t-26.5 -6t-22.5 14q-55 76 -141 76h-13q-90 -8 -184 -88q-93 -80 -143 -190 q-34 -73 -34 -135q0 -31 9 -60q25 -88 119 -92h13q71 0 179 39h2q104 49 162 57q6 2 10 2h8q8 0 17 -4q14 -8 18 -25q2 -14 -6 -26q-4 -8 -10 -13q-4 -2 -10 -4q-12 -6 -47 -18q-14 -4 -57.5 -17.5t-57.5 -19.5q-123 -57 -230 -131q-115 -82 -170 -154q-41 -54 -41 -95 q0 -16 7 -30q20 -49 96 -73q67 -23 162 -23h16q98 0 192.5 18.5t143.5 45.5q18 8 32.5 16t30 20.5t21.5 18.5l27 24l28 29q10 10 25.5 9t26 -11t9.5 -25.5t-12 -25.5q-8 -6 -28.5 -26.5t-28.5 -26.5t-25.5 -20.5t-34 -25t-38.5 -22.5q-57 -29 -160.5 -49.5t-206.5 -20.5h-15 q-111 0 -188 27q-104 35 -139 113z" />
<glyph unicode="F" horiz-adv-x="694" d="M66 961v37q0 52 4 87q8 61 32 84q14 12 50 23q27 8 67 16q72 12 184 27q225 27 304 27q14 0 24 -10.5t10 -25t-10 -24.5t-24 -10q-74 0 -295 -29q-109 -12 -179 -26q-39 -6 -61 -15q-16 -4 -20 -6v-2q-2 0 -3.5 -3t-2.5 -7t-2 -11.5t-3 -15.5q-4 -32 -4 -80v-34 q2 -127 25 -336v-4q45 12 91 29.5t120 47.5l92 41q14 6 27.5 0t19.5 -19t0 -26.5t-18 -19.5l-76 -33l-86 -37q-31 -12 -77 -28.5t-85 -28.5q23 -205 66 -502q2 -16 -6.5 -27.5t-24 -13.5t-26.5 6t-13 23q-47 328 -68 510q-12 8 -14 20q-4 18 8 33l-2 20q-23 227 -24 343z " />
<glyph unicode="G" horiz-adv-x="948" d="M57 641q59 274 187 438q121 158 256 174q13 1 26 1q141 0 217 -183q6 -14 0 -27.5t-19 -19.5t-26.5 0t-19.5 18q-58 141 -155 141q-7 0 -15 -1q-104 -12 -207 -148q-117 -154 -174 -409q-30 -132 -30 -238q0 -113 34 -197q27 -66 94 -94q41 -17 83 -17q77 0 155 58 q100 76 176 217l41 92q2 47 8 82q4 31 10 52q-164 -37 -256 -52q-16 -2 -27.5 6.5t-13.5 23.5t6.5 26.5t22.5 13.5q92 14 260 53q180 39 264 54q14 2 26.5 -6.5t14.5 -22.5t-6 -26.5t-22 -14.5q-70 -12 -166 -33q2 -6 2 -14q0 -14 -6 -37q-10 -33 -33 -90l-12 -31 q-2 -37 -2 -82q2 -223 24 -299q4 -14 -3 -27.5t-21.5 -17.5t-27.5 3t-17 22q-18 63 -25 254q-78 -129 -174 -203q-98 -73 -196 -73q-56 0 -113 24q-94 39 -131 131q-39 98 -39 227q0 114 30 252z" />
<glyph unicode="H" horiz-adv-x="679" d="M66 475q-4 14 4 27.5t22 15.5l10 2q0 70 -3 294t-5 347q0 14 11.5 24.5t25.5 10.5t24.5 -10t10.5 -25q0 -121 4 -345t4 -279q76 18 213 57l141 41q-4 272 -4 631q0 14 11.5 25.5t25.5 11.5t25.5 -11.5t11.5 -25.5q0 -346 2 -613q45 12 84 21q14 4 26.5 -4t16.5 -22.5 t-4 -27t-23 -16.5q-47 -10 -100 -24q4 -295 10 -555q2 -14 -8 -24.5t-25.5 -11.5t-25.5 9t-10 27q-9 249 -13 534l-122 -33q-147 -43 -232 -63v-87q0 -212 -8 -378q0 -14 -11.5 -24.5t-25.5 -9.5t-24.5 12.5t-10.5 25.5q8 161 8 364v83q-31 -4 -36 26z" />
<glyph unicode="I" horiz-adv-x="227" d="M190 248q0 16 -1 32q0 101 8 240l8 211q0 86 -2 244t-2 213q0 14 10 25.5t24.5 11.5t24.5 -11.5t10 -25.5q0 -55 3 -213q2 -95 2 -164q0 -46 -1 -80q0 -57 -7 -216q-6 -139 -6 -238v-27q1 -106 13 -211q2 -14 -7 -25.5t-23.5 -13.5t-25.5 7t-13 24q-13 107 -15 217z" />
<glyph unicode="J" horiz-adv-x="815" d="M137 319q-4 14 3 26.5t21.5 18t27 -2t18.5 -21.5q29 -92 82 -151.5t110 -73.5q14 -3 27 -3q42 0 82 27q55 35 96 137q46 114 46 306q0 62 -5 133q-4 35 -7 75.5t-8 90t-7 75.5q-12 137 -13 222l-198 -105q-12 -8 -26.5 -4t-22 17.5t-3 28t18.5 20.5l80 45q59 31 92 47 l82 41q49 25 94 43l88 35q14 4 27.5 -2.5t18.5 -20.5t-1 -27.5t-20 -19.5q-76 -25 -166 -68q10 -10 8 -22q0 -84 12 -223q2 -27 7.5 -76t8.5 -90t7 -78q5 -69 5 -131q0 -209 -52 -340q-47 -119 -125 -170q-55 -38 -117 -38q-23 0 -47 5q-78 20 -143.5 94t-100.5 180z" />
<glyph unicode="K" horiz-adv-x="849" d="M152 1253q0 14 11 25.5t25.5 11.5t25.5 -11t11 -26q0 -197 2 -596q2 8 4 15q4 6 15 18q8 10 20 23l68 65l192 180q272 250 318 279q12 8 26.5 5t22.5 -16.5t5 -27.5t-17 -22q-39 -25 -308 -271l-190 -178l-64 -63q-12 -12 -18 -21l-4 -4q-8 -16 -8 -37l12 -12l41 -35 q53 -47 57 -49q164 -135 428 -410q10 -10 9.5 -25.5t-11 -25.5t-26 -9t-25.5 11q-258 270 -420 402q-6 6 -59 53l-41 35l-14 12l-7 6q0 2 -2 2q-2 2 -4 6q2 -303 2 -491q0 -14 -11 -24.5t-25.5 -10.5t-25.5 10t-11 25q0 197 -2 591t-2 590z" />
<glyph unicode="L" horiz-adv-x="720" d="M158 1231q0 14 11 24.5t25.5 9.5t24.5 -12.5t8 -25.5q-8 -137 -8 -286q0 -311 35 -675q14 -135 14 -170q2 -12 -2 -30q16 4 39 12q59 23 154 61l260 117q14 6 27.5 1t19.5 -19.5t1 -27.5t-19 -20l-261 -116q-98 -43 -159 -64q-37 -12 -60 -16q-14 -4 -24 -4q-20 0 -33 10 q-20 17 -20 46q0 10 2 20q0 6 2 11t2 7t1 4t1 4q-2 33 -15 166q-34 378 -34 687q0 151 8 286z" />
<glyph unicode="M" horiz-adv-x="862" d="M94 20q-3 59 -3 141q0 110 5 261q12 352 15 397l2 232q2 78 6 120q2 25 4 41q2 10 4 17l8 12q12 14 33 12q33 -2 63 -41q23 -29 48 -79q41 -86 88 -228q57 -178 112 -401q14 -61 31 -117q8 -20 12 -37q10 20 21 49q35 86 84 236q84 264 127 440q2 8 22 111q6 29 10 43 q4 12 7.5 19t9.5 12q12 12 31 10q18 0 30 -19q4 -6 6 -16q4 -12 11 -35q6 -33 12 -92q10 -94 12 -143q6 -90 6 -183.5t-4 -201t-8 -180t-12 -199.5t-13 -181q0 -14 -11 -24t-25.5 -9t-24.5 12t-8 26q2 55 10 182t12 198.5t8.5 177t4.5 197.5t-4 181q-2 33 -11 106l-2 -8 q-41 -172 -129 -447q-49 -152 -84 -239q-20 -51 -37 -80q-10 -16 -18 -27q-18 -20 -39 -20q-16 0 -29 14q-6 4 -10 12q-6 10 -12 27q-10 25 -23 68q-16 57 -32 120q-66 252 -111 396q-47 139 -84 219q-14 27 -27 47q-2 -39 -4 -100l-4 -230q0 -47 -12 -399q-6 -166 -7 -279 q0 -68 3 -116q2 -14 -8.5 -25.5t-24.5 -12.5t-25.5 9t-11.5 24z" />
<glyph unicode="N" horiz-adv-x="739" d="M143 8q-2 29 -2 76q0 112 13 326q2 53 8 154.5t8 117.5q8 158 12 270q0 59 2 111q0 4 -4 12q0 2 -2 11.5t-4 15.5q-4 20 0 33q8 35 43 36q25 2 45 -18q12 -10 25 -33q18 -31 39 -84q14 -39 47 -141q145 -463 215 -633q16 -37 57 -121l4 -10q0 10 2 21v65q0 39 -1 54.5 t1 25.5q6 162 32 465t34 440q0 14 11 24.5t25.5 9.5t24.5 -12.5t8 -25.5q-6 -135 -31.5 -439t-33.5 -466q0 -2 1 -23.5t1 -52.5t-2 -65v-95q-2 -20 -2 -32q-2 -8 -3 -13.5t-3 -9.5q-6 -18 -27 -20q-18 -4 -33 10q-6 4 -12 10q-8 10 -18 29q-16 29 -43 80q-41 84 -58 122 q-78 188 -219 641q-33 106 -45 136l-4 12q0 -33 -2 -70q-2 -117 -12 -274q0 -16 -6.5 -117.5t-10.5 -154.5q-12 -217 -11 -327q0 -41 1 -67q2 -14 -8 -25.5t-24.5 -12.5t-26 9.5t-11.5 24.5z" />
<glyph unicode="O" horiz-adv-x="811" d="M140 767q14 132 50 220q29 74 109 164q45 51 86 74q32 19 61 19q20 0 37 -9h4q106 0 195 -96q119 -135 161 -390q17 -101 17 -195q0 -142 -39 -267q-76 -242 -268 -295q-18 -5 -38 -5q-37 0 -81 17q-45 18 -92 51q-166 115 -201 445q-7 69 -7 137q-1 65 6 130zM213 506 q31 -297 170 -393q39 -27 78 -41q32 -13 55 -13q9 0 16 2q156 43 220 248q36 114 36 246q0 87 -16 182q-39 236 -143 355q-54 57 -109 67v-12q4 -14 -4 -26.5t-22.5 -16.5t-26.5 4t-16 22q-2 10 -2 27q-29 -8 -58 -24q-8 -4 -16 -5q-10 -12 -23 -24q-72 -82 -96 -141 q-31 -82 -43 -205q-7 -60 -7 -123t7 -129z" />
<glyph unicode="P" horiz-adv-x="675" d="M36 1091.5q-5 14.5 1 28t20 17.5q227 84 349 102q50 7 92 7q191 0 221 -152q4 -20 4 -41q0 -119 -131 -273q-100 -117 -336 -237q10 -115 12 -187q14 -328 15 -348q2 -14 -8.5 -25.5t-24.5 -12.5t-25.5 9.5t-11.5 24.5q-2 23 -14 348l-11 156l-32 -16q-14 -6 -27.5 -1 t-21 18t-2 26.5t17.5 21.5l57 29q-14 161 -14 285q0 142 18 237l-102 -37q-14 -6 -27.5 0t-18.5 20.5zM250 621q203 104 289 204q113 133 113 227q0 15 -3 29q-20 92 -154 92q-36 0 -79 -6q-74 -10 -164 -37q6 -12 4 -24q-18 -94 -19 -231q1 -112 13 -254z" />
<glyph unicode="Q" horiz-adv-x="837" d="M61 528q2 109 31 215q55 203 182 334q117 118 274 118q17 0 34 -1q18 10 34 2l13 -8q31 -4 61 -14q14 -6 21.5 -19.5t3.5 -26.5v-2q84 -78 128 -202q40 -113 40 -227v-21q-4 -125 -33 -254q-29 -111 -80 -203l104 -104q10 -10 11.5 -25.5t-9 -26t-25.5 -11.5t-26 9 l-94 95q-35 -51 -76 -88q-100 -92 -209 -92q-60 0 -122 28q-92 43 -155 126t-87 186q-21 94 -21 195v17zM132 458q5 -128 63.5 -235.5t156.5 -152.5q47 -22 92 -22q84 0 162 73q39 35 74 86l-242 242q-10 10 -10 24t10.5 25.5t24.5 11.5t24 -12l230 -228q39 78 63 170 q30 133 30 258v8q-1 130 -54.5 242.5t-151.5 171.5q-26 4 -52 4q-124 0 -222 -94q-119 -112 -170 -305q-29 -121 -29 -233q0 -17 1 -34z" />
<glyph unicode="R" horiz-adv-x="690" d="M63 -31q4 76 4 206q0 16 -0.5 33.5t-0.5 33.5q0 130 4 207q2 66 8 188l10 158q5 119 5 213q0 47 -1 88q-6 4 -10 8q-8 10 -7 25.5t13 25.5l6 4q8 12 23 17q72 50 169 76q79 22 152 22q17 0 33 -2q117 -6 186 -68q80 -72 80 -203q0 -78 -35.5 -149.5t-94 -124.5t-124 -92 t-131.5 -62q-20 -6 -96 -22q-11 -2 -27 -2l33 -41q51 -63 141 -164q195 -221 252 -270q10 -10 11.5 -24.5t-9 -26t-25 -12.5t-26.5 9q-57 53 -256 275l-145 168l-45 59q-10 14 -15 23q-4 -61 -6 -101q-1 -47 -1 -138v-102q0 -24 1 -46q0 -133 -6 -193q0 -14 -11 -24.5 t-25.5 -9.5t-25 12.5t-8.5 25.5zM147 598q16 23 58 23h16h12h7q72 16 88 22q135 43 237.5 141.5t102.5 216.5q0 98 -58 150q-51 45 -143 51q-11 1 -22 1q-66 -1 -138 -21q-84 -24 -145 -62q2 -51 2 -109q0 -98 -6 -218q-1 -17 -11 -195z" />
<glyph unicode="S" horiz-adv-x="897" d="M44 315.5q3 14.5 16.5 22.5t27.5 5t23 -17q70 -111 159 -179q90 -66 183 -77q24 -3 46 -4q174 0 308 196q37 55 55 123q10 38 11 71q0 27 -7 50q-29 106 -112 135q-41 13 -109 13q-41 0 -92 -5q-144 -13 -204 -13q-15 0 -25 1q-131 12 -183 111q-21 37 -21 81 q0 58 38 127q55 102 164 179q115 79 223 79h8q135 -2 211 -124q8 -12 4 -26.5t-16.5 -23t-27 -4t-22.5 16.5q-55 88 -151 90h-5q-88 0 -184 -66q-94 -68 -143 -155q-27 -52 -27 -94q0 -27 11 -48q35 -63 129 -71q8 -1 22 -1q54 0 191 13q54 5 98 5q83 0 133 -17 q121 -41 160 -183q8 -33 8 -67q0 -43 -12 -89q-22 -82 -68 -149q-86 -129 -196 -184q-85 -43 -174 -43q-26 0 -52 4q-111 16 -213 92t-180 199q-8 12 -5 26.5z" />
<glyph unicode="T" horiz-adv-x="720" d="M25 1041.5q-2 15.5 6 26.5t22 13q137 20 336 76l156 43q117 33 180 49q14 4 26.5 -4t16.5 -22.5t-4 -26.5t-23 -16l-176 -50l-143 -38q-9 -101 -9 -243q0 -124 7 -278q18 -446 18 -540q0 -14 -10 -24.5t-24.5 -10.5t-24.5 10t-10 25q0 27 -21 538q-6 154 -6 279.5 t6 222.5q-162 -41 -282 -59q-16 -2 -27.5 6t-13.5 23.5z" />
<glyph unicode="U" horiz-adv-x="745" d="M121 752v68q0 114 5 194q7 104 17 184q0 14 12.5 23.5t27 8.5t23.5 -13.5t7 -26.5q-7 -78 -15 -180q-5 -73 -5 -173v-83q2 -150 20 -279q33 -225 109 -328q59 -81 149 -81q35 0 74 12q90 27 135 155q39 117 41 310q1 23 1 46q0 47 -3 93q-4 70 -10.5 142.5t-12.5 121.5 l-16 115q-8 68 -9 82t8 25.5t23.5 13.5t25.5 -7.5t13 -23.5q2 -12 11.5 -81t13.5 -118l12 -123q8 -75 12 -147q3 -50 4 -97q0 -21 -1 -42q-2 -205 -45 -332q-57 -164 -183 -203q-51 -15 -96 -15q-123 0 -207 113q-86 117 -121 359q-18 129 -20 287z" />
<glyph unicode="V" horiz-adv-x="1009" d="M71 1212.5q5 14.5 18 20.5t27.5 0.5t20.5 -19.5q59 -125 105.5 -254t109.5 -333l80 -260q43 -133 74 -252l6 -25l31 111l75 270q150 473 375 780q8 12 22.5 14.5t27 -6t14.5 -22.5t-6 -27q-217 -299 -363 -759l-76 -269l-41 -145q-8 -31 -14 -47q-2 -10 -4 -15l-4 -8 q-2 -8 -10 -12q-20 -18 -45 -4q-10 6 -17 18q-8 10 -14 33q-4 12 -27 96q-29 111 -74 248l-79 260q-61 205 -107.5 331t-103.5 249q-6 12 -1 26.5z" />
<glyph unicode="W" horiz-adv-x="1032" d="M74 1251q-4 14 3 27.5t21.5 17.5t27.5 -3t17 -21q94 -311 213 -926q2 -8 6 -33l11 -61q6 -37 12 -68q18 223 111 666q4 16 20 92v8v15q0 8 2 20q0 20 6 33q8 18 25.5 23.5t34.5 -5.5q14 -6 24 -24q6 -12 13 -29q12 -31 28 -84q23 -88 58 -242l34 -168l33 -157l19 -82 q6 -23 34 -113l4 25q6 31 12.5 70.5t9.5 63t5 28.5l64 393q53 330 88 504q2 16 14 24t27.5 5t23.5 -15t4 -27q-35 -176 -87 -504.5t-64 -392.5q0 -4 -4 -27.5t-10.5 -62.5t-10.5 -69l-16 -103q-4 -20 -6 -33q-2 -6 -2 -10l-2 -6q-2 -2 -3 -4q-4 -10 -14 -16q-16 -10 -35 -3 q-6 4 -12 11q-6 4 -10 12q-4 10 -12 29q-12 29 -29 80q-33 96 -39 124l-18 82l-33 160l-35 168q-35 152 -57 236l-2 8l-13 -53q-92 -442 -110 -662q0 -18 -2 -61t-4 -62q-2 -35 -7 -55q-2 -14 -4 -23q-8 -23 -26 -30q-29 -8 -45 16q-4 6 -9 16q-6 14 -12 41q-10 41 -24 115 l-21 121q-12 74 -14 84q-123 623 -213 917zM371 -4v-2v2z" />
<glyph unicode="X" horiz-adv-x="845" d="M69 2.5q-5 14.5 1 28.5q23 43 50 86t66 98t54 78q90 131 252 348l-375 580q-8 12 -5 26.5t16 22.5t27.5 5t22.5 -18l359 -555q186 248 284 396q8 12 23.5 15t28 -5t15.5 -23.5t-5 -27.5q-90 -133 -293 -404l-12 -16q193 -313 313 -569q6 -12 1 -26.5t-18.5 -21t-28 -1 t-20.5 19.5q-115 244 -293 536q-147 -197 -231 -323l-57 -80q-39 -53 -63.5 -92t-45.5 -82q-6 -12 -20.5 -17.5t-27.5 1t-18 21z" />
<glyph unicode="Y" horiz-adv-x="921" d="M56 1212.5q1 14.5 13.5 23.5t27 8t24.5 -13q63 -82 205 -322l88 -153l10 -21l45 68l166 246q225 338 268 409q8 12 22.5 16.5t27 -4t16.5 -22.5t-4 -27q-45 -74 -271 -413l-166 -246l-55 -80l-14 -20v-642q0 -14 -11.5 -25t-25.5 -11t-25.5 11t-11.5 25v637l-6 15l-29 47 l-88 153q-137 236 -199 314q-8 12 -7 26.5z" />
<glyph unicode="Z" horiz-adv-x="985" d="M102 59v7q2 4 2 8l7 12q6 12 18 35l59 100q82 143 103 172q80 115 178 242q-84 2 -158 8q-14 0 -24.5 11.5t-9 25.5t12.5 24.5t25 8.5q98 -6 211 -6l279 335q31 39 61 80q14 18 25 35q-57 -6 -88 -6q-51 -4 -307 -10q-14 -2 -79 -3t-89.5 -2t-70.5 -6.5t-83 -13.5 q-14 -4 -26.5 4t-16.5 22.5t4.5 27t22.5 16.5q41 10 90 15t75.5 6t93 2t79.5 1q252 8 303 11q31 2 94 8l37 4h12q2 2 4 2t4 -2h6l9 -4q12 -6 18 -19q4 -18 -4 -41q-4 -12 -14 -28q-14 -25 -41 -62q-33 -43 -66 -82l-240 -290q53 2 119 2q16 2 26.5 -8.5t11.5 -26t-9 -25.5 t-25 -10q-102 -4 -180 -4q-119 -150 -213 -283q-18 -27 -98 -166l-57 -100l-3 -4q29 -2 74 -2q66 -2 268 -6q244 -4 465 -4q14 0 24.5 -10.5t10.5 -25t-10 -24.5t-25 -10q-276 0 -465 2q-162 2 -272 6q-63 2 -90 4q-18 2 -29 4q-8 2 -12 4q-14 4 -23 17q-6 10 -4 22z" />
<glyph unicode="[" horiz-adv-x="495" d="M80 246q2 111 6 239l8 236q2 104 4 129q2 121 6 264q4 104 7 166q2 35 4 55q0 10 2 17q0 4 1 8t1 6q4 8 10 14q25 23 66 15q8 0 15 -2t11 -3t8 -1q53 0 136 10q115 12 141 12q14 2 25.5 -8t12.5 -24.5t-9.5 -26t-24.5 -11.5q-25 -2 -137 -14q-86 -8 -144 -8q-10 0 -43 6 q-2 -18 -4 -49q-2 -59 -6 -164q-4 -143 -8 -262q0 -27 -3 -132.5t-7 -233.5t-6 -238q-2 -217 2 -346q4 -76 10 -123q4 -45 10 -58q23 -37 117 -32q35 2 90 10q70 10 78 10q14 2 26.5 -7t13.5 -23.5t-8.5 -26.5t-23.5 -12q-8 -2 -74 -13q-59 -8 -98 -10q-139 -6 -182 72 q-14 23 -21 82q-6 49 -10 127q-4 133 -2 350z" />
<glyph unicode="\" horiz-adv-x="524" d="M-68 1405q-6 12 0.5 26.5t19.5 19.5t27.5 -1t18.5 -20l172 -431l219 -524l180 -426q6 -14 0 -27.5t-19 -19.5t-26.5 0t-19.5 18l-180 426l-222 529z" />
<glyph unicode="]" horiz-adv-x="307" d="M-78 1346.5q-2 15.5 6.5 26.5t24.5 13q2 2 72 15q57 10 96 12q135 10 180 -63q14 -25 25 -86q10 -49 16 -127q10 -127 12 -349q2 -178 2 -247q0 -94 -2 -213t-2 -144q0 -6 1 -47t1 -102v-115v-164q-2 -35 -2 -55q0 -12 -2 -18q0 -4 -2 -9q0 -10 -10 -20q-23 -23 -66 -16 q-8 2 -15 3t-10 2t-7 1q-55 -2 -136 -15q-135 -18 -137 -18q-14 -2 -26.5 7t-13.5 23.5t8.5 27t23.5 12.5q2 0 135 20q84 10 142 12q12 2 45 -4q0 18 2 49v162v115v102v47q0 25 1 143.5t1 213.5q0 70 -2 245q-2 219 -13 344q-6 76 -14 123q-8 45 -16 60q-23 35 -115 28 q-37 -2 -88 -12q-70 -12 -76 -12q-14 -2 -25.5 6t-13.5 23.5z" />
<glyph unicode="^" horiz-adv-x="819" d="M139 629q14 78 140 379q55 135 98 217q23 47 39 73q10 16 18 27q14 14 27 21q33 10 67 -9q23 -12 43 -34q35 -35 78 -129q25 -51 76 -189q111 -293 137 -344q8 -12 4 -26.5t-17 -21.5t-27.5 -3t-20.5 18q-23 39 -142 353q-45 119 -73 184q-39 82 -64 108q-14 14 -26 21 q-4 2 -9 2q-4 -6 -10 -14q-14 -25 -37 -70q-41 -82 -96 -213q-121 -291 -135 -363q-2 -14 -14.5 -23t-26.5 -6t-23.5 15.5t-5.5 26.5z" />
<glyph unicode="_" horiz-adv-x="993" d="M-36 -203.5q1 15.5 11.5 25.5t26.5 8q211 -6 1004 -6q14 0 24 -11.5t10 -25.5t-10 -25.5t-24 -11.5q-793 0 -1008 10q-14 0 -24.5 10.5t-9.5 26z" />
<glyph unicode="`" horiz-adv-x="280" d="M51 1431.5q0 14.5 10.5 25.5t25 11t24.5 -12q43 -43 108 -123q70 -88 100 -121q10 -10 9.5 -25.5t-11 -25.5t-26 -9t-25.5 11q-33 35 -104 125q-63 80 -101 119q-10 10 -10 24.5z" />
<glyph unicode="a" horiz-adv-x="802" d="M55 354q45 145 174 310q125 158 263 251q130 89 226 89q22 0 42 -5q18 -4 35 -16q2 0 6 2q27 4 39 -20l4 -13q2 -10 0 -24q16 -22 -2 -45q-2 -25 -4 -27q-8 -104 -39 -201q-2 -18 -4 -39q-6 -126 -6 -220q0 -75 4 -128q2 -20 4 -34.5t7 -31t7 -23.5t11 -30.5t14 -35.5 q6 -12 -0.5 -26.5t-19.5 -20t-27.5 1t-18.5 20.5q-4 8 -14.5 33.5t-13.5 34t-8 28t-8 38t-3 42.5q-5 54 -5 146q0 31 1 65q-174 -332 -418 -414q-47 -14 -100 -14q-72 2 -109 41q-58 56 -58 146q0 54 21 120zM123 334q-17 -55 -17 -98q0 -62 35 -99q18 -16 62 -18 q41 0 78 12q133 43 239 172q106 131 178 295q17 39 29 72q4 88 12 151q8 61 19 99q-10 8 -15 10q-13 3 -27 3q-73 0 -184 -77q-131 -88 -247 -238q-119 -152 -162 -284z" />
<glyph unicode="b" horiz-adv-x="763" d="M131 1335q0 14 10.5 25.5t24.5 11.5t24.5 -11t10.5 -26q0 -215 2 -645q29 39 73 76q161 129 289 130q36 0 70 -11q70 -23 113 -83.5t57 -142.5q7 -42 7 -86q0 -65 -16 -133q-26 -116 -108 -219.5t-207 -150.5q-95 -37 -155 -37h-11q-53 4 -110 37v-13v-12 q0 -14 -10.5 -25.5t-24.5 -11.5t-24.5 11.5t-10.5 25.5q0 215 -2 645t-2 645zM205 158h2q63 -51 115 -54h10q45 0 125 31q104 41 174.5 130t95.5 189q15 60 15 117q0 39 -7 76q-27 139 -123 168q-23 8 -49 8q-100 0 -241 -114q-51 -41 -74 -82t-39 -113q-2 -6 -4 -10v-346z " />
<glyph unicode="c" horiz-adv-x="854" d="M135 496q4 221 107 378q52 82 126 126q56 33 120 33q20 0 42 -3q178 -29 246 -266q4 -14 -3 -27.5t-21.5 -17.5t-27.5 3t-17 21q-53 195 -189 218q-15 2 -30 2q-106 0 -185 -127q-92 -143 -96 -340v-16q0 -191 90 -290q64 -71 165 -71q63 0 142 28q51 16 121 82 q20 18 59 58.5t58 56.5q12 10 26.5 9t24.5 -12t9 -25.5t-11 -24.5q-18 -16 -57 -55l-60 -60q-82 -76 -145 -98q-90 -31 -166 -31q-132 0 -219 94q-109 117 -109 332v23z" />
<glyph unicode="d" horiz-adv-x="788" d="M146 362v8q0 94 36 176q37 85 101 159q100 111 217 145q42 13 79 12q73 0 130 -47q-1 45 -1 90q0 90 5 182l10 173q6 70 8 110q2 25 4 37q2 8 2 14q0 2 2 6q2 8 6 15q8 8 19 12q14 4 27 -4q10 -4 16 -14q2 -4 2 -9q0 -2 1 -4t1 -6q0 -6 2 -18q2 -18 4 -53q6 -72 6 -82 q8 -127 11 -226q1 -58 2 -112q0 -265 -33 -445q20 -287 20 -436q0 -14 -10 -25.5t-24.5 -11.5t-24.5 11.5t-10 25.5q0 102 -9 229q-25 -61 -57 -108q-88 -127 -225 -127h-12q-152 4 -246 143q-57 82 -59 180zM262 223q76 -111 193 -114h4q101 0 172 98q63 92 96 266l4 12 l-6 78q-6 84 -8 101q-2 4 -4 6l-11 26l-4 9q-4 10 -6 16q-8 20 -16 29q-42 40 -101 40q-27 0 -57 -8q-96 -29 -180 -127q-57 -63 -89 -137q-31 -72 -31 -148q0 -81 44 -147z" />
<glyph unicode="e" horiz-adv-x="808" d="M102 541q7 14 21 18q72 209 278 330q123 73 217 73q52 0 95 -22q81 -42 81 -137q0 -19 -3 -41q-16 -94 -80 -166q-96 -106 -250 -143q-65 -16 -126 -16q-85 0 -163 30q-7 -40 -8 -78q0 -48 12 -92q31 -131 135 -178q50 -23 110 -23q81 0 179 43q39 18 75 46t58 53l62 71 q8 12 23.5 13.5t26.5 -8t12 -25t-9 -25.5q-41 -51 -63.5 -75.5t-65.5 -59.5t-90 -55q-113 -51 -209 -51q-74 0 -139 30q-135 63 -175 228q-14 52 -14 106.5t14 112.5q-16 20 -4 41zM190 537q69 -27 146 -28q50 1 103 13q134 30 218 123q49 55 62 129q3 15 3 29q0 51 -42 71 q-28 15 -63 15q-73 0 -179 -62q-182 -108 -248 -290z" />
<glyph unicode="f" horiz-adv-x="542" d="M33 604q-4 14 3 27.5t21 17.5q45 12 101 33q-1 39 -1 76q0 211 38 377q12 51 30 108q12 41 25 70q18 39 35 55q44 38 89 38q20 0 40 -7q49 -16 90 -78q63 -90 86 -201q4 -14 -4 -27.5t-22.5 -16.5t-28 5.5t-15.5 22.5q-20 98 -74 176q-31 43 -57 51q-27 10 -55 -16 q-6 -6 -17.5 -30.5t-23.5 -63.5q-16 -53 -29 -103q-36 -155 -36 -351q0 -29 1 -58q104 39 156 55q14 4 27.5 -3t17.5 -21.5t-3 -28t-21 -17.5q-47 -14 -162 -57l-13 -4q4 -96 21.5 -284.5t21.5 -276.5q2 -14 -8 -25.5t-24.5 -12.5t-25.5 9t-11 25q-6 84 -22.5 264t-20.5 274 q-45 -16 -84 -26q-14 -4 -27.5 3t-17.5 21z" />
<glyph unicode="g" horiz-adv-x="845" d="M93.5 -155.5q-5.5 14.5 1.5 26.5t21.5 17.5t26.5 -1.5l45 -26q33 -16 45.5 -21.5t36 -16.5t44 -19.5t48.5 -16.5q82 -29 162 -31h9q75 0 145 31q74 33 108 102q8 16 13 82q2 18 2 37v33q0 16 2 20l8 336q-37 -76 -100.5 -147.5t-135.5 -116.5q-79 -47 -150 -47 q-21 0 -42 4q-106 18 -172 143q-48 98 -48 203q0 20 2 41q11 127 81 242q68 117 178 185q89 53 186 53q24 0 49 -3q98 -12 119 -22q18 -10 35 -31l6 -6v6l4 8q4 12 19 19q16 6 32 -2q8 -6 13 -15q4 -6 4 -12q2 -8 2 -22v-70q-4 -98 -8 -123q0 -8 -2 -16q2 -20 2 -23 q0 -276 -13 -588v-18v-35q0 -18 -2 -37q-4 -82 -18 -110q-49 -92 -144 -134q-86 -38 -171 -38h-16q-93 4 -183 32q-29 10 -51.5 19.5t-46.5 21.5l-39 17q-12 6 -44 23.5t-46 23.5q-12 8 -17.5 22.5zM236 470q-2 -20 -2 -40q0 -89 38 -164q51 -92 123 -106q13 -2 27 -2 q55 0 117 37q74 45 137 125.5t88 154.5q35 104 47 199v92q2 18 2 35q-12 2 -18 12l-37 43q-8 10 -13 12q-10 4 -94 17q-18 2 -35 2q-81 0 -157 -47q-92 -56 -152 -158q-61 -100 -71 -212z" />
<glyph unicode="h" horiz-adv-x="720" d="M151 972v33q0 70 3 166q4 121 18 220q2 14 13.5 23t25.5 7t23.5 -13.5t7.5 -25.5q-12 -96 -16 -214q-4 -96 -4 -165v-30q1 -78 5 -226.5t4 -203.5q2 -86 5 -125q33 139 96 262t157 180q45 29 86 29q15 0 29 -4q49 -14 82 -70q49 -80 70 -258q8 -72 10 -156q4 -88 4 -147 t-2 -128t-2 -77q0 -14 -10.5 -25.5t-24.5 -11.5t-24.5 11.5t-10.5 25.5q0 10 1 78t1 126t-2 144q-4 82 -12 152q-18 162 -59 229q-18 31 -39 37q-25 6 -60 -16q-92 -57 -156.5 -203.5t-82.5 -288.5q-1 -9 -1 -41t1 -88q0 -90 -25 -145q-4 -4 -6 -10q-10 -10 -25 -13 q-23 -4 -34 13q-4 6 -9 14q-2 10 -2 31q-2 6 -2 30v23q-10 86 -12 127q-8 94 -10 295q-2 51 -6 200.5t-5 228.5z" />
<glyph unicode="i" horiz-adv-x="194" d="M147 16q0 676 9 979q0 16 10 26.5t25.5 9.5t25.5 -11.5t8 -24.5q-8 -303 -8 -979q0 -14 -10 -25t-24.5 -11t-25 11t-10.5 25zM160 1298.5q0 16.5 12 28.5t28.5 12t29 -12t12.5 -28.5t-12.5 -29t-29 -12.5t-28.5 12.5t-12 29z" />
<glyph unicode="j" horiz-adv-x="237" d="M-243 -37q3 14 15.5 23.5t27 6.5t22.5 -16l31 -43q20 -31 28 -43l27 -32q16 -20 33.5 -32.5t40.5 -23.5q43 -22 80 -22q40 0 73 26q61 51 72 154q8 67 8 164q0 49 -2 105q-6 169 -14.5 276.5t-23.5 277.5t-19 275q-2 14 8 25.5t24.5 12.5t25.5 -9.5t11 -24.5 q6 -100 21.5 -270t24 -281t14.5 -282q2 -49 2 -92q0 -108 -11 -181q-10 -135 -96 -205q-54 -44 -118 -44q-53 0 -113 30q-29 14 -51.5 31.5t-43 41t-31.5 38t-31.5 46t-27.5 42.5q-10 12 -7 26zM119 1349.5q0 16.5 12 29t28.5 12.5t29 -12.5t12.5 -29t-12.5 -28.5t-29 -12 t-28.5 12t-12 28.5z" />
<glyph unicode="k" horiz-adv-x="763" d="M131 1335q0 14 10.5 25.5t24.5 11.5t24.5 -11t10.5 -26q0 -121 4 -882l4 2l59 57l183 172l192 180q94 86 115 99q12 8 26.5 4t22.5 -16.5t4 -27t-16 -22.5q-14 -8 -105 -90l-190 -178l-183 -172l-59 -58l-2 -2q14 -14 39 -34q47 -43 135 -107l240 -170q12 -8 15 -22.5 t-6 -26.5t-23.5 -15t-26.5 7l-242 170q-90 66 -139 108q-27 23 -43 41v-307q0 -14 -10.5 -25.5t-24.5 -11.5t-24.5 11.5t-10.5 25.5q0 215 -2 645t-2 645z" />
<glyph unicode="l" horiz-adv-x="217" d="M131 106q0 102 3 218t9.5 254.5t10.5 218.5q2 56 2 109t-2 102q-1 30 -1 63q0 73 6 157q9 122 36 216q4 14 17 21.5t27.5 3t21.5 -18t3 -27.5q-25 -89 -34 -203q-6 -79 -6 -150q0 -32 1 -62q2 -39 2 -81q0 -63 -4 -134q-2 -78 -8 -216.5t-10 -253t-4 -217.5 q0 -14 -10.5 -25t-24.5 -11t-24.5 11t-10.5 25z" />
<glyph unicode="m" horiz-adv-x="1056" d="M145 98q2 18 0 23v24q0 65 9 103q-4 70 -4 80q-6 220 -6 389q0 241 12 377q0 16 11 25t26.5 8t24.5 -12t7 -25q-11 -150 -11 -372q0 -111 3 -241q43 137 88 250q55 143 105 221q31 47 59 72q31 27 61 27q9 0 19 -3q47 -10 67 -69q16 -43 23 -117q3 -35 3 -82 q0 -94 -11 -233l-2 -25q25 94 53 176q90 254 215 344q33 23 49 33q23 9 43 9q19 0 36 -8q34 -17 52 -77q12 -43 21 -116q6 -73 6 -179q0 -64 -2 -139q-4 -125 -19 -332q-10 -180 -10 -213q0 -14 -11 -25t-25.5 -11t-26 11t-11.5 25q0 35 13 220q14 225 18 327q2 74 2 136 q0 103 -6 173q-6 66 -18 103q-8 29 -17 35q-4 0 -14 -4q-12 -6 -39 -25q-106 -78 -188 -311q-61 -174 -95 -377l-30 -197l-9 -53q-2 -8 -2 -12q-2 -4 -2 -6v-2q-2 -4 -4 -7q-4 -10 -14 -16q-14 -6 -31 0q-10 4 -16 14q-14 27 -17 86v22q0 41 5 103q2 51 12 164t12 158 q11 137 11 228q0 45 -3 79q-4 61 -16 94q-10 25 -19 27q-6 0 -16 -10q-20 -16 -45 -56q-45 -72 -100 -207q-82 -211 -125 -380q-4 -20 -11.5 -46t-9.5 -34l4 -62q2 -57 4 -88v-31v-12q0 -2 -1 -5t-3 -7q-2 -8 -10 -14q-16 -14 -35 -11q-20 2 -30 23q-6 12 -7 33q-2 12 -2 30 z" />
<glyph unicode="n" horiz-adv-x="686" d="M135 393q-8 202 -8 352.5t8 249.5q0 16 11.5 25.5t26.5 8.5t24.5 -12.5t7.5 -25.5q-8 -100 -8 -235q0 -115 6 -256q27 113 63 211q47 135 101 217q68 104 143 119q19 4 36 4q42 0 70 -25q25 -20 41 -74q14 -43 27 -110q18 -113 31 -301q18 -274 18 -510q0 -14 -10 -24.5 t-24.5 -10.5t-24.5 10t-10 25q0 240 -19 506q-14 178 -33 292q-10 63 -22 101q-10 35 -19 43q-14 10 -49 4q-45 -8 -96 -88q-47 -76 -92 -203q-78 -219 -101 -391q-12 -100 -12 -150q0 -4 8 -30q12 -35 4 -62q-2 -4 -6 -10q-8 -12 -22 -16q-23 -6 -37 12q-4 4 -8 12t-6 29 q0 10 -2 29.5t-2 25.5q-8 53 -15 258z" />
<glyph unicode="o" horiz-adv-x="714" d="M123 625q39 233 151 360q61 70 136 84q14 2 28 2q28 0 56 -8q2 0 4 -2q10 -2 20 -6q72 -27 88 -37q51 -27 92 -90q50 -80 62 -228q4 -47 4 -94q0 -99 -19 -194q-31 -158 -94 -258q-78 -121 -192 -127q-14 -1 -27 -1q-196 0 -278 193q-46 106 -46 242q0 77 15 164z M193 614q-14 -81 -14 -152q0 -122 40 -216q65 -150 220 -150h16q78 6 135 97q57 88 84 233q19 96 19 189q1 40 -3 79q-12 131 -53 193q-31 49 -66 67l-12 9q-18 -8 -34.5 4t-32.5 20l-17 6q-29 8 -53 4q-49 -8 -94 -59q-98 -113 -135 -324z" />
<glyph unicode="p" horiz-adv-x="712" d="M111 645q-6 12 0 27v4q2 109 8 209q0 14 11 24.5t25.5 9.5t24.5 -12.5t8 -25.5q-2 -43 -2 -86q82 94 189 143q73 32 137 32q25 0 49 -5q98 -25 146 -136q43 -102 53 -235q2 -31 2 -62q0 -102 -25 -204q-33 -131 -106 -219q-66 -78 -152 -84q-9 -1 -18 -1q-65 0 -133 39 q-76 45 -142 127q8 -393 11 -524q0 -14 -11.5 -24.5t-26 -10.5t-25.5 10.5t-11 24.5q0 141 -7 472q-5 257 -5 421v86zM182 659q-1 -47 -1 -99q0 -105 3 -230q0 -2 2 -4q27 -55 75 -111.5t104 -89.5q53 -29 97 -29h11q57 4 105 58q61 74 90 192q22 93 22 188q0 26 -2 53 q-8 122 -47 214q-33 78 -96 94q-16 4 -34 4q-47 0 -105 -27q-72 -33 -134.5 -93t-89.5 -120z" />
<glyph unicode="q" horiz-adv-x="903" d="M78 442q35 201 155 379q131 190 277 221q24 5 48 5q110 0 194 -113q10 8 22 8q27 2 41 -22q7 -14 7 -41q0 -10 -1 -23q-6 -74 -51 -252q-8 -84 -8 -86q-14 -139 -37 -438q-14 -178 -16 -246q0 -16 -2 -31l51 68q76 104 127 186q8 14 22.5 17.5t27.5 -5t16 -22.5t-5 -27 l-131 -190q-45 -63 -74 -98q-16 -20 -26 -31q-8 -8 -17 -12q-23 -12 -43 2q-10 8 -16 20q0 6 -2 15q-2 10 -2 26q0 31 2 84q4 80 16 248q12 170 25 301q-63 -119 -131 -205q-98 -121 -191 -151q-34 -11 -65 -11q-83 0 -150 78q-74 86 -74 229q0 54 11 117zM147 430 q-10 -56 -10 -104q0 -118 58 -185q44 -52 97 -52q19 0 40 7q74 25 157 129q76 92 134 205q59 117 75 184v2l9 103q8 80 12 127l2 6q-72 122 -165 122q-16 0 -32 -3q-117 -25 -231 -191q-113 -164 -146 -350z" />
<glyph unicode="r" horiz-adv-x="604" d="M98 778q-1 27 -1 53q0 51 3 99q4 70 15 137q2 16 13 24.5t26.5 6.5t23.5 -13.5t6 -25.5q-14 -111 -15 -251q0 -18 1 -36q37 104 111 156q67 45 164 45q81 0 182 -31q14 -4 21 -17.5t3 -27.5t-17 -21.5t-28 -3.5q-92 29 -161 29q-74 0 -123 -33q-78 -53 -105 -200 q-15 -83 -15 -238q0 -34 1 -72q2 -98 2 -165q0 -102 -4 -136v-6q0 -2 -2 -4q-2 -8 -9 -14q-12 -14 -28.5 -12t-24.5 14q-6 6 -8 12v8q-2 6 -2 23v28q0 20 -2 27q-2 78 -2 98v9q0 2 2 4l-6 116l-8 136q-6 98 -8.5 149t-4.5 133z" />
<glyph unicode="s" horiz-adv-x="776" d="M95 286.5q3 14.5 16.5 22.5t28 5t22.5 -17q115 -180 266 -201q16 -2 32 -2q135 0 242 154q28 43 42 94q8 29 8 56q0 20 -4 38q-20 80 -84 101q-29 10 -82 10q-33 0 -76 -4q-130 -11 -175 -11h-7q-109 10 -152 93q-19 34 -19 72q0 47 29 102q45 84 135 143q59 38 123 54 q28 7 56 8q36 0 74 -12q66 -20 110 -89q8 -12 4 -26.5t-16.5 -22.5t-27 -4t-22.5 16q-38 64 -112 66h-7q-70 0 -141 -49q-76 -49 -112 -117q-21 -41 -21 -72q0 -20 8 -37q27 -47 97 -53h12q42 0 158 10q44 4 80 4q66 0 106 -14q100 -33 131 -151q8 -28 7 -57q0 -33 -9 -69 q-18 -67 -55 -120q-128 -185 -300 -185q-21 0 -42 3q-90 12 -172 73.5t-146 161.5q-8 12 -5 26.5z" />
<glyph unicode="t" horiz-adv-x="598" d="M87 884.5q1 14.5 13.5 23.5t26.5 7q19 -2 40 -2q51 0 109 11q10 238 27 462q0 14 11.5 24.5t25.5 9.5t24.5 -12t8.5 -26q-14 -215 -25 -440q35 8 120 36t134 40q14 4 26.5 -4t16.5 -22.5t-4 -27t-23 -16.5q-39 -10 -131 -39.5t-143 -42.5q-14 -397 -16 -819 q0 -14 -10.5 -24.5t-24.5 -10.5t-24.5 10.5t-10.5 24.5q0 412 14 805q-53 -9 -101 -9q-27 0 -52 3q-14 0 -23.5 12t-8.5 26.5z" />
<glyph unicode="u" horiz-adv-x="704" d="M137 457q-6 95 -6 195q0 183 19 386q0 14 11 23.5t26.5 8.5t24.5 -12.5t7 -27.5q-17 -190 -17 -361q0 -108 7 -208q14 -199 55 -305q41 -105 102 -105h7q8 2 22 19q20 20 43 59q39 74 86 203q68 197 109 379q23 104 35 190q0 6 2 70q0 23 2 33q2 6 6 12q14 27 43 18 q14 -6 22 -20l5 -8q5 -17 5 -38q0 -16 -3 -34q-6 -45 -7 -51q-2 -59 -9 -194.5t-10 -221.5q-1 -32 -1 -68q0 -59 3 -131q5 -114 22 -194q4 -14 -4.5 -27.5t-22.5 -16.5t-27.5 5t-15.5 22q-27 124 -27 326q0 58 2 121q-31 -106 -61 -195q-49 -135 -92 -215q-27 -47 -51 -74 q-33 -37 -68 -38q-8 -1 -17 -1q-109 0 -167 148q-45 117 -60 328z" />
<glyph unicode="v" horiz-adv-x="763" d="M98 991q-4 16 4.5 28.5t23.5 15.5t27.5 -5t14.5 -22q25 -119 94 -316q88 -246 111 -319q0 -2 18.5 -73t32.5 -120l6 -16q8 49 43 180q68 248 270 725q6 14 19.5 19.5t28 -1t19.5 -19.5t-1 -28q-201 -471 -266 -716q-39 -139 -47 -195q0 -2 6 -43q2 -11 2 -22 q0 -37 -23 -58q-18 -16 -41 -10q-14 4 -24 16.5t-23 38.5q-16 37 -39 111q-14 47 -32.5 117.5t-18.5 72.5q-8 31 -108 316q-70 199 -97 323zM469 59v2v-2z" />
<glyph unicode="w" horiz-adv-x="1026" d="M115 989q-4 14 5 26.5t23.5 15.5t26.5 -6.5t14 -23.5q27 -133 88 -366q74 -276 95 -371q6 -31 22 -94q16 41 55 154q96 279 115 315q2 4 6 16q6 20 8 27q8 20 19 31q23 25 53 14q16 -6 27 -29q6 -10 12 -26q8 -29 18 -78l39 -223q27 -150 43 -215q6 -23 11 -41l2 6 q8 33 28 135q61 328 179 758q4 14 17 21t27.5 3t21.5 -17t3 -28q-115 -416 -178 -749q-20 -106 -29 -142q-10 -37 -20 -57q-21 -35 -52 -35h-6q-20 2 -34 23q-8 10 -17 26q-10 29 -22 78q-16 70 -43 221q-33 188 -41 222q-2 16 -6 30v-4q-10 -18 -111 -305 q-41 -117 -63 -172q-14 -37 -25 -57q-6 -12 -12 -21q-12 -18 -31 -18q-33 -4 -49 24q-6 14 -6 35q0 2 -2 25v14q-25 94 -29 117q-14 61 -94 368q-61 233 -88 373z" />
<glyph unicode="x" horiz-adv-x="776" d="M46 41q-1 14 9 27q127 137 375 436q-8 10 -40 59t-42 64l-37 61l-39 66l-34 63q-23 41 -37 70l-29 63q-16 37 -27 72q-6 14 0.5 27.5t20.5 18.5t27.5 -1t17.5 -20q31 -82 81 -178.5t77 -139.5l108 -168l285 334q10 10 24.5 11t25.5 -9t12 -24.5t-9 -26.5 q-113 -125 -297 -348l27 -43l65 -113q49 -82 85 -137t75 -105q8 -12 7 -26.5t-13 -23.5t-26.5 -8t-24.5 13q-39 51 -77 109.5t-87 142.5l-66 111l-14 22q-233 -283 -360 -422q-10 -10 -24.5 -11t-26 9.5t-12.5 24.5z" />
<glyph unicode="y" horiz-adv-x="780" d="M96 723q0 14 3 88t3 109q0 14 10.5 24t25 10t24.5 -10t10 -24v-60q0 -31 -2 -71.5t-2 -67.5q-1 -43 -1 -81q0 -76 5 -132q25 -238 160 -320q48 -29 93 -29q21 0 42 7q119 39 182 186q47 109 66 281l6 63q-2 16 -2 31q-4 78 -4 125q2 29 4 45q0 12 4 18q4 18 18 27 q18 10 37 2q12 -6 19 -18q4 -10 6 -25q2 -20 0 -61q-2 -53 -10 -146q2 -39 10 -166q2 -27 9 -99.5t11 -117.5t6 -126v-31q0 -59 -6 -93q-33 -313 -276 -348q-60 -9 -115 -9q-51 0 -98 8q-98 16 -199 71q-14 6 -18 20.5t3 27.5t21.5 17.5t26.5 -4.5q92 -49 178 -62 q41 -6 87 -6q49 0 102 7q190 29 219 285q3 38 3 86q0 101 -14 247q-12 -41 -28 -77q-76 -178 -228 -228q-30 -9 -61 -9q-64 0 -131 40q-166 100 -195 375q-5 59 -5 137q0 40 1 84z" />
<glyph unicode="z" horiz-adv-x="950" d="M135 88q0 10 6 21q2 4 6 10q6 10 19 24l61 74l191 219l53 60q-102 2 -168 4q-16 0 -26.5 10t-9.5 25.5t11.5 25.5t24.5 8q74 0 232 -2l200 224q2 2 7.5 6t15.5 14l14 14l57 58q29 33 43 53q-39 -6 -51 -6q-78 0 -381 8q-43 1 -82 1q-96 0 -159 -7q-14 -2 -25.5 7 t-13.5 23.5t7 25.5t23 13q64 8 164 8q42 0 90 -1q244 -8 377 -9q4 0 9.5 1t14.5 3.5t19 4.5q11 2 20 2q33 0 54 -21q18 -20 12 -49q-4 -16 -14 -37q-18 -29 -55 -69q-25 -27 -60 -60q-6 -8 -14 -15t-12 -11l-7 -7l-157 -176q90 -2 155 -4q16 0 26.5 -10t9.5 -25.5t-11 -26 t-25 -7.5q-84 2 -219 2l-96 -105l-190 -217l-60 -72q14 -4 33 -6q68 -6 192 -6q215 2 515 25q14 2 25 -7.5t12 -24.5t-8 -26.5t-25 -11.5q-299 -25 -516 -27q-131 0 -203 9q-43 4 -66 12q-16 6 -26 14q-18 14 -19 37z" />
<glyph unicode="{" horiz-adv-x="595" d="M-137 514q4 12 16 21q6 4 19 8q2 0 34 10q61 14 99 33q121 66 174 174q8 14 13 29.5t6 33t2 29.5t-2 33.5t-5 31t-10 33.5l-8 33q-2 8 -12.5 37t-12.5 37q-16 49 -24.5 84t-9.5 83t19.5 92t63.5 85q45 43 117 65.5t118 25.5t122 3q14 0 25 -10t11 -24.5t-11 -25 t-25 -10.5q-72 0 -117 -4t-100.5 -21.5t-90.5 -51.5q-39 -37 -52 -83t-6 -85t28 -101q2 -8 12 -39l14 -41q4 -12 12.5 -41.5t10.5 -45t5 -43t0 -48t-10 -46t-18 -48.5q-57 -115 -184 -190q125 -12 170 -95q37 -63 10 -215l-26 -125q-18 -86 -27 -133q-25 -143 0 -215 q27 -80 133 -90q76 -6 126 11.5t114 66.5q12 8 26.5 6t23.5 -13t7 -25.5t-12 -24.5q-74 -57 -136.5 -78t-152.5 -13q-154 12 -197 138q-31 88 -4 250q8 45 27.5 133t26.5 125q23 127 0 166q-35 59 -154 61q-25 0 -92 -4q-23 -2 -35 0q-29 0 -41 14q-16 14 -10 37z" />
<glyph unicode="|" horiz-adv-x="167" d="M129 4q8 123 6 342q-2 281 0 344q8 498 8 742q0 14 11.5 24t26 10t25.5 -10t11 -24q0 -246 -12 -742q0 -66 2 -344q2 -219 -8 -346q0 -16 -11.5 -25.5t-27 -8.5t-24.5 12.5t-7 25.5z" />
<glyph unicode="}" horiz-adv-x="684" d="M-53 1380.5q2 14.5 12 24.5q74 57 136.5 77.5t152.5 12.5q154 -12 196 -137q31 -88 2 -252q-6 -45 -25.5 -133t-25.5 -125q-23 -127 0 -166q35 -61 156 -61q25 0 92 4q25 2 37 2q29 -2 41 -17q14 -12 12 -28.5t-14 -28.5q-8 -6 -21 -8q-6 -2 -39 -10q-63 -14 -102 -35 q-53 -27 -100 -73t-74 -99q-8 -14 -13 -29.5t-6.5 -33t-3.5 -30t2.5 -34t6.5 -30.5t9 -33.5t9 -33t12 -38.5l13 -35q18 -49 25 -85t8 -83t-19 -91t-64 -85q-45 -43 -116.5 -65.5t-117.5 -25t-122 -2.5q-14 0 -24.5 10.5t-10.5 25t10.5 24.5t24.5 10q72 0 117 4t100.5 21.5 t89.5 50.5q39 37 52.5 83t6.5 85t-28 100l-12 37l-15 43q-4 12 -12 42t-10 46.5t-5 44t0 47t10 45t17 47.5q59 117 185 191q-123 14 -168 94q-37 63 -10 215l26 125q18 88 27 133q25 145 0 217q-29 80 -133 90q-76 6 -126 -11t-114 -66q-12 -8 -26.5 -6.5t-23.5 13t-7 26z " />
<glyph unicode="~" horiz-adv-x="1103" d="M6 396.5q-6 13.5 0 27.5q18 55 32.5 84t45.5 64.5t78 60.5q121 68 262 0q45 -20 130 -76.5t93 -60.5q119 -72 203 -58q115 20 235 203q8 12 23.5 15t28 -5t15.5 -23.5t-5 -27.5q-139 -207 -285 -231q-111 -20 -252 65l-96 64q-78 51 -119 69q-111 51 -200 4 q-49 -29 -72 -63.5t-51 -108.5q-4 -14 -17.5 -20t-28 -1t-20.5 18.5z" />
<glyph unicode="&#xa1;" horiz-adv-x="280" d="M231 -340q0 63 13 186q10 119 12 179q2 43 0 276.5t-2 276.5q0 14 10 25t24.5 11t25 -11t10.5 -25q0 -43 3 -277.5t-1 -275.5q0 -63 -13 -187q-10 -119 -12 -178q0 -16 -10 -26.5t-25.5 -9.5t-26 11.5t-8.5 24.5zM238 942q0 14 11 25.5t25.5 11.5t25.5 -11.5t11 -25.5 t-11 -25.5t-25.5 -11.5t-25.5 11.5t-11 25.5z" />
<glyph unicode="&#xa2;" horiz-adv-x="854" d="M135 496q4 221 107 378q53 82 126.5 126t161.5 30q43 -6 80 -26l129 284q6 12 19.5 17.5t26 -1t17.5 -19.5t-1 -25l-133 -297q72 -70 108 -199q4 -14 -3 -27.5t-21.5 -17.5t-27.5 3t-17 21q-27 94 -72 148q-150 -344 -281 -682l-20 -51q102 -70 270 -11q51 16 121 82 q20 18 59 58.5t58 56.5q12 10 26.5 9t24.5 -12t9 -25.5t-11 -24.5q-18 -16 -57 -55l-60 -60q-82 -76 -145 -98q-195 -66 -324 12q-66 -160 -88 -254q-2 -14 -14.5 -21.5t-26.5 -4t-21.5 15.5t-2.5 27q25 100 98 282l-6 6q-115 123 -109 355zM207 496q-4 -183 74 -287l8 24 q135 348 293 705q-29 16 -64 23q-125 20 -215 -125q-92 -143 -96 -340z" />
<glyph unicode="&#xa3;" horiz-adv-x="974" d="M-44 662.5q-1 15.5 8 26.5t24 11q129 12 288 15l-55 76l-51 71q-27 39 -44 74t-28.5 79t-5.5 92t29 99q41 92 139 148.5t217 71t227.5 -16.5t172.5 -109q43 -55 53 -153q4 -25 6 -78l6 -68q2 -16 -6 -27t-23.5 -13.5t-27 6t-13.5 22.5q-4 27 -8 76q-2 51 -4 74 q-10 78 -41 116q-47 59 -138 86t-194.5 13.5t-185.5 -60.5t-115 -116q-25 -53 -23.5 -102.5t18 -87.5t48.5 -85q12 -18 41 -55l49 -70q23 -33 39 -63q78 0 304 -6q16 0 26 -10.5t9 -26t-11 -25.5t-24 -8q-205 4 -273 4q6 -20 10 -41q35 -176 -88 -352q41 -6 77 -18.5t85 -40 t64 -33.5q109 -53 222 -43t206 84q12 8 26.5 7t23.5 -13.5t8 -26.5t-13 -25q-111 -86 -245 -98t-261 49l-62 33q-39 20 -58 29.5t-50 17.5t-66 8q-2 -2 -14 -4q-47 -53 -102 -94q-27 -18 -43 -31q-10 -6 -17 -8q-6 -4 -10 -4q-16 -4 -31 6q-31 20 -39 47q-8 29 8 58 q20 33 82 57q49 20 113 35l2 2q145 174 113 346q-6 27 -17 53q-178 0 -317 -12q-16 -2 -27.5 7t-12.5 24.5z" />
<glyph unicode="&#xa4;" horiz-adv-x="1290" d="M51 689q-4 93 16.5 187.5t64.5 178.5t119 157.5t173 126.5q53 27 126 41.5t121 17.5t126 3q16 0 26 -12q102 -8 193 -60q20 8 26 -10q2 -4 2 -8q121 -78 197 -220.5t92 -304.5q14 -127 -8 -247.5t-78.5 -226t-161.5 -181.5q-104 -74 -245 -96q-145 -25 -271 4 q-129 29 -224 96.5t-161.5 162.5t-101.5 208q-27 90 -31 183zM127 641q196 -39 395 -39q-8 115 -39 209q-72 236 -245 270q-2 0 -5 2q-137 -195 -106 -442zM133 598q6 -37 19 -72q35 -117 108.5 -213t179.5 -151q70 141 80 241q8 78 4 158q-197 0 -391 37zM260 1118 q186 -47 262 -295q31 -100 41 -221q92 2 180 12q-23 147 -57 304q-16 68 -57 212q-39 133 -49 185q-70 -12 -123 -41q-117 -59 -197 -156zM477 143q158 -70 350 -39q217 37 336 211q-145 100 -221 291q-74 -16 -151 -28q31 -211 40 -431q0 -20 -20 -20t-20 20 q-10 215 -41 426q-90 -10 -185 -12q4 -82 -4 -162q-10 -109 -84 -256zM618 1321q16 -66 50 -178q47 -166 59 -217q34 -150 57 -308q74 10 144 27q-86 244 -31 479q23 92 33 117q10 23 22 39q-106 49 -227 37q-18 -2 -29 10q-43 -2 -78 -6zM938 1116q-53 -228 29 -461 q168 45 295 125q-16 158 -88 286t-185 196q-12 -14 -21.5 -37t-29.5 -109zM981 616q72 -174 205 -266q94 166 80 385q-125 -76 -285 -119z" />
<glyph unicode="&#xa5;" horiz-adv-x="933" d="M23 1361.5q4 14.5 16 23t26.5 4t22.5 -16.5q49 -82 197 -309q119 -182 161 -260h97l6 10q2 6 6 13.5t6 10.5t2 5q129 229 352 575q8 14 22.5 17.5t28 -5t16.5 -22.5t-5 -27q-223 -348 -352 -575l-2 -2h227q14 0 24.5 -11.5t10.5 -25.5t-10.5 -25.5t-24.5 -11.5 q-53 0 -153.5 1t-110.5 1l-4 -10q-23 -35 -39 -59q-10 -14 -21 -23q-8 -6 -14 -10q2 -39 6 -78q61 0 181 -1t177 -1q14 0 25.5 -10.5t11.5 -24.5t-11 -24.5t-26 -10.5h-176h-178q10 -201 10 -448q0 -14 -11 -24.5t-25.5 -10.5t-25.5 10t-11 25q0 250 -9 448q-170 -2 -301 -6 q-14 -2 -25 8.5t-12.5 24.5t9 25.5t24.5 11.5q131 6 301 8l-8 106q-4 8 -8 19q-2 10 -4 18l-4 13q0 4 -2 8l-10 16q-158 -2 -283 -6q-14 -2 -25.5 8t-12.5 24.5t9 26t25 11.5q111 6 246 8l-140 221q-150 227 -198 311q-8 12 -4 26.5zM485 731q2 -4 2 -10q4 -2 7 -4l10 14 h-10h-9z" />
<glyph unicode="&#xa6;" horiz-adv-x="1595" d="M115 301q0 2 2 2q37 8 137 33l84 22q-55 131 -55 347q0 135 18 292q12 90 27 142q8 31 20 47q14 25 35 20q6 0 14 -6q6 -4 13 -12q10 -12 26 -35q25 -35 66 -104l90 -158q82 61 211 65q145 4 248 -61q4 -2 49 -43q16 -14 26 -21q6 -4 11 -6q2 2 4 9q8 12 20 38l51 127 q35 86 54 125q14 29 26 43q6 8 13 15q10 6 20 4q8 0 14 -8l4 -9l11 -26q10 -29 22 -72q25 -84 31 -121q2 -10 15.5 -70.5t15.5 -76.5l12 -70q10 -53 11 -78.5t2 -68.5t-3 -78t-12 -70q45 8 84 17q2 0 2 -2t-2 -2q-39 -8 -86 -17q-14 -55 -41 -104l100 -23q82 -18 135 -24 q2 0 2 -2t-2 -2q-49 6 -135 24l-102 23q-14 -29 -33 -54q-10 -16 -24 -32l16 -7q139 -47 278 -106q2 0 2 -2t-2 -2q-141 59 -278 106l-19 9q-78 -86 -204.5 -131.5t-268.5 -45.5q-260 0 -411 127q-106 -53 -234 -131q-2 0 -3 1t-1 3q129 76 234 129q-43 37 -72 82 q-63 -23 -117 -51q-2 2 0 4q51 29 115 51q-25 37 -41 78l-84 -20q-102 -27 -139 -35q-2 0 -2 2zM311 705q0 -207 58 -340q16 4 32 6q147 29 248 8v4q0 6 6.5 6t6.5 -6q0 -4 -3 -6q16 -4 31 -8q2 0 2 -2t-2 -2q-111 37 -287 2q-16 -2 -32 -7q16 -35 35 -67l6 -8 q154 47 336 47q2 0 2 -2t-2 -2q-180 0 -334 -45q29 -43 71 -76q53 27 99 45q-16 25 -23 49q-2 6 4 8t8 -4q6 -25 21 -49q18 8 37 14q74 27 110 21q2 0 2 -2t-2 -2q-37 6 -110 -21q-16 -6 -35 -14q55 -80 149 -94q59 -10 97 18q43 33 43 109q0 4 4 6q2 4 6 4q6 0 6 -6 q0 -51 25 -78q20 -20 59 -25q63 -4 160 41q4 2 7 -3t-3 -9q-98 -45 -164 -41q-45 4 -70 29q-14 16 -22 43q-8 -51 -43 -78q-41 -33 -107 -23q-45 8 -88 35t-69 68q-45 -18 -97 -45q143 -111 381 -111q133 0 250 41t191 115q-61 20 -109 33q-78 20 -112 18q-2 0 -2.5 2t2.5 2 q35 2 114 -18q47 -12 109 -33q18 18 33 37l26 43l-6 2q-172 35 -274 18q-2 0 -2 2t2 2q102 16 274 -18l8 -2q25 45 39 94q-47 -8 -162 -24q-104 -16 -166 -27q4 -2 5 -6q0 -6 -6.5 -6t-6.5 6q0 4 2 4h-4q-2 0 -2 2t2 2q61 10 176 27.5t162 25.5q8 29 13.5 61.5t6.5 59.5 t-2.5 65.5t-4.5 60t-9 67.5l-12 63q-2 16 -13.5 67.5t-13.5 63.5q-8 37 -32 121q-12 45 -21 70l-6 18l-2 -2q-10 -12 -23 -37q-18 -39 -53 -125l-51 -127q-14 -29 -23 -43q-6 -10 -10 -14q-8 -8 -18 -8q-12 0 -31 12l-29 22q-43 39 -45 41q-37 23 -84 37q12 -78 21 -96 q2 -6 -4 -8t-9 4q-6 14 -22 102q-35 10 -74 15q-2 -27 8 -64q16 -55 19 -69q0 -6 -6 -6.5t-6 6.5q-2 10 -17 65q-12 41 -10 68q-23 2 -45 2q-121 -4 -195 -60q6 -12 -4 -20q-10 -6 -20 0q-10 -8 -19 2q-12 10 0 20l2 2q-14 23 -49 83.5t-45 80.5l-63 103l-25 30l-8 9l-6 -7 q-8 -12 -17 -39q-14 -49 -24 -137q-20 -156 -21 -288zM471 612q-2 6 3 9.5t9 -0.5q35 -59 109 -84q0 4 -2 8q-4 18 8 51q12 35 43 70q-4 0 -6 4q-53 -8 -107 -43q-6 -4 -9 1t1 7q150 102 314 -2q4 -4 0.5 -9.5t-9.5 -2.5q-78 51 -155 51q51 -14 53 -49t-39 -72 q-20 -16 -43 -25q115 -12 180 62q4 4 8.5 0t-0.5 -8q-70 -78 -187.5 -67t-170.5 99zM602 547q2 -12 12 -12q25 -6 62 26q37 31 35 62q-2 29 -56 41q0 -2 -2 -2q-31 -37 -43 -70q-10 -31 -8 -45zM694 274.5q0 6.5 6.5 6.5t6.5 -6.5t-6.5 -6.5t-6.5 6.5zM760 338q0 6 6 6t6 -6 t-6 -6t-6 6zM772 907q0 6 5 7t7 -3q4 -20 17 -59q14 -39 18 -59q2 -6 -4 -8.5t-8 3.5q-4 20 -19 60q-12 39 -16 59zM784 420q-4 4 0 8q0 2 2 2q-2 0 -2 2q0 6 4 8q31 6 132 0q29 -2 36 -12q10 -10 2 -29q-2 -10 -16 -32.5t-18 -34.5q-8 -16 -11 -23q-12 -14 -28 -10 q-10 4 -27 20q-12 14 -29 37q-6 10 -17 25.5t-17.5 25t-10.5 13.5zM793 428l47 -63q18 -25 28 -37q12 -14 20.5 -16.5t14.5 5.5q2 4 8 19q6 12 21 37q12 23 16 30q4 12 0 17q-6 6 -28 8q-98 4 -127 0zM932 582q0 6 6 6t6 -6q0 -29 31 -52q29 -18 76 -30l24 -4l-8 8 q-23 37 6 139q-53 -14 -86 -51q-4 -4 -8 0t0 8q47 53 132 63.5t144 -26.5q4 -4 1 -9t-9 -3q-72 45 -164 22q2 -4 2 -8q-29 -96 -8 -127q6 -10 18.5 -10t26.5 10q35 23 37 59q2 39 -49 58q-6 2 -4 8t8 4q61 -20 57 -72q-4 -41 -41 -67q-8 -6 -16 -10q61 -2 94 12q27 12 78 65 q4 4 8 0t0 -8q-51 -55 -82 -69q-59 -27 -163 -3q-51 10 -82 31q-35 27 -35 62zM1087 289q0 6 6.5 6t6.5 -6t-6.5 -6t-6.5 6zM1210 379q0 6 6.5 6t6.5 -6t-6.5 -6t-6.5 6z" />
<glyph unicode="&#xa7;" horiz-adv-x="923" d="M59.5 711q59.5 131 194.5 178l-2 2q-139 78 -133 235q2 106 70.5 178t170.5 99q90 29 193.5 13.5t175.5 -70.5q35 -29 63.5 -72t42 -73t31.5 -81q6 -14 0 -27.5t-20.5 -18.5t-27.5 1.5t-17 20.5q-29 74 -52.5 117.5t-64.5 74.5q-55 45 -140 57.5t-165 -10.5 q-84 -25 -135 -79t-56 -134q-2 -59 21.5 -99t79.5 -71q43 -25 93 -46t118.5 -45.5t105.5 -41.5q205 -84 299 -207q49 -66 61.5 -131t-6 -118.5t-61.5 -102.5q-94 -102 -254 -139q94 -92 113 -191q33 -162 -58 -235q-74 -63 -213 -45q-117 16 -236.5 82.5t-170.5 148.5 q-8 12 -4 26.5t16 23t26.5 4t22.5 -16.5q41 -66 146.5 -124t210.5 -73q106 -14 157 29q55 45 33 168q-18 92 -133 188q-45 37 -246 170q-162 104 -219 183q-90 121 -30.5 252zM125 682q-43 -94 22 -180q51 -66 201 -166q188 -125 227 -154q76 6 150 41t121 86q109 119 2 258 q-82 109 -268 187l-113 45l-129 49q-7 -10 -19 -14q-76 -20 -120.5 -53t-73.5 -99z" />
<glyph unicode="&#xa8;" horiz-adv-x="1595" d="M115 301q0 2 2 2q37 8 137 33l84 22q-55 131 -55 347q0 135 18 292q12 90 27 142q8 31 20 47q14 25 35 20q6 0 14 -6q6 -4 13 -12q10 -12 26 -35q25 -35 66 -104l90 -158q82 61 211 65q145 4 248 -61q4 -2 49 -43q16 -14 26 -21q6 -4 11 -6q2 2 4 9q8 12 20 38l51 127 q35 86 54 125q14 29 26 43q6 8 13 15q10 6 20 4q8 0 14 -8l4 -9l11 -26q10 -29 22 -72q25 -84 31 -121q2 -10 15.5 -70.5t15.5 -76.5l12 -70q10 -53 11 -78.5t2 -68.5t-3 -78t-12 -70q45 8 84 17q2 0 2 -2t-2 -2q-39 -8 -86 -17q-14 -55 -41 -104l100 -23q82 -18 135 -24 q2 0 2 -2t-2 -2q-49 6 -135 24l-102 23q-14 -29 -33 -54q-10 -16 -24 -32l16 -7q139 -47 278 -106q2 0 2 -2t-2 -2q-141 59 -278 106l-19 9q-78 -86 -204.5 -131.5t-268.5 -45.5q-260 0 -411 127q-106 -53 -234 -131q-2 0 -3 1t-1 3q129 76 234 129q-43 37 -72 82 q-63 -23 -117 -51q-2 2 0 4q51 29 115 51q-25 37 -41 78l-84 -20q-102 -27 -139 -35q-2 0 -2 2zM311 705q0 -207 58 -340q16 4 32 6q147 29 248 8v4q0 6 6.5 6t6.5 -6q0 -4 -3 -6q16 -4 31 -8q2 0 2 -2t-2 -2q-111 37 -287 2q-16 -2 -32 -7q16 -35 35 -67l6 -8 q154 47 336 47q2 0 2 -2t-2 -2q-180 0 -334 -45q29 -43 71 -76q53 27 99 45q-16 25 -23 49q-2 6 4 8t8 -4q6 -25 21 -49q18 8 37 14q74 27 110 21q2 0 2 -2t-2 -2q-37 6 -110 -21q-16 -6 -35 -14q55 -80 149 -94q59 -10 97 18q43 33 43 109q0 4 4 6q2 4 6 4q6 0 6 -6 q0 -51 25 -78q20 -20 59 -25q63 -4 160 41q4 2 7 -3t-3 -9q-98 -45 -164 -41q-45 4 -70 29q-14 16 -22 43q-8 -51 -43 -78q-41 -33 -107 -23q-45 8 -88 35t-69 68q-45 -18 -97 -45q143 -111 381 -111q133 0 250 41t191 115q-61 20 -109 33q-78 20 -112 18q-2 0 -2.5 2t2.5 2 q35 2 114 -18q47 -12 109 -33q18 18 33 37l26 43l-6 2q-172 35 -274 18q-2 0 -2 2t2 2q102 16 274 -18l8 -2q25 45 39 94q-47 -8 -162 -24q-104 -16 -166 -27q4 -2 5 -6q0 -6 -6.5 -6t-6.5 6q0 4 2 4h-4q-2 0 -2 2t2 2q61 10 176 27.5t162 25.5q8 29 13.5 61.5t6.5 59.5 t-2.5 65.5t-4.5 60t-9 67.5l-12 63q-2 16 -13.5 67.5t-13.5 63.5q-8 37 -32 121q-12 45 -21 70l-6 18l-2 -2q-10 -12 -23 -37q-18 -39 -53 -125l-51 -127q-14 -29 -23 -43q-6 -10 -10 -14q-8 -8 -18 -8q-12 0 -31 12l-29 22q-43 39 -45 41q-37 23 -84 37q12 -78 21 -96 q2 -6 -4 -8t-9 4q-6 14 -22 102q-35 10 -74 15q-2 -27 8 -64q16 -55 19 -69q0 -6 -6 -6.5t-6 6.5q-2 10 -17 65q-12 41 -10 68q-23 2 -45 2q-121 -4 -195 -60q6 -12 -4 -20q-10 -6 -20 0q-10 -8 -19 2q-12 10 0 20l2 2q-14 23 -49 83.5t-45 80.5l-63 103l-25 30l-8 9l-6 -7 q-8 -12 -17 -39q-14 -49 -24 -137q-20 -156 -21 -288zM471 612q-2 6 3 9.5t9 -0.5q35 -59 109 -84q0 4 -2 8q-4 18 8 51q12 35 43 70q-4 0 -6 4q-53 -8 -107 -43q-6 -4 -9 1t1 7q150 102 314 -2q4 -4 0.5 -9.5t-9.5 -2.5q-78 51 -155 51q51 -14 53 -49t-39 -72 q-20 -16 -43 -25q115 -12 180 62q4 4 8.5 0t-0.5 -8q-70 -78 -187.5 -67t-170.5 99zM602 547q2 -12 12 -12q25 -6 62 26q37 31 35 62q-2 29 -56 41q0 -2 -2 -2q-31 -37 -43 -70q-10 -31 -8 -45zM694 274.5q0 6.5 6.5 6.5t6.5 -6.5t-6.5 -6.5t-6.5 6.5zM760 338q0 6 6 6t6 -6 t-6 -6t-6 6zM772 907q0 6 5 7t7 -3q4 -20 17 -59q14 -39 18 -59q2 -6 -4 -8.5t-8 3.5q-4 20 -19 60q-12 39 -16 59zM784 420q-4 4 0 8q0 2 2 2q-2 0 -2 2q0 6 4 8q31 6 132 0q29 -2 36 -12q10 -10 2 -29q-2 -10 -16 -32.5t-18 -34.5q-8 -16 -11 -23q-12 -14 -28 -10 q-10 4 -27 20q-12 14 -29 37q-6 10 -17 25.5t-17.5 25t-10.5 13.5zM793 428l47 -63q18 -25 28 -37q12 -14 20.5 -16.5t14.5 5.5q2 4 8 19q6 12 21 37q12 23 16 30q4 12 0 17q-6 6 -28 8q-98 4 -127 0zM932 582q0 6 6 6t6 -6q0 -29 31 -52q29 -18 76 -30l24 -4l-8 8 q-23 37 6 139q-53 -14 -86 -51q-4 -4 -8 0t0 8q47 53 132 63.5t144 -26.5q4 -4 1 -9t-9 -3q-72 45 -164 22q2 -4 2 -8q-29 -96 -8 -127q6 -10 18.5 -10t26.5 10q35 23 37 59q2 39 -49 58q-6 2 -4 8t8 4q61 -20 57 -72q-4 -41 -41 -67q-8 -6 -16 -10q61 -2 94 12q27 12 78 65 q4 4 8 0t0 -8q-51 -55 -82 -69q-59 -27 -163 -3q-51 10 -82 31q-35 27 -35 62zM1087 289q0 6 6.5 6t6.5 -6t-6.5 -6t-6.5 6zM1210 379q0 6 6.5 6t6.5 -6t-6.5 -6t-6.5 6z" />
<glyph unicode="&#xa9;" horiz-adv-x="1290" d="M51 689q-4 93 16.5 187.5t64.5 178.5t119 157.5t173 126.5q53 27 126 41.5t121 17.5t126 3q16 0 26 -12q143 -12 257 -103.5t175.5 -220.5t77.5 -279q14 -127 -8 -247.5t-78.5 -226t-161.5 -181.5q-104 -74 -245 -96q-145 -25 -271 4q-129 29 -224 96.5t-161.5 162.5 t-101.5 208q-27 90 -31 183zM122 735.5q-5 -108.5 30 -209.5q63 -215 243 -339t432 -83q160 27 267.5 131.5t146.5 245t23 297.5q-18 156 -86 282t-187 198.5t-266 58.5q-19 -2 -29 10q-152 -6 -239 -53q-111 -57 -187.5 -145.5t-109.5 -186.5t-38 -206.5zM483 489 q-37 170 33 390q31 104 83 181t120 99q162 55 301 -241q6 -12 1 -26.5t-18.5 -21t-28 -1t-20.5 19.5q-111 238 -213 203q-45 -14 -86 -76q-43 -61 -71 -158q-63 -205 -31 -352q16 -70 50 -95.5t93 -2.5q8 4 28.5 22.5t49.5 46.5l76 82q10 10 25.5 11t25.5 -9t11 -25.5 t-9 -25.5l-78 -84q-31 -31 -53 -49q-31 -29 -51 -35q-94 -37 -160 12q-57 41 -78 135z" />
<glyph unicode="&#xaa;" horiz-adv-x="546" d="M88 1020q35 106 119 209q88 109 180 153q82 41 148 17q6 4 14 6q25 2 37 -19q2 -6 4 -14v-12q12 -21 -2 -39q0 -8 -2 -10q-6 -76 -31 -144v-57q2 -180 29 -248q6 -14 0 -27.5t-19.5 -19.5t-27 0t-19.5 19q-25 61 -33 200q-53 -80 -108 -139q-70 -72 -131 -94 q-86 -33 -143.5 30.5t-14.5 188.5zM156 881q25 -29 65 -13q45 16 103 78q49 51 93 114.5t58 98.5q4 11 8 23q4 94 19 151q-35 8 -82 -14q-78 -39 -156 -135q-78 -94 -108 -187q-29 -86 0 -116z" />
<glyph unicode="&#xab;" horiz-adv-x="1011" d="M86 557q2 8 8 18q4 2 8 7q6 6 17 14l51 35l149 96l244 154q14 8 28.5 5t23 -16.5t5 -28t-15.5 -22.5l-248 -153l-147 -95l-41 -28q10 -10 25 -23q35 -33 114 -98l84 -68l80 -63q33 -27 43 -37t11 -24.5t-9 -25.5t-24.5 -12.5t-26.5 9.5q-10 10 -41 35l-80 63l-82 68 l-117 100q-27 23 -39 39q-8 8 -14 16q-10 18 -6 35zM526 571q2 8 9 19q4 2 8 6q6 6 16 14l51 35l150 96l244 154q14 8 28.5 5t22.5 -16.5t4.5 -27.5t-15.5 -22l-247 -154l-148 -94l-41 -29q10 -10 25 -22q35 -33 115 -99l83 -67l82 -66q31 -25 41.5 -35t11.5 -24.5 t-9.5 -25.5t-24.5 -12t-27 9q-10 10 -41 35l-78 63l-84 68l-116 100q-27 23 -39 39q-8 8 -15 17q-10 18 -6 34z" />
<glyph unicode="&#xac;" horiz-adv-x="1650" d="M70 737q2 23 26 29q84 147 226 315q92 111 163 172q94 78 160 84q70 6 109 -30q8 -8 16 -21l21 -29q10 -16 12 -22q10 -12 7 -26.5t-15.5 -23.5t-26.5 -6t-23 15q-10 12 -18 26.5t-13 21.5t-12 13q-14 14 -49 13q-45 -4 -121 -70q-72 -61 -155 -162q-125 -150 -211 -291 q160 0 497.5 3.5t514.5 5.5q12 0 20 -9q53 102 127 228q57 94 102 162q25 37 43 57q23 29 39 37q47 27 88 14q35 -10 60 -49q29 -41 41 -121q2 -14 -6.5 -26.5t-22.5 -14.5t-26.5 6.5t-14.5 22.5q-12 66 -31 94q-10 16 -20 21q-12 2 -35 -9q-2 -2 -16 -20q-16 -18 -39 -53 q-43 -61 -101 -158q-119 -201 -151 -277q-9 -16 -27 -20v-4q0 -182 -88 -286.5t-213 -98.5q-102 6 -182 87t-107 220q-12 -123 -53 -192q-76 -135 -250 -107q-178 29 -233 182q-39 113 -12 297zM133 674q-12 -129 17 -209q41 -115 178 -137q125 -18 176 71q39 70 49 228 q0 14 11 24.5t26 7.5q10 0 18 -4v21q-305 -2 -475 -2zM680 678q0 -170 69.5 -261t159.5 -95.5t160 75.5t70 238q-1 29 28 35q-2 6 0 10q-172 0 -487 -2z" />
<glyph unicode="&#xad;" horiz-adv-x="491" d="M24 541.5q1 15.5 11 25.5t24 8q72 -2 223.5 0.5t221.5 -0.5q16 0 26.5 -10t9.5 -25.5t-11.5 -25.5t-24.5 -8q-72 0 -223.5 -2t-221.5 2q-16 0 -26 10t-9 25.5z" />
<glyph unicode="&#xae;" horiz-adv-x="1290" d="M51 689q-4 93 16.5 187.5t64.5 178.5t119 157.5t173 126.5q53 27 126 41.5t121 17.5t126 3q16 0 26 -12q143 -12 257 -103.5t175.5 -220.5t77.5 -279q14 -127 -8 -247.5t-78.5 -226t-161.5 -181.5q-104 -74 -245 -96q-145 -25 -271 4q-129 29 -224 96.5t-161.5 162.5 t-101.5 208q-27 90 -31 183zM122 735.5q-5 -108.5 30 -209.5q63 -215 243 -339t432 -83q160 27 267.5 131.5t146.5 245t23 297.5q-18 156 -86 282t-187 198.5t-266 58.5q-19 -2 -29 10q-152 -6 -239 -53q-111 -57 -187.5 -145.5t-109.5 -186.5t-38 -206.5zM483 332 q33 360 17 672q0 2 -2 2q-8 12 -6 26.5t12 24.5h2q6 10 20 14q102 66 219 59q76 -4 121 -45q55 -47 56 -133q0 -94 -86 -176q-68 -63 -158 -96q-21 -6 -60 -4l11 -12q29 -35 86 -101q119 -133 149 -162q10 -10 11.5 -25.5t-9 -25.5t-26 -11t-25.5 9q-37 37 -156 168l-86 102 q-6 -158 -20 -294q0 -14 -11.5 -23.5t-26.5 -8.5t-24.5 12t-7.5 28zM571 1016q6 -121 4 -273q12 4 31 5q45 0 47 2q78 25 133 79q61 59 62 123q0 53 -29 80q-27 23 -78 27q-86 4 -170 -43z" />
<glyph unicode="&#xaf;" horiz-adv-x="542" d="M0 1304.5q0 14.5 10.5 24.5t24.5 10h520q14 0 24.5 -10t10.5 -24.5t-10.5 -24.5t-24.5 -10h-520q-14 0 -24.5 10t-10.5 24.5z" />
<glyph unicode="&#xb0;" horiz-adv-x="579" d="M86 1063q0 80 45 156.5t127 119.5v2q0 14 10.5 24.5t24.5 10.5q150 0 237.5 -74.5t96.5 -183.5q8 -106 -65 -189t-204 -91q-129 -10 -204 59q-70 61 -68 166zM158 1061q-2 -70 45 -113q51 -47 151 -41q102 8 154.5 68.5t46.5 136.5q-4 70 -57.5 123t-149.5 68 q-4 -5 -10 -7q-84 -27 -132 -94t-48 -141z" />
<glyph unicode="&#xb1;" horiz-adv-x="1017" d="M67 68.5q1 15.5 11 25.5t24 8q139 -2 290 -3t348.5 1t289.5 2q14 0 24.5 -11t10.5 -25.5t-10.5 -25.5t-24.5 -11q-92 0 -289.5 -1t-349 0t-289.5 5q-16 0 -26 10t-9 25.5zM74 622.5q0 14.5 11 25.5t26 11q145 0 424 5q-10 205 2 333q0 16 11 25.5t26.5 8.5t24.5 -12.5 t7 -25.5q-10 -127 0 -327q240 6 381 6q14 0 25.5 -11.5t11.5 -25.5t-11.5 -25.5t-25.5 -11.5q-141 0 -377 -4q10 -178 8 -264q0 -14 -10 -24.5t-24.5 -10.5t-24.5 10t-10 25q0 86 -10 262q-283 -6 -428 -6q-14 0 -25.5 11t-11.5 25.5z" />
<glyph unicode="&#xb2;" horiz-adv-x="528" d="M53 629q-2 18 10 30q8 8 23 15q2 0 7 2t7 2l2 2q61 45 121 137q90 133 129 234q57 150 10 231q-14 25 -51 21q-47 -6 -98 -43q-55 -39 -79.5 -88.5t-10.5 -86.5q6 -14 0 -27.5t-19.5 -19.5t-27 0.5t-19.5 18.5q-29 70 13 147q33 63 100.5 112.5t132.5 55.5q84 10 121 -53 q66 -111 -4 -295q-43 -106 -135 -248q-45 -66 -90 -110l100 4q215 6 250 2q14 0 23.5 -11.5t8 -27t-12.5 -24.5t-27 -7q-29 2 -240 -4l-141 -4q-31 -2 -47 -2h-15q-4 0 -6 1t-4 1q-8 2 -16 6q-14 12 -15 29z" />
<glyph unicode="&#xb3;" horiz-adv-x="542" d="M-2 714.5q-2 14.5 6 27t22.5 14.5t26.5 -6q150 -104 283 -103q147 4 178 174q12 76 0 137q-16 68 -63 80q-61 16 -144 -34l-2 -3l-6 -6l-10 -10q-12 -12 -23 -16q-20 -10 -39 4q-14 12 -14 33q0 18 16 38q8 12 27 29l74 70q47 45 71 78q27 35 29 55q0 39 -22 43 q-31 8 -90.5 -16.5t-108.5 -67.5q-47 -41 -55 -70q-4 -14 -16.5 -22t-27 -4t-22.5 16.5t-4 26.5q12 51 78 106q59 51 129 80q80 35 135 21q78 -18 74 -113q0 -45 -41 -98q-23 -31 -58 -66q35 4 66 -4q90 -23 117 -133q16 -76 0 -166q-20 -117 -86 -174t-160 -60 q-158 -4 -326 117q-12 8 -14 22.5z" />
<glyph unicode="&#xb4;" horiz-adv-x="366" d="M110 1213.5q-1 15.5 9 25.5l123 135l110 121q10 10 25.5 11t26 -9t11.5 -25.5t-9 -25.5l-111 -123q-78 -88 -123 -133q-10 -10 -25.5 -11t-25.5 9t-11 25.5z" />
<glyph unicode="&#xb5;" horiz-adv-x="1710" d="M63 707q-4 14 4.5 26t22.5 17q6 2 12 0q1 14 11 24q2 4 18 19.5t20.5 20.5t20.5 20l21 20q6 6 20 19.5t22.5 19.5t21.5 17.5t24.5 18.5t23.5 16t25 16q164 94 360.5 139t386.5 26q205 -20 373 -115.5t268 -271.5q8 -14 4 -28.5t-17 -21.5t-27.5 -3t-20.5 16 q-90 160 -242.5 247t-343.5 106q-180 16 -365.5 -26t-338.5 -130q-70 -41 -197 -168q74 -20 218 -37.5t171 -21.5q78 -14 154 -23q33 61 51 103q8 18 26.5 10t10.5 -27q-16 -39 -45 -92q96 -12 188 -16q27 59 39 108q6 20 25.5 15t15.5 -23q-12 -49 -37 -104q86 -4 168 -2 q31 59 43 108q6 20 25.5 15t15.5 -23q-12 -47 -37 -100q240 6 461 57q20 4 25 -16q2 -6 0 -11l4 6q6 12 20 16.5t27.5 -2.5t17.5 -21.5t-4 -28.5q-80 -141 -254 -267q-176 -125 -340 -164q-137 -33 -309 -12t-334 86q-172 72 -294 184.5t-159 258.5zM139 698 q39 -115 145.5 -210t259 -157.5t314.5 -81t285 10.5q150 37 311 154q153 108 227 227q-4 -2 -10 -4q-233 -53 -489 -57l-47 -80q-12 -18 -30 -7t-7 27l35 60q-80 0 -164 4l-45 -88q-10 -18 -28.5 -8t-8.5 28l37 70q-92 6 -189 18q-31 -55 -43 -80q-10 -18 -27.5 -9t-9.5 26 q12 27 37 69q-70 8 -141 21q-43 8 -126 16t-152.5 19.5t-129.5 29.5q-2 2 -4 2z" />
<glyph unicode="&#xb6;" horiz-adv-x="1650" d="M70 737q2 23 26 29q84 147 226 315q92 111 163 172q94 78 160 84q70 6 109 -30q8 -8 16 -21l21 -29q10 -16 12 -22q10 -12 7 -26.5t-15.5 -23.5t-26.5 -6t-23 15q-10 12 -18 26.5t-13 21.5t-12 13q-14 14 -49 13q-45 -4 -121 -70q-72 -61 -155 -162q-125 -150 -211 -291 q160 0 497.5 3.5t514.5 5.5q12 0 20 -9q53 102 127 228q57 94 102 162q25 37 43 57q23 29 39 37q47 27 88 14q35 -10 60 -49q29 -41 41 -121q2 -14 -6.5 -26.5t-22.5 -14.5t-26.5 6.5t-14.5 22.5q-12 66 -31 94q-10 16 -20 21q-12 2 -35 -9q-2 -2 -16 -20q-16 -18 -39 -53 q-43 -61 -101 -158q-119 -201 -151 -277q-9 -16 -27 -20v-4q0 -182 -88 -286.5t-213 -98.5q-102 6 -182 87t-107 220q-12 -123 -53 -192q-76 -135 -250 -107q-178 29 -233 182q-39 113 -12 297zM133 674q-12 -129 17 -209q41 -115 178 -137q125 -18 176 71q39 70 49 228 q0 14 11 24.5t26 7.5q10 0 18 -4v21q-305 -2 -475 -2zM680 678q0 -170 69.5 -261t159.5 -95.5t160 75.5t70 238q-1 29 28 35q-2 6 0 10q-172 0 -487 -2z" />
<glyph unicode="&#xb7;" horiz-adv-x="301" d="M125 668q-12 68 22 106q33 35 91 29q51 -4 84 -39q43 -41 22 -96q-18 -53 -96 -97q-25 -12 -43 4q-4 0 -10 3q-57 16 -70 90zM195 680q6 -27 18 -33l8 4q37 23 39 23q4 2 8 2q6 8 8 16q4 12 -6 23q-14 14 -39 16q-23 4 -30 -6q-12 -12 -6 -45z" />
<glyph unicode="&#xb8;" horiz-adv-x="448" d="M53 -259q6 13 19.5 19.5t27.5 -0.5q115 -47 191 -51q104 -6 129 72q10 35 -4 63q-16 29 -90 17q-27 -4 -60 -15l-20 -8q-4 0 -6 -2h-7q-4 -2 -10 0q-18 0 -26 19q-8 14 -2 30q0 4 3 7.5t7 9.5q6 8 18 20l53 60q78 80 99 96q12 8 26.5 7t23.5 -13.5t8 -26.5t-13 -25 q-16 -12 -90 -88q111 14 147 -55q31 -53 12 -117q-41 -131 -202 -122q-88 6 -215 57q-12 6 -18.5 19.5t-0.5 26.5z" />
<glyph unicode="&#xb9;" horiz-adv-x="485" d="M103.5 1167.5q3.5 14.5 15.5 22.5q63 43 164 162l2 4l2 6q2 6 4 8q6 14 16 21q12 10 27 8q16 0 26 -13q23 -23 13 -59q-2 -10 -6 -16q0 -4 -2 -6q-6 -72 -10.5 -162t-4.5 -146.5t1 -172t1 -152.5q80 10 144 14q14 2 25 -7t12.5 -24.5t-8 -27t-25.5 -11.5q-59 -6 -342 -47 q-16 -2 -27.5 6.5t-13.5 23.5t6 26.5t22 13.5l136 20q0 45 -1 142.5t-1 156t2 141.5t8 150q-70 -76 -129 -116q-12 -10 -26.5 -7.5t-24 15t-6 27z" />
<glyph unicode="&#xba;" horiz-adv-x="471" d="M131 1024q-8 145 31 270q45 147 137 199q27 14 45 -6q80 -31 127 -133q43 -94 47 -224q6 -125 -29 -227q-39 -117 -116 -158q-53 -29 -103 -12q-45 14 -77 62q-18 29 -31 67q-4 2 -6 6q-19 18 -9 41q-12 53 -16 115zM203 1028q2 -27 6 -51q39 45 104.5 137t94.5 129 q8 10 20 12q-8 37 -22 68q-35 78 -89 96q-55 -43 -86 -145q-35 -115 -28 -246zM227 891q12 -33 27 -55q18 -29 37.5 -36t48.5 7q53 29 82 119q31 90 24 202q0 23 -2 43l-63 -86l-82 -110q-35 -45 -72 -84z" />
<glyph unicode="&#xbb;" horiz-adv-x="915" d="M7 211.5q1 14.5 13 24.5l43 32l91 68l98 74l137 108q25 18 39 31q-10 10 -27 22q-47 35 -122 88l-91 60l-86 57l-45 31q-10 8 -12 23.5t6 26.5t23.5 13t27.5 -6q10 -8 43 -30l84 -56q53 -35 90 -61q82 -55 125 -88q27 -20 41 -35q10 -8 15 -16q12 -16 10 -33 q0 -10 -6 -19q-2 -4 -6 -8l-17 -16q-16 -14 -47 -39l-139 -111l-98 -73l-88 -66q-35 -27 -43 -35q-12 -8 -26.5 -7t-24 13.5t-8.5 27zM437.5 237.5q3.5 14.5 15.5 22.5l241 162l146 100l39 29q-8 8 -25 22l-117 95l-86 65l-82 64q-33 25 -44 35t-12 24t9 25.5t24.5 12.5 t26 -9.5t41.5 -32.5l82 -64l84 -65q80 -61 121 -96q27 -23 39 -37q10 -8 14 -17q12 -16 9 -32q-2 -10 -9 -19l-8 -8q-4 -6 -14 -12l-49 -37l-148 -103l-241 -159q-12 -10 -26.5 -7t-24 15t-6 26.5z" />
<glyph unicode="&#xbc;" horiz-adv-x="1466" d="M103.5 1167.5q3.5 14.5 15.5 22.5q63 43 164 162l2 4l2 6q2 6 4 8q6 14 16 21q12 10 27 8q16 0 26 -13q23 -23 13 -59q-2 -10 -6 -16q0 -4 -2 -6q-6 -72 -10.5 -162t-4.5 -146.5t1 -172t1 -152.5q80 10 144 14q14 2 25 -7t12.5 -24.5t-8 -27t-25.5 -11.5q-59 -6 -342 -47 q-16 -2 -27.5 6.5t-13.5 23.5t6 26.5t22 13.5l136 20q0 45 -1 142.5t-1 156t2 141.5t8 150q-70 -76 -129 -116q-12 -10 -26.5 -7.5t-24 15t-6 27zM424 -16.5q-4 14.5 4 28.5l326 590q256 469 411 713q8 14 22.5 17t28 -5t16.5 -22.5t-5 -26.5q-156 -246 -412 -713l-326 -590 q-6 -12 -20 -16t-27.5 3t-17.5 21.5zM907 254q4 10 17 20q8 8 12 11h2l37 57q223 360 323 487q13 15 29 13l2 2q14 0 24.5 -11.5t10.5 -25.5v-483q61 4 115 4q14 0 25.5 -10.5t11.5 -24.5t-11.5 -24.5t-25.5 -10.5q-53 0 -115 -6v-256q0 -14 -10.5 -25.5t-24.5 -11.5 t-24.5 11.5t-10.5 25.5v248q-47 -6 -146 -21.5t-155 -21.5q-2 0 -3 -1t-5 -3t-12 -4q-39 -12 -62 14q-16 23 -4 47zM1018 274q37 6 130 20.5t146 20.5v390q-88 -121 -258 -400z" />
<glyph unicode="&#xbd;" horiz-adv-x="1433" d="M93.5 1212.5q3.5 14.5 15.5 22.5q63 43 163 162l2 4l2 6q2 6 5 8q6 14 16 21q12 10 27 8q16 0 26 -12q23 -23 12 -60q-2 -10 -6 -16q0 -4 -2 -6q-6 -76 -10 -167t-4 -156.5t2 -175.5t2 -163q0 -10 -6 -18q90 12 158 16q14 2 25 -7t12.5 -24.5t-8 -27t-25.5 -11.5 q-59 -6 -342 -47q-16 -2 -27.5 6.5t-13.5 23.5t6 26.5t22 13.5l140 23q-14 10 -15 26q0 39 -1 182.5t0 238.5t10 185q-70 -76 -129 -116q-12 -10 -26.5 -7t-24 15t-6 26.5zM279 8.5q-4 14.5 4 26.5l350 614q250 446 399 682q8 14 22.5 17.5t28 -5t16.5 -22.5t-5 -27 q-150 -236 -400 -682l-350 -614q-8 -12 -22.5 -16.5t-26.5 4t-16 23zM958 74q-2 18 11 30q8 8 22 15q2 0 7.5 2t7.5 2l2 2q61 45 120 137q90 133 129 234q57 150 11 231q-14 25 -51 21q-47 -6 -99 -43q-55 -39 -79.5 -88.5t-10.5 -86.5q6 -14 0 -27.5t-19.5 -19.5t-26.5 0.5 t-19 18.5q-29 70 12 147q33 63 100.5 112.5t132.5 55.5q84 10 121 -53q66 -111 -4 -295q-43 -106 -135 -248q-45 -66 -90 -110l100 4q215 6 250 2q14 0 23.5 -11.5t8.5 -27t-12.5 -24.5t-27.5 -7q-29 2 -240 -4l-141 -4q-31 -2 -47 -2h-15q-4 0 -6 1t-4 1q-8 2 -16 6 q-14 12 -15 29z" />
<glyph unicode="&#xbe;" horiz-adv-x="1476" d="M-2 714.5q-2 14.5 6 27t22.5 14.5t26.5 -6q150 -104 283 -103q147 4 178 174q12 76 0 137q-16 68 -63 80q-61 16 -144 -34l-2 -3l-6 -6l-10 -10q-12 -12 -23 -16q-20 -10 -39 4q-14 12 -14 33q0 18 16 38q8 12 27 29l74 70q47 45 71 78q27 35 29 55q0 39 -22 43 q-31 8 -90.5 -16.5t-108.5 -67.5q-47 -41 -55 -70q-4 -14 -16.5 -22t-27 -4t-22.5 16.5t-4 26.5q12 51 78 106q59 51 129 80q80 35 135 21q78 -18 74 -113q0 -45 -41 -98q-23 -31 -58 -66q35 4 66 -4q90 -23 117 -133q16 -76 0 -166q-20 -117 -86 -174t-160 -60 q-158 -4 -326 117q-12 8 -14 22.5zM439 20.5q-3 14.5 5 26.5l371 604q264 438 418 672q8 12 23.5 15t27.5 -5t15.5 -23.5t-5.5 -27.5q-168 -252 -420 -670l-368 -602q-8 -14 -22.5 -17t-28 5t-16.5 22.5zM936 248q4 10 16 20q8 6 13 11h2q66 92 179.5 270t164.5 252 q10 16 30 14h2q14 0 25.5 -10t11.5 -25q0 -80 -2 -234.5t-2 -228.5q63 4 113 7q14 0 24.5 -11.5t10.5 -26t-10.5 -25.5t-24.5 -11q-47 0 -113 -6q0 -131 4 -240q2 -14 -8 -25.5t-24.5 -12.5t-25.5 9.5t-11 24.5q-6 106 -6 238q-61 -8 -140 -21l-133 -22q-29 -6 -43 -7 q-10 -2 -14 -2h-10q-14 2 -25 15q-16 23 -4 47zM1047 268l106 19q86 14 152 22q0 70 1 204t1 155l-82 -127l-95 -148z" />
<glyph unicode="&#xbf;" horiz-adv-x="937" d="M244 -166q-100 166 102 356q25 25 160 136q90 74 119 112q53 76 55 127q0 33 -27 51q-29 20 -91 20.5t-132 -24.5q-14 -4 -27.5 2.5t-18.5 20.5t1 27.5t21 19.5q82 27 156.5 27t129.5 -33q61 -39 60 -115q-2 -72 -70 -164q-31 -45 -131 -127q-125 -102 -156 -131 q-51 -49 -78.5 -91t-34 -88t22.5 -89q45 -74 142.5 -99.5t201.5 5.5q111 31 184.5 106.5t81.5 177.5q0 14 11.5 24.5t26 9.5t24.5 -12.5t8 -25.5q-8 -131 -98 -222t-217 -126q-82 -20 -161 -18t-151.5 39t-113.5 104zM524 983q0 14 10.5 25.5t24.5 11.5t24.5 -11.5 t10.5 -25.5t-10.5 -25.5t-24.5 -11.5t-24.5 11.5t-10.5 25.5z" />
<glyph unicode="&#xc0;" d="M137 37q27 162 94 362q-14 2 -22 11.5t-8 24t10 25.5t25 11h20q29 86 99.5 270.5t101.5 278.5l61 176q2 4 2 9t1 15.5t1 20.5q6 59 53 66q14 2 27 -7l8 -8q2 -4 2 -8q2 -2 2 -6l4 -8q2 -10 5 -29l18 -86l27 -154l73 -446l207 57q14 4 27.5 -3t17.5 -21.5t-3 -27.5 t-21 -17l-215 -60q39 -236 75 -403q4 -14 -4 -27.5t-22.5 -16.5t-27.5 5t-15 22q-37 168 -76 404q-221 -58 -377 -66q-72 -211 -100 -376q-2 -14 -14.5 -22.5t-26.5 -6.5t-22.5 14.5t-6.5 26.5zM332 475q141 10 340 62q-70 424 -74 452l-27 139l-45 -133l-100 -274z M398 1551.5q5 13.5 19.5 19.5t26.5 0q178 -68 242 -86q14 -4 21.5 -17.5t3.5 -28t-17.5 -21.5t-27.5 -3q-68 18 -246 90q-14 4 -20.5 18.5t-1.5 28z" />
<glyph unicode="&#xc1;" d="M137 37q27 162 94 362q-14 2 -22 11.5t-8 24t10 25.5t25 11h20q29 86 99.5 270.5t101.5 278.5l61 176q2 4 2 9t1 15.5t1 20.5q6 59 53 66q14 2 27 -7l8 -8q2 -4 2 -8q2 -2 2 -6l4 -8q2 -10 5 -29l18 -86l27 -154l73 -446l207 57q14 4 27.5 -3t17.5 -21.5t-3 -27.5 t-21 -17l-215 -60q39 -236 75 -403q4 -14 -4 -27.5t-22.5 -16.5t-27.5 5t-15 22q-37 168 -76 404q-221 -58 -377 -66q-72 -211 -100 -376q-2 -14 -14.5 -22.5t-26.5 -6.5t-22.5 14.5t-6.5 26.5zM332 475q141 10 340 62q-70 424 -74 452l-27 139l-45 -133l-100 -274z M427 1425.5q-5 14.5 1.5 27.5t20.5 17q45 18 129 48l106 36q14 6 27.5 0t18.5 -20t-1 -27.5t-20 -17.5q-25 -10 -107 -39l-129 -45q-14 -6 -27.5 0t-18.5 20.5z" />
<glyph unicode="&#xc2;" d="M137 37q27 162 94 362q-14 2 -22 11.5t-8 24t10 25.5t25 11h20q29 86 99.5 270.5t101.5 278.5l61 176q2 4 2 9t1 15.5t1 20.5q6 59 53 66q14 2 27 -7l8 -8q2 -4 2 -8q2 -2 2 -6l4 -8q2 -10 5 -29l18 -86l27 -154l73 -446l207 57q14 4 27.5 -3t17.5 -21.5t-3 -27.5 t-21 -17l-215 -60q39 -236 75 -403q4 -14 -4 -27.5t-22.5 -16.5t-27.5 5t-15 22q-37 168 -76 404q-221 -58 -377 -66q-72 -211 -100 -376q-2 -14 -14.5 -22.5t-26.5 -6.5t-22.5 14.5t-6.5 26.5zM332 475q141 10 340 62q-70 424 -74 452l-27 139l-45 -133l-100 -274z M364 1355.5q-3 14.5 7 26.5q80 119 116 156q53 59 105 53q43 -4 102 -61l127 -127q10 -10 11.5 -25.5t-9 -26t-26 -11.5t-25.5 10l-129 129q-41 39 -59 41q-14 2 -45 -31t-111 -148q-8 -12 -22.5 -15t-26.5 6t-15 23.5z" />
<glyph unicode="&#xc3;" d="M137 37q27 162 94 362q-14 2 -22 11.5t-8 24t10 25.5t25 11h20q29 86 99.5 270.5t101.5 278.5l61 176q2 4 2 9t1 15.5t1 20.5q6 59 53 66q14 2 27 -7l8 -8q2 -4 2 -8q2 -2 2 -6l4 -8q2 -10 5 -29l18 -86l27 -154l73 -446l207 57q14 4 27.5 -3t17.5 -21.5t-3 -27.5 t-21 -17l-215 -60q39 -236 75 -403q4 -14 -4 -27.5t-22.5 -16.5t-27.5 5t-15 22q-37 168 -76 404q-221 -58 -377 -66q-72 -211 -100 -376q-2 -14 -14.5 -22.5t-26.5 -6.5t-22.5 14.5t-6.5 26.5zM332 475q141 10 340 62q-70 424 -74 452l-27 139l-45 -133l-100 -274z M381 1411q31 119 90 145q49 20 123 -22q14 -8 51 -35q31 -20 49 -31q45 -27 74 -16q4 2 12 14q27 33 27 35q10 10 25.5 11t25.5 -9t11 -25.5t-9 -25.5q-4 -4 -6 -7t-7 -9t-9 -13q-20 -29 -45 -37q-57 -23 -134 19l-55 35l-47 33q-41 25 -57 18q-29 -12 -49 -96 q-4 -14 -16.5 -22.5t-27 -4.5t-22.5 16.5t-4 26.5z" />
<glyph unicode="&#xc4;" d="M137 37q27 162 94 362q-14 2 -22 11.5t-8 24t10 25.5t25 11h20q29 86 99.5 270.5t101.5 278.5l61 176q2 4 2 9t1 15.5t1 20.5q6 59 53 66q14 2 27 -7l8 -8q2 -4 2 -8q2 -2 2 -6l4 -8q2 -10 5 -29l18 -86l27 -154l73 -446l207 57q14 4 27.5 -3t17.5 -21.5t-3 -27.5 t-21 -17l-215 -60q39 -236 75 -403q4 -14 -4 -27.5t-22.5 -16.5t-27.5 5t-15 22q-37 168 -76 404q-221 -58 -377 -66q-72 -211 -100 -376q-2 -14 -14.5 -22.5t-26.5 -6.5t-22.5 14.5t-6.5 26.5zM332 475q141 10 340 62q-70 424 -74 452l-27 139l-45 -133l-100 -274z M418 1470.5q0 14.5 10 25.5t24.5 11t24.5 -11t10 -25.5t-10 -25.5t-24.5 -11t-24.5 11t-10 25.5zM631 1478.5q0 14.5 10 26t24.5 11.5t24.5 -11.5t10 -26t-10 -25.5t-24.5 -11t-24.5 11t-10 25.5z" />
<glyph unicode="&#xc5;" d="M137 37q27 162 94 362q-14 2 -22 11.5t-8 24t10 25.5t25 11h20q29 86 99.5 270.5t101.5 278.5l61 176q2 0 4 41q-20 0 -37 10q-57 31 -76.5 87.5t-2 107.5t65.5 87t110 30q68 -6 118 -43q51 -39 66 -93q14 -59 -22.5 -109t-118.5 -77l16 -82l27 -154l73 -446l207 57 q14 4 27.5 -3t17.5 -21.5t-3 -27.5t-21 -17l-215 -60q39 -236 75 -403q4 -14 -4 -27.5t-22.5 -16.5t-27.5 5t-15 22q-37 168 -76 404q-221 -58 -377 -66q-72 -211 -100 -376q-2 -14 -14.5 -22.5t-26.5 -6.5t-22.5 14.5t-6.5 26.5zM332 475q141 10 340 62q-70 424 -74 452 l-27 139l-45 -133l-100 -274zM472 1377q5 -46 46 -68q4 -2 19 0q43 6 45 6q12 0 22 -10q109 39 92 100q-6 29 -39.5 53.5t-83.5 30.5q-47 4 -76.5 -31t-24.5 -81z" />
<glyph unicode="&#xc6;" horiz-adv-x="1560" d="M76 92q14 74 45 150.5t78 175.5q45 94 63 135q27 66 115 285q90 227 147 348q6 10 15 14q-2 6 -2 12q0 14 11 25.5t25 11.5q147 0 443.5 4t443.5 4q14 0 24.5 -11t10.5 -25.5t-10 -25.5t-25 -11q-111 0 -575 -4q-8 -66 -9.5 -94.5t5 -96t6.5 -106.5q2 -74 0 -166 q10 10 26 8q80 -2 229.5 3t203.5 5q14 0 24 -11t10 -25.5t-10 -26t-24 -11.5q-53 0 -204 -4t-233 0q-14 0 -22 11q-8 -299 -9 -305.5t-2.5 -28t-3.5 -54t-4 -59.5q-2 -53 -2 -84v-26v-7q8 -10 28.5 -16t55.5 -4q6 0 12.5 1t12.5 1t10 2h39q487 0 551 -2q14 0 24.5 -10.5 t9.5 -25.5t-11.5 -25.5t-26.5 -8.5q-59 2 -547 2q-12 0 -33 -2l-35 -4q-49 -2 -82 6q-55 16 -73 58q-4 10 -6 28v35q0 33 2 86q2 27 4 58.5t3 52t3 26.5v37h-10q-45 0 -248 9q-152 6 -244 2q-14 -2 -26 8q-4 -8 -17.5 -37t-18.5 -38t-17.5 -35.5t-16.5 -39.5l-16 -37 q-8 -23 -13 -36l-12 -37q-8 -20 -13 -40l-10 -40q-2 -14 -14 -22.5t-27.5 -5.5t-23.5 15.5t-4 28.5zM307 479q94 4 244 -2q193 -10 246 -10h12q8 340 8 416l-6 92q-6 66 -6 100.5t6 102.5h-219q2 -12 -2 -25q-57 -119 -147.5 -345t-114.5 -284z" />
<glyph unicode="&#xc7;" horiz-adv-x="897" d="M152 375q-8 125 24.5 266t95.5 274q66 135 146 228q84 94 174 121q106 33 194 -41q92 -74 156 -252q6 -14 0 -27.5t-20.5 -18.5t-27.5 1t-17 20q-59 160 -136 221q-59 49 -128.5 29t-143.5 -104t-133 -207q-57 -123 -88 -258t-25 -248q16 -248 203 -273q109 -14 203 21 q41 14 81 35.5t100 62.5t81 54q12 8 26.5 4t22.5 -16.5t4 -27t-16 -22.5l-76 -49q-63 -43 -108.5 -68.5t-90.5 -42.5q-25 -8 -49 -14q-2 -12 -12 -23q-16 -12 -90 -88q111 14 147 -55q31 -53 13 -117q-41 -131 -203 -122q-88 6 -215 57q-12 6 -18.5 19.5t-0.5 26.5 t19.5 19.5t27.5 -0.5q115 -47 191 -51q104 -6 129 72q10 35 -4 63q-16 29 -90 17q-27 -4 -60 -15l-20 -8q-4 0 -6 -2h-6q-4 -2 -11 0q-18 0 -26 19q-8 14 -2 30q0 4 3 7.5t7 9.5q6 8 18 20l54 60l49 49q-37 0 -80 6q-129 16 -193 108q-66 92 -73 230z" />
<glyph unicode="&#xc8;" horiz-adv-x="874" d="M47 158q-39 88 43 196q61 82 186 170l43 29q-143 8 -182 143q-31 113 27.5 241t165.5 218q111 96 223 107q133 10 217 -107q8 -12 6 -26.5t-14 -22.5t-26.5 -6t-22.5 14q-59 82 -154 76q-90 -8 -184 -88q-92 -80 -142.5 -189.5t-25.5 -195.5q25 -88 119 -92q74 -4 192 39 h2q104 49 162 57q6 2 10 2h8q8 0 17 -4q14 -8 18 -25q2 -14 -6 -26q-4 -8 -10 -13q-4 -2 -10 -4q-12 -6 -47 -18q-14 -4 -57.5 -17.5t-57.5 -19.5q-123 -57 -230 -131q-115 -82 -170 -154q-57 -76 -34 -125q20 -49 96 -73q72 -25 178 -23q98 0 192.5 18.5t143.5 45.5 q18 8 32.5 16t30 20.5t21.5 18.5l27 24l28 29q10 10 25.5 9t26 -11t9.5 -25.5t-12 -25.5q-8 -6 -28.5 -26.5t-28.5 -26.5t-25.5 -20.5t-34 -25t-38.5 -22.5q-57 -29 -160.5 -49.5t-206.5 -20.5q-121 -2 -203 27q-104 35 -139 113zM348.5 1503.5q-4.5 14.5 3.5 26.5t22.5 16 t26.5 -4q129 -80 232 -119q14 -4 20 -17t1 -27.5t-18 -20.5t-28 0q-109 39 -243 123q-12 8 -16.5 22.5z" />
<glyph unicode="&#xc9;" horiz-adv-x="874" d="M47 158q-39 88 43 196q61 82 186 170l43 29q-143 8 -182 143q-31 113 27.5 241t165.5 218q111 96 223 107q133 10 217 -107q8 -12 6 -26.5t-14 -22.5t-26.5 -6t-22.5 14q-59 82 -154 76q-90 -8 -184 -88q-92 -80 -142.5 -189.5t-25.5 -195.5q25 -88 119 -92q74 -4 192 39 h2q104 49 162 57q6 2 10 2h8q8 0 17 -4q14 -8 18 -25q2 -14 -6 -26q-4 -8 -10 -13q-4 -2 -10 -4q-12 -6 -47 -18q-14 -4 -57.5 -17.5t-57.5 -19.5q-123 -57 -230 -131q-115 -82 -170 -154q-57 -76 -34 -125q20 -49 96 -73q72 -25 178 -23q98 0 192.5 18.5t143.5 45.5 q18 8 32.5 16t30 20.5t21.5 18.5l27 24l28 29q10 10 25.5 9t26 -11t9.5 -25.5t-12 -25.5q-8 -6 -28.5 -26.5t-28.5 -26.5t-25.5 -20.5t-34 -25t-38.5 -22.5q-57 -29 -160.5 -49.5t-206.5 -20.5q-121 -2 -203 27q-104 35 -139 113zM332 1380.5q4 14.5 18 22.5q63 33 330 141 q14 6 27.5 0t19.5 -19.5t0 -26.5t-18 -19q-27 -10 -82 -33l-86 -35q-31 -12 -76 -32.5t-82 -41.5q-12 -6 -26.5 -2t-21.5 17.5t-3 28z" />
<glyph unicode="&#xca;" horiz-adv-x="874" d="M47 158q-39 88 43 196q61 82 186 170l43 29q-143 8 -182 143q-31 113 27.5 241t165.5 218q111 96 223 107q133 10 217 -107q8 -12 6 -26.5t-14 -22.5t-26.5 -6t-22.5 14q-59 82 -154 76q-90 -8 -184 -88q-92 -80 -142.5 -189.5t-25.5 -195.5q25 -88 119 -92q74 -4 192 39 h2q104 49 162 57q6 2 10 2h8q8 0 17 -4q14 -8 18 -25q2 -14 -6 -26q-4 -8 -10 -13q-4 -2 -10 -4q-12 -6 -47 -18q-14 -4 -57.5 -17.5t-57.5 -19.5q-123 -57 -230 -131q-115 -82 -170 -154q-57 -76 -34 -125q20 -49 96 -73q72 -25 178 -23q98 0 192.5 18.5t143.5 45.5 q18 8 32.5 16t30 20.5t21.5 18.5l27 24l28 29q10 10 25.5 9t26 -11t9.5 -25.5t-12 -25.5q-8 -6 -28.5 -26.5t-28.5 -26.5t-25.5 -20.5t-34 -25t-38.5 -22.5q-57 -29 -160.5 -49.5t-206.5 -20.5q-121 -2 -203 27q-104 35 -139 113zM331 1355.5q1 14.5 11 24.5q39 35 129 127 q53 53 86 62q39 8 98 -35q16 -10 62.5 -47t77.5 -60q12 -8 14 -23t-6 -26.5t-23.5 -13.5t-25.5 6l-78 60l-62 47q-33 23 -43 20q-12 -2 -49 -41l-131 -129q-12 -10 -26.5 -9t-24.5 12t-9 25.5z" />
<glyph unicode="&#xcb;" horiz-adv-x="874" d="M47 158q-39 88 43 196q61 82 186 170l43 29q-143 8 -182 143q-31 113 27.5 241t165.5 218q111 96 223 107q133 10 217 -107q8 -12 6 -26.5t-14 -22.5t-26.5 -6t-22.5 14q-59 82 -154 76q-90 -8 -184 -88q-92 -80 -142.5 -189.5t-25.5 -195.5q25 -88 119 -92q74 -4 192 39 h2q104 49 162 57q6 2 10 2h8q8 0 17 -4q14 -8 18 -25q2 -14 -6 -26q-4 -8 -10 -13q-4 -2 -10 -4q-12 -6 -47 -18q-14 -4 -57.5 -17.5t-57.5 -19.5q-123 -57 -230 -131q-115 -82 -170 -154q-57 -76 -34 -125q20 -49 96 -73q72 -25 178 -23q98 0 192.5 18.5t143.5 45.5 q18 8 32.5 16t30 20.5t21.5 18.5l27 24l28 29q10 10 25.5 9t26 -11t9.5 -25.5t-12 -25.5q-8 -6 -28.5 -26.5t-28.5 -26.5t-25.5 -20.5t-34 -25t-38.5 -22.5q-57 -29 -160.5 -49.5t-206.5 -20.5q-121 -2 -203 27q-104 35 -139 113zM365 1425.5q0 14.5 11 25.5t25.5 11 t25.5 -11t11 -25.5t-11 -25.5t-25.5 -11t-25.5 11t-11 25.5zM643 1433.5q0 14.5 10.5 25.5t24.5 11t24.5 -11t10.5 -25.5t-10.5 -25.5t-24.5 -11t-24.5 11t-10.5 25.5z" />
<glyph unicode="&#xcc;" horiz-adv-x="274" d="M50 1495q-3 14 6.5 26.5t23.5 15.5t26 -7l87 -60q72 -51 112 -75q12 -8 16.5 -22.5t-4 -27t-22.5 -16.5t-27 4q-41 25 -115.5 77t-87 61.5t-15.5 23.5zM128 243.5q-1 110.5 7 272.5l8 211q0 86 -2 243.5t-2 213.5q0 14 10.5 25.5t24.5 11.5t24.5 -11.5t10.5 -25.5 q0 -55 3 -213t1 -244q0 -57 -7 -216t-6 -265.5t13 -210.5q2 -14 -7 -25.5t-23.5 -13.5t-26 7t-13.5 24q-14 106 -15 216.5z" />
<glyph unicode="&#xcd;" horiz-adv-x="296" d="M58 1364q-5 14 1.5 27.5t20.5 17.5l217 84q14 6 27.5 0t18.5 -20.5t-1 -27.5t-20 -18l-218 -84q-14 -6 -27.5 0.5t-18.5 20.5zM128 243.5q-1 110.5 7 272.5l8 211q0 86 -2 243.5t-2 213.5q0 14 10.5 25.5t24.5 11.5t24.5 -11.5t10.5 -25.5q0 -55 3 -213t1 -244 q0 -57 -7 -216t-6 -265.5t13 -210.5q2 -14 -7 -25.5t-23.5 -13.5t-26 7t-13.5 24q-14 106 -15 216.5z" />
<glyph unicode="&#xce;" horiz-adv-x="380" d="M11.5 1341.5q-0.5 14.5 11.5 24.5l67 70l51 53q53 49 92 39q18 -6 39 -27q10 -8 33 -37q57 -68 113 -118q10 -10 11 -25.5t-9 -26t-25.5 -11.5t-25.5 9q-57 53 -119 125q-20 27 -29 35q-4 4 -6 4q-8 -4 -25 -18l-51 -54l-67 -67q-10 -12 -24.5 -12t-25 11t-11 25.5z M128 243.5q-1 110.5 7 272.5l8 211q0 86 -2 243.5t-2 213.5q0 14 10.5 25.5t24.5 11.5t24.5 -11.5t10.5 -25.5q0 -55 3 -213t1 -244q0 -57 -7 -216t-6 -265.5t13 -210.5q2 -14 -7 -25.5t-23.5 -13.5t-26 7t-13.5 24q-14 106 -15 216.5z" />
<glyph unicode="&#xcf;" horiz-adv-x="280" d="M53 1405q0 14 10.5 25.5t24.5 11.5t24.5 -11.5t10.5 -25.5t-10.5 -25.5t-24.5 -11.5t-24.5 11.5t-10.5 25.5zM128 243.5q-1 110.5 7 272.5l8 211q0 86 -2 243.5t-2 213.5q0 14 10.5 25.5t24.5 11.5t24.5 -11.5t10.5 -25.5q0 -55 3 -213t1 -244q0 -57 -7 -216t-6 -265.5 t13 -210.5q2 -14 -7 -25.5t-23.5 -13.5t-26 7t-13.5 24q-14 106 -15 216.5zM258 1390.5q0 14.5 10.5 24.5t24.5 10t24.5 -10t10.5 -24.5t-10.5 -24.5t-24.5 -10t-24.5 10t-10.5 24.5z" />
<glyph unicode="&#xd0;" horiz-adv-x="847" d="M12 628.5q0 14.5 10.5 25t24.5 10.5q125 0 139 2q2 76 0 243.5t0 255.5l-86 -24q-14 -4 -27.5 3t-17.5 21.5t3.5 27.5t21.5 17q6 2 51 15.5t70 19.5q10 8 24 6h4q176 43 297 -6q133 -53 224 -164q88 -111 122.5 -241.5t20.5 -268.5q-12 -139 -72.5 -256.5t-175.5 -201.5 t-266 -99q-88 -10 -156 -2q-10 -14 -28 -12q-27 0 -35 25q-59 14 -123 47q-12 8 -17.5 22.5t2 26.5t21.5 17t27 -1q47 -25 90 -39q2 84 12 243t14 234v19h-139q-14 0 -24.5 10t-10.5 24.5zM231 84q59 -8 140 0q197 20 314.5 159.5t135.5 336.5q20 193 -64.5 361.5 t-258.5 238.5q-94 39 -240 6q-2 -74 0 -260.5t0 -259.5q66 2 123 6q14 2 25.5 -7.5t12.5 -24.5t-8.5 -26.5t-25.5 -11.5q-57 -6 -127 -8q0 -10 -2 -23q-2 -72 -12.5 -235.5t-12.5 -251.5z" />
<glyph unicode="&#xd1;" horiz-adv-x="739" d="M143 8q-8 98 11 402q2 53 8 154.5t8 117.5q8 158 12 270q0 59 2 111q0 4 -4 12q0 2 -2 11.5t-4 15.5q-4 20 0 33q8 35 43 36q25 2 45 -18q12 -10 25 -33q18 -31 39 -84q14 -39 47 -141q145 -463 215 -633q16 -37 57 -121l4 -10q0 10 2 21v65q0 39 -1 54.5t1 25.5 q6 162 32 465t34 440q0 14 11 24.5t25.5 9.5t24.5 -12.5t8 -25.5q-6 -135 -31.5 -439t-33.5 -466q0 -2 1 -23.5t1 -52.5t-2 -65v-95q-2 -20 -2 -32q-2 -8 -3 -13.5t-3 -9.5q-6 -18 -27 -20q-18 -4 -33 10q-6 4 -12 10q-8 10 -18 29q-16 29 -43 80q-41 84 -58 122 q-78 188 -219 641q-33 106 -45 136l-4 12q0 -33 -2 -70q-2 -117 -12 -274q0 -16 -6.5 -117.5t-10.5 -154.5q-16 -299 -10 -394q2 -14 -8 -25.5t-24.5 -12.5t-26 9.5t-11.5 24.5zM207 1333q2 66 18 101q20 45 62 47q29 2 65 -17l56 -37q68 -43 100 -41q45 2 80 91 q4 14 18.5 20t27.5 1t19 -19.5t0 -26.5q-51 -133 -141 -137q-55 -2 -143 53q-41 27 -52 33q-18 10 -24 8l-2 -6q-10 -20 -15 -74q0 -14 -11 -24.5t-25.5 -9.5t-24.5 12.5t-8 25.5z" />
<glyph unicode="&#xd2;" horiz-adv-x="811" d="M140.5 767q13.5 132 49.5 220q29 74 109 164q45 51 86 74q55 33 98 10q109 2 199 -96q119 -135 161 -390t-22 -462q-76 -242 -268 -295q-51 -14 -119 12q-45 18 -92 51q-166 115 -201 445q-14 135 -0.5 267zM213 506q31 -297 170 -393q39 -27 78 -41q45 -18 71 -11 q156 43 220 248q59 190 20 428q-39 236 -143 355q-54 57 -109 67v-12q4 -14 -4 -26.5t-22.5 -16.5t-26.5 4t-16 22q-2 10 -2 27q-29 -8 -58 -24q-8 -4 -16 -5q-10 -12 -23 -24q-72 -82 -96 -141q-31 -82 -43 -205q-14 -119 0 -252zM296 1510.5q-3 15.5 5 27.5t23.5 15 t27.5 -5q98 -66 217 -123q12 -6 17.5 -20t-0.5 -27.5t-20.5 -18.5t-28.5 1q-121 59 -226 127q-12 8 -15 23.5z" />
<glyph unicode="&#xd3;" horiz-adv-x="811" d="M140.5 767q13.5 132 49.5 220q29 74 109 164q45 51 86 74q55 33 98 10q109 2 199 -96q119 -135 161 -390t-22 -462q-76 -242 -268 -295q-51 -14 -119 12q-45 18 -92 51q-166 115 -201 445q-14 135 -0.5 267zM213 506q31 -297 170 -393q39 -27 78 -41q45 -18 71 -11 q156 43 220 248q59 190 20 428q-39 236 -143 355q-54 57 -109 67v-12q4 -14 -4 -26.5t-22.5 -16.5t-26.5 4t-16 22q-2 10 -2 27q-29 -8 -58 -24q-8 -4 -16 -5q-10 -12 -23 -24q-72 -82 -96 -141q-31 -82 -43 -205q-14 -119 0 -252zM352.5 1378.5q4.5 14.5 18.5 20.5 q16 10 229 104q14 6 27.5 1t19.5 -19.5t1 -27.5t-19 -19l-72 -31l-84 -37q-37 -16 -70 -33q-12 -8 -26.5 -4t-21.5 17.5t-2.5 28z" />
<glyph unicode="&#xd4;" horiz-adv-x="811" d="M140.5 767q13.5 132 49.5 220q29 74 109 164q45 51 86 74q55 33 98 10q109 2 199 -96q119 -135 161 -390t-22 -462q-76 -242 -268 -295q-51 -14 -119 12q-45 18 -92 51q-166 115 -201 445q-14 135 -0.5 267zM211 1317q-4 14 4 26q63 106 100 150q49 55 101 53 q43 0 102 -47q12 -10 121 -108q10 -10 11 -24.5t-9 -26t-24.5 -12.5t-26.5 9q-106 98 -117 107q-39 31 -59 31q-18 2 -45 -31q-33 -37 -93 -137q-8 -12 -22 -16.5t-26.5 4t-16.5 22.5zM213 506q31 -297 170 -393q39 -27 78 -41q45 -18 71 -11q156 43 220 248q59 190 20 428 q-39 236 -143 355q-54 57 -109 67v-12q4 -14 -4 -26.5t-22.5 -16.5t-26.5 4t-16 22q-2 10 -2 27q-29 -8 -58 -24q-8 -4 -16 -5q-10 -12 -23 -24q-72 -82 -96 -141q-31 -82 -43 -205q-14 -119 0 -252z" />
<glyph unicode="&#xd5;" horiz-adv-x="811" d="M140.5 767q13.5 132 49.5 220q29 74 109 164q45 51 86 74q55 33 98 10q109 2 199 -96q119 -135 161 -390t-22 -462q-76 -242 -268 -295q-51 -14 -119 12q-45 18 -92 51q-166 115 -201 445q-14 135 -0.5 267zM213 506q31 -297 170 -393q39 -27 78 -41q45 -18 71 -11 q156 43 220 248q59 190 20 428q-39 236 -143 355q-54 57 -109 67v-12q4 -14 -4 -26.5t-22.5 -16.5t-26.5 4t-16 22q-2 10 -2 27q-29 -8 -58 -24q-8 -4 -16 -5q-10 -12 -23 -24q-72 -82 -96 -141q-31 -82 -43 -205q-14 -119 0 -252zM223 1362q39 139 115 151q47 8 131 -45 q68 -43 92 -43q35 2 68 82q4 14 18.5 20.5t27.5 1.5t19 -19.5t0 -26.5q-49 -127 -133 -129q-45 0 -129 53q-61 39 -82 35q-31 -4 -57 -101q-4 -14 -17.5 -21t-28 -3t-21.5 17.5t-3 27.5z" />
<glyph unicode="&#xd6;" horiz-adv-x="811" d="M140.5 767q13.5 132 49.5 220q29 74 109 164q45 51 86 74q55 33 98 10q109 2 199 -96q119 -135 161 -390t-22 -462q-76 -242 -268 -295q-51 -14 -119 12q-45 18 -92 51q-166 115 -201 445q-14 135 -0.5 267zM213 506q31 -297 170 -393q39 -27 78 -41q45 -18 71 -11 q156 43 220 248q59 190 20 428q-39 236 -145 355q-52 57 -107 67v-12q4 -14 -4 -26.5t-22.5 -16.5t-26.5 4t-16 22q-2 10 -2 27q-29 -8 -58 -24q-8 -4 -16 -5q-10 -12 -23 -24q-72 -82 -96 -141q-31 -82 -43 -205q-14 -119 0 -252zM311 1433.5q0 14.5 11.5 25.5t25.5 11 t25.5 -11t11.5 -25.5t-11.5 -25.5t-25.5 -11t-25.5 11t-11.5 25.5zM557 1419.5q0 14.5 10.5 24.5t24.5 10t24.5 -10t10.5 -24.5t-10.5 -25t-24.5 -10.5t-24.5 10.5t-10.5 25z" />
<glyph unicode="&#xd7;" horiz-adv-x="876" d="M185 200.5q1 14.5 12 24.5q125 111 305 287l-301 305q-10 10 -11.5 25.5t9 26t26 11.5t25.5 -10l303 -307l311 301q10 10 25.5 9t26 -11t9.5 -25.5t-12 -25.5l-309 -299l297 -301q12 -10 12 -24.5t-11 -25.5t-25.5 -11t-24.5 12l-299 301l-307 -291q-12 -10 -26.5 -9 t-25 12t-9.5 25.5z" />
<glyph unicode="&#xd8;" horiz-adv-x="1349" d="M44 48q-1 15 9 26l176 186q-90 119 -118 272q-31 156 -5 312q27 160 105 293t208 216t288 77q12 12 30 8q274 -49 443 -224l157 156q10 12 24.5 12t26 -11t11.5 -25.5t-13 -24.5l-159 -160q94 -119 132 -266t17 -295q-16 -135 -75.5 -252t-152.5 -202t-229.5 -120.5 t-291.5 -5.5q-215 43 -351 185l-170 -180q-10 -10 -25 -11.5t-25.5 9t-11.5 25.5zM176 553q27 -135 103 -242l849 854q-125 127 -317 183q-11 -4 -23 -2q-117 27 -223 -4t-183 -105t-132 -178q-53 -102 -74 -228q-25 -143 0 -278zM326 256q121 -127 313 -166q137 -27 258 4 t204 106.5t136 180t70 227.5q16 133 -16.5 264.5t-114.5 237.5z" />
<glyph unicode="&#xd9;" horiz-adv-x="745" d="M121 752.5q-2 158.5 5 262t17 183.5q0 14 12.5 23.5t27 8.5t23.5 -13.5t7 -26.5q-8 -78 -15.5 -180.5t-4.5 -255.5q2 -150 20 -279q33 -225 109 -328q82 -113 223 -69q90 27 135 155q39 117 41 310q2 68 -2 138.5t-10.5 143t-12.5 121.5l-16 115q-8 68 -9 82t8 25.5 t23.5 13.5t25.5 -7.5t13 -23.5q2 -12 11.5 -81t13.5 -118l12 -123q8 -74 12.5 -146.5t2.5 -139.5q-2 -205 -45 -332q-57 -164 -183 -203q-188 -57 -303 98q-86 117 -121 359q-18 129 -20 287.5zM221.5 1468.5q-4.5 14.5 2.5 27.5t21.5 17t26.5 -4q119 -63 232 -100 q12 -6 19 -19.5t2 -26.5t-18 -20.5t-28 -3.5q-119 41 -239 109q-14 6 -18.5 20.5z" />
<glyph unicode="&#xda;" horiz-adv-x="745" d="M121 752.5q-2 158.5 5 262t17 183.5q0 14 12.5 23.5t27 8.5t23.5 -13.5t7 -26.5q-8 -78 -15.5 -180.5t-4.5 -255.5q2 -150 20 -279q33 -225 109 -328q82 -113 223 -69q90 27 135 155q39 117 41 310q2 68 -2 138.5t-10.5 143t-12.5 121.5l-16 115q-8 68 -9 82t8 25.5 t23.5 13.5t25.5 -7.5t13 -23.5q2 -12 11.5 -81t13.5 -118l12 -123q8 -74 12.5 -146.5t2.5 -139.5q-2 -205 -45 -332q-57 -164 -183 -203q-188 -57 -303 98q-86 117 -121 359q-18 129 -20 287.5zM308 1329q-5 14 1.5 27.5t20.5 17.5q25 10 80 31l100 37q43 16 86 26 q14 4 26.5 -4t16.5 -22.5t-4 -26.5t-23 -16q-39 -10 -79.5 -24.5t-96 -36t-82.5 -29.5q-14 -6 -27.5 0t-18.5 20z" />
<glyph unicode="&#xdb;" horiz-adv-x="745" d="M121 752.5q-2 158.5 5 262t17 183.5q0 14 12.5 23.5t27 8.5t23.5 -13.5t7 -26.5q-8 -78 -15.5 -180.5t-4.5 -255.5q2 -150 20 -279q33 -225 109 -328q82 -113 223 -69q90 27 135 155q39 117 41 310q2 68 -2 138.5t-10.5 143t-12.5 121.5l-16 115q-8 68 -9 82t8 25.5 t23.5 13.5t25.5 -7.5t13 -23.5q2 -12 11.5 -81t13.5 -118l12 -123q8 -74 12.5 -146.5t2.5 -139.5q-2 -205 -45 -332q-57 -164 -183 -203q-188 -57 -303 98q-86 117 -121 359q-18 129 -20 287.5zM239 1321.5q-3 14.5 5 26.5l55 86l43 69q18 27 30.5 37t24.5 14q18 2 35 -8 q14 -8 27 -35q2 -4 18 -43q31 -70 72 -131q8 -12 5 -27.5t-15.5 -23.5t-27.5 -5t-24 15q-41 66 -75 144l-11 22q-10 -14 -43 -65l-53 -86q-8 -14 -22.5 -17.5t-27.5 5t-16 23z" />
<glyph unicode="&#xdc;" horiz-adv-x="745" d="M121 752.5q-2 158.5 5 262t17 183.5q0 14 12.5 23.5t27 8.5t23.5 -13.5t7 -26.5q-8 -78 -15.5 -180.5t-4.5 -255.5q2 -150 20 -279q33 -225 109 -328q82 -113 223 -69q90 27 135 155q39 117 41 310q2 68 -2 138.5t-10.5 143t-12.5 121.5l-16 115q-8 68 -9 82t8 25.5 t23.5 13.5t25.5 -7.5t13 -23.5q2 -12 11.5 -81t13.5 -118l12 -123q8 -74 12.5 -146.5t2.5 -139.5q-2 -205 -45 -332q-57 -164 -183 -203q-188 -57 -303 98q-86 117 -121 359q-18 129 -20 287.5zM287 1419.5q0 14.5 10 24.5t24.5 10t24.5 -10t10 -24.5t-10 -25t-24.5 -10.5 t-24.5 10.5t-10 25zM463 1433.5q0 14.5 10 25.5t24.5 11t24.5 -11t10 -25.5t-10 -25.5t-24.5 -11t-24.5 11t-10 25.5z" />
<glyph unicode="&#xdd;" horiz-adv-x="921" d="M56 1212.5q1 14.5 13.5 23.5t27 8t24.5 -13q63 -82 205 -322l88 -153l10 -21l45 68l166 246q225 338 268 409q8 12 22.5 16.5t27 -4t16.5 -22.5t-4 -27q-45 -74 -271 -413l-166 -246l-55 -80l-14 -20v-642q0 -14 -11.5 -25t-25.5 -11t-25.5 11t-11.5 25v637l-6 15l-29 47 l-88 153q-137 236 -199 314q-8 12 -7 26.5zM264.5 1419.5q4.5 14.5 16.5 20.5q49 29 145 73q96 43 139 68q14 8 28.5 4t22 -17.5t3 -27.5t-16.5 -20q-47 -27 -145 -72q-96 -43 -140 -70q-14 -8 -28.5 -4t-21.5 17.5t-2.5 28z" />
<glyph unicode="&#xde;" horiz-adv-x="970" d="M166 713q2 70 5 198.5t4 233t1 196.5q0 14 11.5 24.5t25.5 10.5t25.5 -10t11.5 -25q0 -102 -4 -239q92 29 241 24q147 -6 271 -47q154 -51 217 -143q80 -115 16 -268q-33 -78 -139 -129q-84 -41 -213 -64q-164 -29 -399 -29q-2 0 -4 3q2 -199 12 -363q2 -14 -8.5 -25.5 t-24.5 -12.5t-25.5 9.5t-11.5 24.5q-18 250 -12 631zM236 518q2 2 4 2q229 0 387 27q121 20 194 55q82 39 105 94q47 117 -8 199q-53 74 -183 117q-117 39 -261 43t-220 -27h-8q-8 -315 -8 -317q-2 -107 -2 -193z" />
<glyph unicode="&#xdf;" horiz-adv-x="991" d="M170 606q6 84 20.5 188.5t49 197.5t88.5 179q70 113 172 189q150 109 262 26q119 -86 82 -260q-23 -117 -103 -229q41 6 66 0q47 -12 93 -49t73 -80q61 -96 65 -234.5t-45 -248.5q-53 -125 -151 -181q-111 -63 -250 -12q-18 6 -74 41l-63 41q-12 8 -15.5 23.5t5 28 t23.5 15.5t28 -5l61 -41q49 -33 59 -37q106 -39 191 8q76 43 121 147q43 100 39 219t-56 199q-20 31 -55 59.5t-65 36.5q-12 2 -43 -2q-35 -6 -70 -20l-6 -2q-20 -27 -37 -45q-23 -25 -37 -33q-20 -14 -41 -4q-25 10 -25 39q0 41 46 74q20 14 49 28l51 68q74 104 96 211 q27 129 -53 188q-72 51 -180 -29q-90 -66 -152 -165q-49 -82 -82 -169t-46 -186.5t-19 -179.5t3 -198.5t17 -186.5l25 -197l6 -57q2 -14 -7.5 -25.5t-23.5 -13.5t-25.5 7.5t-13.5 23.5q-4 20 -8 63q-16 127 -24.5 196t-17.5 189.5t-3 204.5z" />
<glyph unicode="&#xe0;" horiz-adv-x="802" d="M55 354q45 145 174 310q125 158 263 251q160 109 268 84q18 -4 35 -16q2 0 6 2q27 4 39 -20l4 -13q2 -10 0 -24q16 -22 -2 -45q-2 -25 -4 -27q-8 -104 -39 -201q-2 -18 -4 -39q-10 -227 -2 -348q2 -20 4 -34.5t7 -31t7 -23.5t11 -30.5t14 -35.5q6 -12 -0.5 -26.5 t-19.5 -20t-27.5 1t-18.5 20.5q-4 8 -14.5 33.5t-13.5 34t-8 28t-8 38t-3 42.5q-6 72 -4 211q-174 -332 -418 -414q-47 -14 -100 -14q-72 2 -109 41q-92 90 -37 266zM123 334q-41 -135 18 -197q18 -16 62 -18q41 0 78 12q133 43 239 172q106 131 178 295q17 39 29 72 q4 88 12 151q8 61 19 99q-10 8 -15 10q-78 18 -211 -74q-131 -88 -247 -238q-119 -152 -162 -284zM370 1462.5q3 14.5 15 23.5t26.5 6t22.5 -15q111 -158 199 -267q10 -10 9 -25.5t-12.5 -24.5t-26.5 -8t-23 13q-92 111 -203 271q-10 12 -7 26.5z" />
<glyph unicode="&#xe1;" horiz-adv-x="802" d="M55 354q45 145 174 310q125 158 263 251q160 109 268 84q18 -4 35 -16q2 0 6 2q27 4 39 -20l4 -13q2 -10 0 -24q16 -22 -2 -45q-2 -25 -4 -27q-8 -104 -39 -201q-2 -18 -4 -39q-10 -227 -2 -348q2 -20 4 -34.5t7 -31t7 -23.5t11 -30.5t14 -35.5q6 -12 -0.5 -26.5 t-19.5 -20t-27.5 1t-18.5 20.5q-4 8 -14.5 33.5t-13.5 34t-8 28t-8 38t-3 42.5q-6 72 -4 211q-174 -332 -418 -414q-47 -14 -100 -14q-72 2 -109 41q-92 90 -37 266zM123 334q-41 -135 18 -197q18 -16 62 -18q41 0 78 12q133 43 239 172q106 131 178 295q17 39 29 72 q4 88 12 151q8 61 19 99q-10 8 -15 10q-78 18 -211 -74q-131 -88 -247 -238q-119 -152 -162 -284zM431 1162.5q-1 15.5 9 25.5q94 98 295 256q12 8 26.5 7t24 -13.5t8.5 -26.5t-14 -25q-197 -154 -286 -247q-10 -10 -25.5 -11.5t-26 9t-11.5 26z" />
<glyph unicode="&#xe2;" horiz-adv-x="802" d="M55 354q45 145 174 310q125 158 263 251q160 109 268 84q18 -4 35 -16q2 0 6 2q27 4 39 -20l4 -13q2 -10 0 -24q16 -22 -2 -45q-2 -25 -4 -27q-8 -104 -39 -201q-2 -18 -4 -39q-10 -227 -2 -348q2 -20 4 -34.5t7 -31t7 -23.5t11 -30.5t14 -35.5q6 -12 -0.5 -26.5 t-19.5 -20t-27.5 1t-18.5 20.5q-4 8 -14.5 33.5t-13.5 34t-8 28t-8 38t-3 42.5q-6 72 -4 211q-174 -332 -418 -414q-47 -14 -100 -14q-72 2 -109 41q-92 90 -37 266zM123 334q-41 -135 18 -197q18 -16 62 -18q41 0 78 12q133 43 239 172q106 131 178 295q17 39 29 72 q4 88 12 151q8 61 19 99q-10 8 -15 10q-78 18 -211 -74q-131 -88 -247 -238q-119 -152 -162 -284zM323 1196.5q-1 14.5 9 26.5l135 155q59 66 102 70q49 6 107 -53q25 -27 127 -156q8 -12 7 -26.5t-13.5 -23.5t-26.5 -8t-25 13l-120 152q-33 33 -45 30q-18 -2 -60 -47 q-16 -16 -61 -67l-74 -88q-10 -10 -24.5 -11.5t-25.5 9t-12 25z" />
<glyph unicode="&#xe3;" horiz-adv-x="899" d="M55 354q45 145 174 310q125 158 263 251q160 109 268 84q18 -4 35 -16q2 0 6 2q27 4 39 -20l4 -13q2 -10 0 -24q16 -22 -2 -45q-2 -25 -4 -27q-8 -104 -39 -201q-2 -18 -4 -39q-10 -227 -2 -348q2 -20 4 -34.5t7 -31t7 -23.5t11 -30.5t14 -35.5q6 -12 -0.5 -26.5 t-19.5 -20t-27.5 1t-18.5 20.5q-4 8 -14.5 33.5t-13.5 34t-8 28t-8 38t-3 42.5q-6 72 -4 211q-174 -332 -418 -414q-47 -14 -100 -14q-72 2 -109 41q-92 90 -37 266zM123 334q-41 -135 18 -197q18 -16 62 -18q41 0 78 12q133 43 239 172q106 131 178 295q17 39 29 72 q4 88 12 151q8 61 19 99q-10 8 -15 10q-78 18 -211 -74q-131 -88 -247 -238q-119 -152 -162 -284zM229 1206q35 180 146 201q70 14 203 -49q139 -63 184 -68q78 -10 117 74q6 12 20 17t27.5 -1t18.5 -20t-1 -29q-63 -127 -190 -112q-57 6 -205 75q-115 51 -160 43 q-63 -12 -90 -143q-2 -14 -14.5 -23.5t-26.5 -6.5t-23.5 15.5t-5.5 26.5z" />
<glyph unicode="&#xe4;" horiz-adv-x="802" d="M55 354q45 145 174 310q125 158 263 251q160 109 268 84q18 -4 35 -16q2 0 6 2q27 4 39 -20l4 -13q2 -10 0 -24q16 -22 -2 -45q-2 -25 -4 -27q-8 -104 -39 -201q-2 -18 -4 -39q-10 -227 -2 -348q2 -20 4 -34.5t7 -31t7 -23.5t11 -30.5t14 -35.5q6 -12 -0.5 -26.5 t-19.5 -20t-27.5 1t-18.5 20.5q-4 8 -14.5 33.5t-13.5 34t-8 28t-8 38t-3 42.5q-6 72 -4 211q-174 -332 -418 -414q-47 -14 -100 -14q-72 2 -109 41q-92 90 -37 266zM123 334q-41 -135 18 -197q18 -16 62 -18q41 0 78 12q133 43 239 172q106 131 178 295q17 39 29 72 q4 88 12 151q8 61 19 99q-10 8 -15 10q-78 18 -211 -74q-131 -88 -247 -238q-119 -152 -162 -284zM401 1249.5q0 14.5 11.5 25.5t26 11t25.5 -11t11 -25.5t-11 -26t-25.5 -11.5t-26 11.5t-11.5 26zM651 1245.5q0 14.5 10.5 25.5t24.5 11t24.5 -11t10.5 -25.5t-10.5 -26 t-24.5 -11.5t-24.5 11.5t-10.5 26z" />
<glyph unicode="&#xe5;" horiz-adv-x="811" d="M55 354q45 145 174 310q125 158 263 251q160 109 268 84q18 -4 35 -16q2 0 6 2q27 4 39 -20l4 -13q2 -10 0 -24q16 -22 -2 -45q-2 -25 -4 -27q-8 -104 -39 -201q-2 -18 -4 -39q-10 -227 -2 -348q2 -20 4 -34.5t7 -31t7 -23.5t11 -30.5t14 -35.5q6 -12 -0.5 -26.5 t-19.5 -20t-27.5 1t-18.5 20.5q-4 8 -14.5 33.5t-13.5 34t-8 28t-8 38t-3 42.5q-6 72 -4 211q-174 -332 -418 -414q-47 -14 -100 -14q-72 2 -109 41q-92 90 -37 266zM123 334q-41 -135 18 -197q18 -16 62 -18q41 0 78 12q133 43 239 172q106 131 178 295q17 39 29 72 q4 88 12 151q8 61 19 99q-10 8 -15 10q-78 18 -211 -74q-131 -88 -247 -238q-119 -152 -162 -284zM471 1219q-57 88 0 196q25 47 67 78t93 35q23 2 53 -4l16 -4l23 -7q17 -2 25 -18l6 6q12 8 27.5 5t23.5 -15q70 -106 49 -197q-16 -80 -98 -123q-63 -39 -151.5 -27.5 t-133.5 75.5zM532 1260q23 -37 80.5 -45.5t110.5 20.5q51 27 61 76q14 59 -41 139v4q-14 -14 -32 -10l-43 10q-20 4 -33 4q-61 -6 -100 -78q-37 -70 -3 -120z" />
<glyph unicode="&#xe6;" horiz-adv-x="1490" d="M55 354q45 145 174 310q125 158 263 251q160 109 268 84q18 -4 35 -16q2 0 6 2q27 4 39 -20l4 -13q2 -10 0 -24q16 -23 -2 -45q-2 -25 -4 -27q-8 -104 -39 -201q-2 -18 -4 -39v-18q4 4 10 6q72 209 278 330q190 113 312 51q98 -51 78 -178q-16 -94 -80 -166 q-96 -106 -250 -143t-289 14q-16 -90 4 -170q31 -131 135 -178q119 -55 289 20q39 18 75 46t56 53l64 71q8 12 23.5 13.5t26.5 -8t12 -25t-9 -25.5q-41 -51 -63.5 -75.5t-65.5 -59.5t-90 -55q-199 -90 -348 -21q-129 59 -172 211q2 -25 2 -41q2 -20 4 -34.5t7 -31t7 -23.5 t11 -30.5t14 -35.5q6 -12 -0.5 -26.5t-19.5 -20t-27.5 1t-18.5 20.5q-4 8 -14.5 33.5t-13.5 34t-8 28t-8 38t-3 42.5q-6 72 -4 211q-174 -332 -418 -414q-47 -14 -100 -14q-72 2 -109 41q-92 90 -37 266zM123 334q-41 -135 18 -197q18 -16 62 -18q41 0 78 12q133 43 239 172 q106 131 178 295q17 39 29 72q4 88 12 151q8 61 19 99q-10 8 -15 10q-78 18 -211 -74q-131 -88 -247 -238q-119 -152 -162 -284zM872 582q115 -45 249 -15.5t218 123.5q49 55 62 129q14 74 -39 101q-84 45 -242 -48q-182 -108 -248 -290z" />
<glyph unicode="&#xe7;" horiz-adv-x="854" d="M53 -259q6 13 19.5 19.5t27.5 -0.5q115 -47 191 -51q104 -6 129 72q10 35 -4 63q-16 29 -90 17q-27 -4 -60 -15l-20 -8q-4 0 -6 -2h-7q-4 -2 -10 0q-18 0 -26 19q-8 14 -2 30q0 4 3 7.5t7 9.5q6 8 18 20l53 60l84 84q-68 23 -116 75q-115 123 -109 355q4 221 107 378 q53 82 126.5 126t161.5 30q178 -29 246 -266q4 -14 -3 -27.5t-21.5 -17.5t-27.5 3t-17 21q-53 195 -189 218q-125 20 -215 -125q-92 -143 -96 -340q-4 -203 90 -306q104 -115 307 -43q51 16 121 82q20 18 59 58.5t58 56.5q12 10 26.5 9t24.5 -12t9 -25.5t-11 -24.5 q-18 -16 -57 -55l-60 -60q-82 -76 -145 -98q-106 -35 -197 -29q2 -16 -12 -29q-16 -12 -90 -88q111 14 147 -55q31 -53 12 -117q-41 -131 -202 -122q-88 6 -215 57q-12 6 -18.5 19.5t-0.5 26.5z" />
<glyph unicode="&#xe8;" horiz-adv-x="819" d="M113 561q6 15 20 19q72 209 279 329q190 113 311 52q98 -51 78 -179q-16 -94 -80 -166q-96 -106 -250 -143t-289 14q-16 -90 4 -170q31 -131 136 -178q119 -55 288 21q39 18 75 45.5t56 52.5l64 72q8 12 23.5 13t26.5 -8t12 -24.5t-9 -25.5q-41 -51 -63.5 -76 t-65.5 -59.5t-90 -55.5q-199 -90 -348 -20q-135 63 -174 227q-27 104 0 219q-16 20 -4 41zM177 1348.5q5 13.5 19.5 19.5t28.5 0q49 -20 170 -59q111 -39 174 -66q14 -6 19.5 -19.5t-0.5 -27.5t-19.5 -19.5t-27.5 1.5q-59 27 -168 61q-123 43 -176 64q-12 4 -18.5 18 t-1.5 27.5zM201 557q115 -45 249 -15.5t218 124.5q49 55 61 129q14 74 -39 100q-84 45 -241 -47q-182 -109 -248 -291z" />
<glyph unicode="&#xe9;" horiz-adv-x="819" d="M113 561q6 15 20 19q72 209 279 329q190 113 311 52q98 -51 78 -179q-16 -94 -80 -166q-96 -106 -250 -143t-289 14q-16 -90 4 -170q31 -131 136 -178q119 -55 288 21q39 18 75 45.5t56 52.5l64 72q8 12 23.5 13t26.5 -8t12 -24.5t-9 -25.5q-41 -51 -63.5 -76 t-65.5 -59.5t-90 -55.5q-199 -90 -348 -20q-135 63 -174 227q-27 104 0 219q-16 20 -4 41zM201 557q115 -45 249 -15.5t218 124.5q49 55 61 129q14 74 -39 100q-84 45 -241 -47q-182 -109 -248 -291zM364.5 1179.5q4.5 14.5 16.5 22.5q205 121 336 182q12 6 26.5 1t20.5 -18 t1 -27.5t-20 -20.5q-127 -59 -327 -178q-12 -8 -26.5 -4t-23 16t-4 26.5z" />
<glyph unicode="&#xea;" horiz-adv-x="819" d="M113 561q6 15 20 19q72 209 279 329q190 113 311 52q98 -51 78 -179q-16 -94 -80 -166q-96 -106 -250 -143t-289 14q-16 -90 4 -170q31 -131 136 -178q119 -55 288 21q39 18 75 45.5t56 52.5l64 72q8 12 23.5 13t26.5 -8t12 -24.5t-9 -25.5q-41 -51 -63.5 -76 t-65.5 -59.5t-90 -55.5q-199 -90 -348 -20q-135 63 -174 227q-27 104 0 219q-16 20 -4 41zM201 557q115 -45 249 -15.5t218 124.5q49 55 61 129q14 74 -39 100q-84 45 -241 -47q-182 -109 -248 -291zM325 1164.5q1 15.5 11 25.5q84 76 176 176q31 33 43 43q29 25 57 14 q18 -8 37 -37l29 -49q51 -84 133 -166q10 -10 11 -24t-10 -25.5t-25.5 -11.5t-24.5 12q-88 88 -146 178l-26 46q-8 -8 -25 -27q-96 -102 -180 -182q-10 -10 -25.5 -9.5t-25.5 11t-9 26z" />
<glyph unicode="&#xeb;" horiz-adv-x="819" d="M113 561q6 15 20 19q72 209 279 329q190 113 311 52q98 -51 78 -179q-16 -94 -80 -166q-96 -106 -250 -143t-289 14q-16 -90 4 -170q31 -131 136 -178q119 -55 288 21q39 18 75 45.5t56 52.5l64 72q8 12 23.5 13t26.5 -8t12 -24.5t-9 -25.5q-41 -51 -63.5 -76 t-65.5 -59.5t-90 -55.5q-199 -90 -348 -20q-135 63 -174 227q-27 104 0 219q-16 20 -4 41zM201 557q115 -45 249 -15.5t218 124.5q49 55 61 129q14 74 -39 100q-84 45 -241 -47q-182 -109 -248 -291zM406 1255.5q0 14.5 10 24.5t24.5 10t24.5 -10t10 -24.5t-10 -24.5 t-24.5 -10t-24.5 10t-10 24.5zM651 1243q0 14 10.5 24.5t24.5 10.5t24.5 -10.5t10.5 -24.5t-10.5 -24.5t-24.5 -10.5t-24.5 10.5t-10.5 24.5z" />
<glyph unicode="&#xec;" horiz-adv-x="217" d="M71 1461.5q5 13.5 19 19.5t27.5 0.5t19.5 -19.5q25 -59 123 -211q8 -12 5 -26.5t-16 -22.5t-27.5 -5t-22.5 17q-100 154 -127 220q-6 14 -1 27.5zM147 16q0 676 9 979q0 16 10 26.5t25.5 9.5t25.5 -11.5t8 -24.5q-8 -303 -8 -979q0 -14 -10 -25t-24.5 -11t-25 11 t-10.5 25z" />
<glyph unicode="&#xed;" horiz-adv-x="370" d="M97.5 1233q-0.5 14 11.5 24l47 46q23 20 53 43l47 34q16 12 56 40t50 34q12 8 26.5 6t23 -14t6.5 -26.5t-15 -22.5l-51 -37l-53 -37l-45 -33q-31 -23 -53 -41l-43 -41q-10 -12 -24.5 -12t-25 11.5t-11 25.5zM147 16q0 676 9 979q0 16 10 26.5t25.5 9.5t25.5 -11.5 t8 -24.5q-8 -303 -8 -979q0 -14 -10 -25t-24.5 -11t-25 11t-10.5 25z" />
<glyph unicode="&#xee;" horiz-adv-x="364" d="M59.5 1164.5q-1.5 15.5 6.5 27.5q27 35 90 131q18 29 30 41q18 23 39 31q27 8 54 -9q18 -12 36 -36q20 -27 93 -144q8 -12 4 -26.5t-16.5 -22.5t-27 -4t-22.5 16q-70 113 -86 136q-10 12 -16 18l-2 -4q-10 -10 -27 -37q-63 -96 -92 -135q-8 -10 -23.5 -12t-27 6t-13 23.5 zM147 16q0 676 9 979q0 16 10 26.5t25.5 9.5t25.5 -11.5t8 -24.5q-8 -303 -8 -979q0 -14 -10 -25t-24.5 -11t-25 11t-10.5 25z" />
<glyph unicode="&#xef;" horiz-adv-x="280" d="M82 1245.5q0 14.5 10 25.5t24.5 11t25 -11t10.5 -25.5t-10.5 -26t-25 -11.5t-24.5 11.5t-10 26zM147 16q0 676 9 979q0 16 10 26.5t25.5 9.5t25.5 -11.5t8 -24.5q-8 -303 -8 -979q0 -14 -10 -25t-24.5 -11t-25 11t-10.5 25zM258 1249.5q0 14.5 10.5 25.5t24.5 11 t24.5 -11t10.5 -25.5t-10.5 -26t-24.5 -11.5t-24.5 11.5t-10.5 26z" />
<glyph unicode="&#xf0;" horiz-adv-x="827" d="M175 1217.5q1 15.5 13 23.5q90 78 187 141q-66 68 -142 138q-10 10 -11 24.5t9.5 25.5t24.5 12t27 -9q84 -76 155 -152q70 41 144 78q14 6 28.5 1t20.5 -18.5t1 -27.5t-18 -20q-66 -31 -127 -68q328 -377 381 -807q31 -246 -57 -393q-53 -88 -143 -115q-96 -29 -228 23 q-96 37 -161 106q-63 68 -86 149t-14 169t49 164.5t112 137t164 87.5q76 20 203 2q-95 227 -283 438q-98 -61 -191 -139q-10 -10 -25 -9t-24.5 12t-8.5 26.5zM252 405.5q8 -83.5 64.5 -156.5t148.5 -110q109 -41 184 -20q61 18 101 84q76 127 49 348q-17 133 -62 262 q-147 23 -213 4q-96 -27 -164.5 -93.5t-92 -150.5t-15.5 -167.5z" />
<glyph unicode="&#xf1;" horiz-adv-x="729" d="M133 444q-16 403 0 603q0 16 11.5 25t26.5 8t24.5 -12.5t7.5 -25.5q-14 -186 -2 -491q27 113 63 211q47 135 101 217q68 104 143 119q68 14 106 -21q25 -20 41 -73q14 -43 27 -111q18 -115 31 -301q20 -268 20 -510q0 -14 -11 -25.5t-25.5 -11.5t-26 11.5t-11.5 25.5 q0 240 -16 506q-14 178 -33 293q-10 63 -22 100q-10 35 -19 43q-14 10 -49 4q-45 -8 -96 -88q-47 -76 -92 -203q-78 -219 -101 -391q-10 -100 -10 -149q0 -4 6 -31q12 -35 4 -62q-2 -4 -6 -10q-8 -12 -22 -16q-23 -6 -37 12q-4 4 -8 12.5t-6 28.5q0 10 -2.5 29.5t-2.5 25.5 q-8 53 -14 258zM207 1214q53 164 131 187q55 18 145 -43q84 -57 117 -64q57 -12 113 58q10 12 25.5 13t26.5 -8t12 -24.5t-7 -25.5q-86 -102 -184 -82q-47 8 -144 73q-59 43 -84 35q-41 -12 -82 -139q-6 -14 -19 -21.5t-26.5 -2t-20.5 17.5t-3 26z" />
<glyph unicode="&#xf2;" horiz-adv-x="714" d="M123 625q39 233 151 360q61 70 136 84q41 6 84 -6q2 0 4 -2q10 -2 20 -6q72 -27 88 -37q51 -27 92 -90q49 -80 61.5 -228.5t-14.5 -287.5q-31 -158 -94 -258q-78 -121 -192 -127q-217 -14 -305 192q-72 166 -31 406zM193 614q-37 -219 26 -368q68 -158 236 -150 q78 6 135 97q57 88 84 233q27 137 15.5 268t-52.5 193q-31 49 -66 67l-12 9q-18 -8 -34.5 4t-32.5 20l-17 6q-29 8 -53 4q-49 -8 -94 -59q-98 -113 -135 -324zM318.5 1410.5q-1.5 14.5 9 26t25 12.5t26.5 -9q76 -70 174 -185q10 -10 9 -24t-12 -24.5t-25.5 -9.5t-24.5 13 q-96 111 -170 176q-10 10 -11.5 24.5z" />
<glyph unicode="&#xf3;" horiz-adv-x="714" d="M123 625q39 233 151 360q61 70 136 84q41 6 84 -6q2 0 4 -2q10 -2 20 -6q72 -27 88 -37q51 -27 92 -90q49 -80 61.5 -228.5t-14.5 -287.5q-31 -158 -94 -258q-78 -121 -192 -127q-217 -14 -305 192q-72 166 -31 406zM193 614q-37 -219 26 -368q68 -158 236 -150 q78 6 135 97q57 88 84 233q27 137 15.5 268t-52.5 193q-31 49 -66 67l-12 9q-18 -8 -34.5 4t-32.5 20l-17 6q-29 8 -53 4q-49 -8 -94 -59q-98 -113 -135 -324zM353.5 1212.5q1.5 14.5 11.5 24.5q117 102 213 172q12 8 26 6t22.5 -14t6.5 -26.5t-15 -22.5q-92 -68 -204 -168 q-12 -10 -26.5 -9t-25 12t-9 25.5z" />
<glyph unicode="&#xf4;" horiz-adv-x="714" d="M123 625q39 233 151 360q61 70 136 84q41 6 84 -6q2 0 4 -2q10 -2 20 -6q72 -27 88 -37q51 -27 92 -90q49 -80 61.5 -228.5t-14.5 -287.5q-31 -158 -94 -258q-78 -121 -192 -127q-217 -14 -305 192q-72 166 -31 406zM193 614q-37 -219 26 -368q68 -158 236 -150 q78 6 135 97q57 88 84 233q27 137 15.5 268t-52.5 193q-31 49 -66 67l-12 9q-18 -8 -34.5 4t-32.5 20l-17 6q-29 8 -53 4q-49 -8 -94 -59q-98 -113 -135 -324zM263 1207.5q-3 15.5 5 27.5q94 139 97 141q47 66 84 74q53 12 98 -55q31 -45 80 -164q6 -14 0 -27.5t-19.5 -19.5 t-27 0t-19.5 18q-47 113 -74 154q-14 20 -22 24q-12 -4 -43 -47q-2 0 -92 -139q-8 -12 -23.5 -15t-28 5t-15.5 23.5z" />
<glyph unicode="&#xf5;" horiz-adv-x="714" d="M123 625q39 233 151 360q61 70 136 84q41 6 84 -6q2 0 4 -2q10 -2 20 -6q72 -27 88 -37q51 -27 92 -90q49 -80 61.5 -228.5t-14.5 -287.5q-31 -158 -94 -258q-78 -121 -192 -127q-217 -14 -305 192q-72 166 -31 406zM193 614q-37 -219 26 -368q68 -158 236 -150 q78 6 135 97q57 88 84 233q27 137 15.5 268t-52.5 193q-31 49 -66 67l-12 9q-18 -8 -34.5 4t-32.5 20l-17 6q-29 8 -53 4q-49 -8 -94 -59q-98 -113 -135 -324zM211 1208q47 150 115 168q33 10 73 -6q20 -10 58 -35q72 -49 106 -55q61 -6 127 68q10 10 24.5 11t26 -9.5 t12.5 -24.5t-10 -27q-90 -100 -188 -88q-53 6 -139 66q-31 20 -47 29q-14 6 -23 4q-33 -10 -65 -121q-4 -14 -17.5 -21.5t-28 -3.5t-21.5 17.5t-3 27.5z" />
<glyph unicode="&#xf6;" horiz-adv-x="714" d="M123 625q39 233 151 360q61 70 136 84q41 6 84 -6q2 0 4 -2q10 -2 20 -6q72 -27 88 -37q51 -27 92 -90q49 -80 61.5 -228.5t-14.5 -287.5q-31 -158 -94 -258q-78 -121 -192 -127q-217 -14 -305 192q-72 166 -31 406zM193 614q-37 -219 26 -368q68 -158 236 -150 q78 6 135 97q57 88 84 233q27 137 15.5 268t-52.5 193q-31 49 -66 67l-12 9q-18 -8 -34.5 4t-32.5 20l-17 6q-29 8 -53 4q-49 -8 -94 -59q-98 -113 -135 -324zM315 1294.5q0 14.5 10.5 25.5t25 11t24.5 -11t10 -25.5t-10 -26t-24.5 -11.5t-25 11.5t-10.5 26zM504 1310.5 q0 14.5 11 26t25.5 11.5t26 -11.5t11.5 -26t-11.5 -25.5t-26 -11t-25.5 11t-11 25.5z" />
<glyph unicode="&#xf7;" horiz-adv-x="1048" d="M17 498.5q1 15.5 11.5 25.5t26.5 8q219 -8 1006 -8q14 0 25.5 -10t11.5 -24.5t-11.5 -24.5t-25.5 -10q-786 0 -1010 8q-14 0 -24.5 10t-9.5 25.5zM520 813q0 14 10.5 24.5t24.5 10.5t24.5 -10.5t10.5 -24.5t-10.5 -24.5t-24.5 -10.5t-24.5 10.5t-10.5 24.5zM528 176 q0 14 11.5 25.5t26 11.5t25.5 -11.5t11 -25.5t-11 -25.5t-25.5 -11.5t-26 11.5t-11.5 25.5z" />
<glyph unicode="&#xf8;" horiz-adv-x="1054" d="M-22.5 -69.5q-2.5 14.5 6.5 26.5q100 129 227 272q-53 88 -68 183q-33 205 60 415q66 145 168 230h-2q-6 14 -1 27.5t17 21.5q176 86 334 -33q78 -59 135 -162q109 119 188 191q12 10 26.5 9t25 -12.5t9.5 -25.5t-11 -24q-80 -70 -191 -191l-14 -16q16 -39 28 -82 q29 -100 31 -201q4 -102 -21.5 -200.5t-91 -181.5t-165.5 -132q-104 -41 -189.5 -23.5t-159.5 80.5q-34 29 -65 66q-119 -133 -213 -256q-10 -10 -24.5 -12t-25.5 7t-13.5 23.5zM213 424q12 -70 49 -139l402 422l137 149q-51 102 -127 160q-68 51 -142 53q-8 -8 -16 -12 q-158 -53 -246 -258q-86 -195 -57 -375zM303 223q29 -39 62 -67q133 -113 270 -45q86 41 142.5 111.5t79 155.5t20 178t-28.5 183q-6 22 -14 45l-117 -127q-295 -303 -414 -434z" />
<glyph unicode="&#xf9;" horiz-adv-x="704" d="M137 457q-16 266 13 581q0 14 11 23.5t26.5 8.5t24.5 -12.5t7 -27.5q-27 -309 -10 -569q14 -199 55 -305q43 -111 109 -105q8 2 22 19q20 20 43 59q39 74 86 203q68 197 109 379q23 104 35 190q0 6 2 70q0 23 2 33q2 6 6 12q14 27 43 18q14 -6 22 -20l5 -8q8 -29 2 -72 q-6 -45 -7 -51q-2 -59 -9 -194.5t-10 -221.5t2 -199.5t22 -193.5q4 -14 -4.5 -27.5t-22.5 -16.5t-27.5 5t-15.5 22q-35 160 -25 447q-31 -106 -61 -195q-49 -135 -92 -215q-27 -47 -51 -74q-33 -37 -68 -38q-121 -12 -184 147q-45 117 -60 328zM303 1402.5q0 14.5 10.5 26 t24.5 11t24 -12.5l211 -202q10 -10 10.5 -24.5t-10 -26t-24.5 -11.5t-25 13l-211 202q-10 10 -10 24.5z" />
<glyph unicode="&#xfa;" horiz-adv-x="704" d="M137 457q-16 266 13 581q0 14 11 23.5t26.5 8.5t24.5 -12.5t7 -27.5q-27 -309 -10 -569q14 -199 55 -305q43 -111 109 -105q8 2 22 19q20 20 43 59q39 74 86 203q68 197 109 379q23 104 35 190q0 6 2 70q0 23 2 33q2 6 6 12q14 27 43 18q14 -6 22 -20l5 -8q8 -29 2 -72 q-6 -45 -7 -51q-2 -59 -9 -194.5t-10 -221.5t2 -199.5t22 -193.5q4 -14 -4.5 -27.5t-22.5 -16.5t-27.5 5t-15.5 22q-35 160 -25 447q-31 -106 -61 -195q-49 -135 -92 -215q-27 -47 -51 -74q-33 -37 -68 -38q-121 -12 -184 147q-45 117 -60 328zM344 1200.5q0 14.5 10 24.5 q86 86 269 231q12 8 26.5 7t23.5 -13t8 -26.5t-13 -24.5q-180 -141 -265 -223q-10 -12 -24 -12.5t-24.5 11t-10.5 26z" />
<glyph unicode="&#xfb;" horiz-adv-x="704" d="M137 457q-16 266 13 581q0 14 11 23.5t26.5 8.5t24.5 -12.5t7 -27.5q-27 -309 -10 -569q14 -199 55 -305q43 -111 109 -105q8 2 22 19q20 20 43 59q39 74 86 203q68 197 109 379q23 104 35 190q0 6 2 70q0 23 2 33q2 6 6 12q14 27 43 18q14 -6 22 -20l5 -8q8 -29 2 -72 q-6 -45 -7 -51q-2 -59 -9 -194.5t-10 -221.5t2 -199.5t22 -193.5q4 -14 -4.5 -27.5t-22.5 -16.5t-27.5 5t-15.5 22q-35 160 -25 447q-31 -106 -61 -195q-49 -135 -92 -215q-27 -47 -51 -74q-33 -37 -68 -38q-121 -12 -184 147q-45 117 -60 328zM258 1200.5q-4 14.5 4 26.5 l78 129q43 72 76 90q29 18 57.5 10t48.5 -39q33 -47 68 -176q4 -14 -4 -26.5t-22.5 -16.5t-27 4t-16.5 23q-31 115 -57 151q-4 8 -8 10h-2q-16 -12 -52 -67l-77 -129q-8 -12 -22.5 -16.5t-27 4t-16.5 23z" />
<glyph unicode="&#xfc;" horiz-adv-x="704" d="M137 457q-16 266 13 581q0 14 11 23.5t26.5 8.5t24.5 -12.5t7 -27.5q-27 -309 -10 -569q14 -199 55 -305q43 -111 109 -105q8 2 22 19q20 20 43 59q39 74 86 203q68 197 109 379q23 104 35 190q0 6 2 70q0 23 2 33q2 6 6 12q14 27 43 18q14 -6 22 -20l5 -8q8 -29 2 -72 q-6 -45 -7 -51q-2 -59 -9 -194.5t-10 -221.5t2 -199.5t22 -193.5q4 -14 -4.5 -27.5t-22.5 -16.5t-27.5 5t-15.5 22q-35 160 -25 447q-31 -106 -61 -195q-49 -135 -92 -215q-27 -47 -51 -74q-33 -37 -68 -38q-121 -12 -184 147q-45 117 -60 328zM283 1274q0 14 11 25.5 t25.5 11.5t25.5 -11.5t11 -25.5t-11 -25.5t-25.5 -11.5t-25.5 11.5t-11 25.5zM479 1261.5q0 14.5 10.5 25.5t24.5 11t24.5 -11t10.5 -25.5t-10.5 -25.5t-24.5 -11t-24.5 11t-10.5 25.5z" />
<glyph unicode="&#xfd;" horiz-adv-x="780" d="M96 723q0 14 3 88t3 109q0 14 10.5 24t25 10t24.5 -10t10 -24v-60q0 -31 -2 -71.5t-2 -67.5q-4 -129 4 -213q25 -238 160 -320q72 -43 135 -22q119 39 182 186q47 109 66 281l6 63q-2 16 -2 31q-4 78 -4 125q2 29 4 45q0 12 4 18q4 18 18 27q18 10 37 2q12 -6 19 -18 q4 -10 6 -25q2 -20 0 -61q-2 -53 -10 -146q2 -39 10 -166q2 -27 9 -99.5t11 -117.5t6 -126t-6 -124q-33 -313 -276 -348q-115 -18 -213 -1.5t-199 71.5q-14 6 -18 20.5t3 27.5t21.5 17.5t26.5 -4.5q92 -49 178 -62t189 1q190 29 219 285q10 117 -11 333q-12 -41 -28 -77 q-76 -178 -228 -228q-92 -29 -192 31q-166 100 -195 375q-8 88 -4 221zM273.5 1158q-5.5 13 1 27.5t20.5 18.5q66 29 160 78l161 86q12 6 26.5 1t22 -17.5t2.5 -26.5t-18 -22l-160 -84q-100 -53 -170 -80q-12 -6 -26 0t-19.5 19z" />
<glyph unicode="&#xfe;" horiz-adv-x="841" d="M154 1417q0 14 11 24.5t25.5 9.5t24.5 -12.5t8 -25.5q-12 -240 -6 -545q92 133 221 185q68 23 130.5 23.5t125 -39.5t107.5 -115q57 -94 77.5 -234.5t2.5 -277.5q-23 -150 -94.5 -262.5t-192.5 -149.5q-41 -12 -99.5 -14t-99.5 8q-63 20 -127 90q-12 12 -26 29 q10 -303 4 -523q0 -16 -10.5 -26.5t-25.5 -9t-25.5 11.5t-8.5 24q4 197 -20 912q-20 586 -2 917zM221 729q2 -92 6 -227q2 -29 4 -84.5t4.5 -101.5t4.5 -85l36 -47q27 -35 46 -53q51 -55 94 -70q27 -8 76 -6t81 13q96 29 155.5 123t80.5 229q18 127 -1.5 255t-68.5 210 q-102 170 -272 102q-76 -31 -141.5 -99.5t-98.5 -148.5q-2 -6 -6 -10z" />
<glyph unicode="&#xff;" horiz-adv-x="780" d="M96 723q0 14 3 88t3 109q0 14 10.5 24t25 10t24.5 -10t10 -24v-60q0 -31 -2 -71.5t-2 -67.5q-4 -129 4 -213q25 -238 160 -320q72 -43 135 -22q119 39 182 186q47 109 66 281l6 63q-2 16 -2 31q-4 78 -4 125q2 29 4 45q0 12 4 18q4 18 18 27q18 10 37 2q12 -6 19 -18 q4 -10 6 -25q2 -20 0 -61q-2 -53 -10 -146q2 -39 10 -166q2 -27 9 -99.5t11 -117.5t6 -126t-6 -124q-33 -313 -276 -348q-115 -18 -213 -1.5t-199 71.5q-14 6 -18 20.5t3 27.5t21.5 17.5t26.5 -4.5q92 -49 178 -62t189 1q190 29 219 285q10 117 -11 333q-12 -41 -28 -77 q-76 -178 -228 -228q-92 -29 -192 31q-166 100 -195 375q-8 88 -4 221zM291 1284q0 14 10 24.5t24.5 10.5t24.5 -10.5t10 -24.5t-10 -24.5t-24.5 -10.5t-24.5 10.5t-10 24.5zM512 1278q0 14 11.5 25.5t25.5 11.5t25.5 -11.5t11.5 -25.5t-11.5 -25.5t-25.5 -11.5t-25.5 11.5 t-11.5 25.5z" />
<glyph unicode="&#x152;" horiz-adv-x="1708" d="M251 538q-9 187 44 353q57 188 176 308t289 114q178 -4 274 -133q6 72 21 139v4q-4 14 5 26.5t23 14.5q209 39 467 61q16 2 27.5 -7t12.5 -24.5t-8 -26.5t-23 -11q-242 -23 -435 -58q-20 -92 -21 -200.5t6 -183t26 -203.5q6 4 12 6q135 29 436 71q16 2 27.5 -6 t13.5 -23.5t-6 -26.5t-23 -13q-293 -43 -432 -72q-10 -2 -20 2q18 -145 24 -237q2 -4 2 -25.5t1 -58.5t1 -66q2 -59 5 -92q0 -10 2 -16q23 0 59 4q63 8 174 28l121 23l119 24q47 8 65 11q14 2 25.5 -6.5t13.5 -23.5t-6 -26.5t-25 -13.5q-16 -4 -62 -12t-118 -23l-121 -24 q-113 -20 -178 -27q-41 -6 -65 -6q-37 0 -56 10q-4 4 -8 9t-4 8l-2 4q0 2 -2 8q0 4 -2 12q0 10 -2 33q-2 35 -4 94q0 29 -1 65.5t-1 57.5v25q-6 68 -19 163q-25 -166 -102 -290q-55 -86 -137 -141.5t-174 -67.5q-96 -12 -183.5 28.5t-148.5 135.5q-74 115 -83 302z M321.5 540.5q8.5 -167.5 73.5 -268.5q96 -152 262 -129q74 8 143.5 54.5t114.5 119.5q106 180 103.5 410.5t-103.5 415.5q-16 29 13 47q-63 49 -172 53q-135 4 -237.5 -98.5t-156.5 -274.5q-49 -162 -40.5 -329.5zM1030 1059v2v-2z" />
<glyph unicode="&#x153;" horiz-adv-x="1601" d="M94 471q-6 201 90 328q94 127 244 153q145 25 282.5 -58t207.5 -259q4 -9 2 -19q4 -12 6 -24q78 190 268 303t311 51q98 -51 78 -178q-16 -94 -80 -166q-96 -106 -249.5 -143t-288.5 14q-16 -90 4 -170q31 -131 135 -178q119 -55 289 20q39 18 74.5 46t56.5 53l63 71 q8 12 23.5 13.5t27 -8t12.5 -24.5t-10 -26q-41 -51 -63.5 -75.5t-65.5 -59.5t-90 -55q-199 -90 -348 -21q-135 63 -174 228q-6 25 -10 51q-68 -129 -203 -209q-92 -55 -190 -72q-98 -14 -193.5 26t-148.5 142q-39 72 -48 115q-10 41 -12 131zM164 471q2 -80 10 -114.5 t41 -98.5q43 -78 115.5 -109.5t154.5 -19.5q80 12 164 61q129 78 187 199q55 125 0 248q-4 6 -2 14q-66 133 -174.5 191.5t-219.5 40.5q-121 -23 -200.5 -128.5t-75.5 -283.5zM983 543q115 -45 249 -15.5t218 123.5q49 55 61 129q14 74 -38 101q-84 45 -242 -47 q-182 -109 -248 -291z" />
<glyph unicode="&#x2000;" horiz-adv-x="795" />
<glyph unicode="&#x2001;" horiz-adv-x="1591" />
<glyph unicode="&#x2002;" horiz-adv-x="795" />
<glyph unicode="&#x2003;" horiz-adv-x="1591" />
<glyph unicode="&#x2004;" horiz-adv-x="530" />
<glyph unicode="&#x2005;" horiz-adv-x="397" />
<glyph unicode="&#x2006;" horiz-adv-x="265" />
<glyph unicode="&#x2007;" horiz-adv-x="265" />
<glyph unicode="&#x2008;" horiz-adv-x="198" />
<glyph unicode="&#x2009;" horiz-adv-x="318" />
<glyph unicode="&#x200a;" horiz-adv-x="88" />
<glyph unicode="&#x2010;" horiz-adv-x="491" d="M24 541.5q1 15.5 11 25.5t24 8q72 -2 223.5 0.5t221.5 -0.5q16 0 26.5 -10t9.5 -25.5t-11.5 -25.5t-24.5 -8q-72 0 -223.5 -2t-221.5 2q-16 0 -26 10t-9 25.5z" />
<glyph unicode="&#x2011;" horiz-adv-x="491" d="M24 541.5q1 15.5 11 25.5t24 8q72 -2 223.5 0.5t221.5 -0.5q16 0 26.5 -10t9.5 -25.5t-11.5 -25.5t-24.5 -8q-72 0 -223.5 -2t-221.5 2q-16 0 -26 10t-9 25.5z" />
<glyph unicode="&#x2012;" horiz-adv-x="491" d="M24 541.5q1 15.5 11 25.5t24 8q72 -2 223.5 0.5t221.5 -0.5q16 0 26.5 -10t9.5 -25.5t-11.5 -25.5t-24.5 -8q-72 0 -223.5 -2t-221.5 2q-16 0 -26 10t-9 25.5z" />
<glyph unicode="&#x2013;" horiz-adv-x="995" d="M-36 543.5q1 15.5 11.5 26t26.5 8.5q150 -4 314.5 -5.5t375.5 2t316 3.5q14 0 25 -11.5t11 -26t-11 -25.5t-25 -11q-104 0 -316.5 -2t-378.5 -1t-315 7q-14 0 -24.5 10t-9.5 25.5z" />
<glyph unicode="&#x2014;" horiz-adv-x="1708" d="M143 538.5q0 14.5 11.5 24.5t25.5 10q160 0 481.5 -2t575.5 -2t483 6q14 2 24.5 -8t11.5 -25.5t-9 -25.5t-27 -10q-227 -8 -481 -8t-576.5 3t-482.5 3q-14 0 -25.5 10t-11.5 24.5z" />
<glyph unicode="&#x2018;" horiz-adv-x="212" d="M55 1274q25 51 64 92t82 53q14 4 27.5 -2t17.5 -21.5t-2.5 -28.5t-22.5 -17q-25 -8 -52.5 -37t-45.5 -70q-35 -74 -12 -123q31 27 61 35q47 14 76 -14q14 -20 13 -42t-17 -38q-25 -27 -80 -35q-72 -10 -107 37q-59 84 -2 211z" />
<glyph unicode="&#x2019;" horiz-adv-x="210" d="M23.5 1062q-3.5 15 4 28.5t21.5 15.5q27 8 56.5 34.5t52.5 65.5q41 72 22 121q-33 -23 -63 -31q-47 -8 -74 21q-16 20 -13 41.5t19 36.5q27 27 84 30q70 6 103 -45q55 -88 -15 -211q-27 -47 -68.5 -84.5t-82.5 -48.5q-16 -4 -29.5 3.5t-17 22.5z" />
<glyph unicode="&#x201a;" horiz-adv-x="315" d="M80 -192.5q0 14.5 11.5 25.5t25.5 11q25 0 59.5 19.5t63.5 54.5q53 59 51 111q-10 -6 -17 -11q-37 -18 -71 -6q-25 8 -39 23q-20 23 -10 51q12 33 59 45q23 4 49.5 5t55 -16.5t38.5 -49.5q33 -96 -61 -201q-86 -98 -178 -98q-14 0 -25.5 11t-11.5 25.5z" />
<glyph unicode="&#x201c;" horiz-adv-x="475" d="M55 1274q25 51 64 92t82 53q14 4 27.5 -2t17.5 -21.5t-2.5 -28.5t-22.5 -17q-25 -8 -52.5 -37t-45.5 -70q-35 -74 -12 -123q31 27 61 35q47 14 76 -14q14 -20 13 -42t-17 -38q-25 -27 -80 -35q-72 -10 -107 37q-59 84 -2 211zM317 1274q25 51 64 92t82 53q14 4 27.5 -2 t17.5 -21.5t-2.5 -28.5t-22.5 -17q-25 -8 -52.5 -37t-45.5 -70q-35 -74 -12 -123q31 27 61 35q47 14 76 -14q14 -20 13 -42t-17 -38q-25 -27 -80 -35q-72 -10 -107 37q-59 84 -2 211z" />
<glyph unicode="&#x201d;" horiz-adv-x="473" d="M23.5 1062q-3.5 15 4 28.5t21.5 15.5q27 8 56.5 34.5t52.5 65.5q41 72 22 121q-33 -23 -63 -31q-47 -8 -74 21q-16 20 -13 41.5t19 36.5q27 27 84 30q70 6 103 -45q55 -88 -15 -211q-27 -47 -68.5 -84.5t-82.5 -48.5q-16 -4 -29.5 3.5t-17 22.5zM284 1066q-3 15 5 27.5 t22 16.5q25 4 55.5 30.5t53.5 65.5q41 72 22 121q-33 -25 -63 -31q-49 -10 -74 23q-14 20 -11 41.5t19 36.5q29 27 84 28q70 2 101 -45q55 -88 -15 -211q-29 -49 -70.5 -85.5t-84.5 -47.5q-16 -2 -28.5 6.5t-15.5 23.5z" />
<glyph unicode="&#x201e;" horiz-adv-x="557" d="M80 -192.5q0 14.5 11.5 25.5t25.5 11q25 0 59.5 19.5t63.5 54.5q53 59 51 111q-10 -6 -17 -11q-37 -18 -71 -6q-25 8 -39 23q-20 23 -10 51q12 33 59 45q23 4 49.5 5t55 -16.5t38.5 -49.5q33 -96 -61 -201q-86 -98 -178 -98q-14 0 -25.5 11t-11.5 25.5zM322 -192.5 q0 14.5 11 25.5t25 11q25 0 60 19.5t63 54.5q53 59 51 111q-10 -6 -16 -11q-37 -18 -72 -6q-25 8 -38 23q-20 23 -11 51q12 33 60 45q23 4 49 5t55 -16.5t39 -49.5q33 -96 -61 -201q-86 -98 -179 -98q-14 0 -25 11t-11 25.5z" />
<glyph unicode="&#x2022;" horiz-adv-x="290" d="M211 682q0 27 18.5 45t45 18t45 -18t18.5 -45t-18.5 -45.5t-45 -18.5t-45 18.5t-18.5 45.5z" />
<glyph unicode="&#x2026;" horiz-adv-x="907" d="M233 84q0 16 12.5 28.5t29 12.5t28.5 -12.5t12 -28.5t-12 -28.5t-28.5 -12.5t-29 12.5t-12.5 28.5zM559 77.5q0 16.5 12.5 29t28.5 12.5t28.5 -12.5t12.5 -29t-12.5 -28.5t-28.5 -12t-28.5 12t-12.5 28.5zM872 82q0 16 12.5 28.5t29 12.5t28.5 -12.5t12 -28.5t-12 -28.5 t-28.5 -12.5t-29 12.5t-12.5 28.5z" />
<glyph unicode="&#x202f;" horiz-adv-x="318" />
<glyph unicode="&#x2039;" horiz-adv-x="485" d="M119 547q-2 14 8 31q4 6 14 16q12 12 37 31q41 31 111 75q137 88 194 115q12 6 26.5 1t21 -18.5t1 -27.5t-19.5 -20q-47 -23 -184 -111q-72 -45 -107 -72q-16 -12 -26 -22q10 -14 28 -31q35 -35 96 -82q80 -63 181 -131q12 -8 15 -22.5t-6 -26.5t-23.5 -15.5t-26.5 7.5 q-100 68 -183 131q-66 51 -102 86q-25 23 -37 41q-18 25 -18 45z" />
<glyph unicode="&#x203a;" horiz-adv-x="405" d="M41 798.5q-4 14.5 4 27t22.5 16.5t26.5 -4q100 -59 191 -121q68 -47 108 -80l37 -37q20 -25 23 -45q2 -14 -7 -31q-4 -6 -12 -16q-12 -14 -37 -33q-35 -33 -104 -84q-133 -98 -184 -127q-12 -8 -26.5 -4t-23 16.5t-4 27t16.5 22.5q55 33 178 125q66 47 100 77 q16 14 27 25q-10 12 -31 29q-37 31 -102 75q-88 59 -187 119q-12 8 -16 22.5z" />
<glyph unicode="&#x205f;" horiz-adv-x="397" />
<glyph unicode="&#x20ac;" horiz-adv-x="1234" d="M54 559q-1 14 9.5 25.5t24.5 11.5q98 6 211 6q-4 117 14 232q-115 0 -213 -5q-14 -2 -25.5 8.5t-12.5 25t9.5 25.5t24.5 11q104 6 230 8q16 82 43 154q59 166 172.5 267.5t279.5 92.5q166 -6 271.5 -101t187.5 -259q6 -14 1 -28.5t-18.5 -20.5t-28 -1t-20.5 17 q-74 154 -165 236t-232 88q-135 4 -231 -82q-94 -84 -150 -234q-23 -63 -39 -129q82 0 232.5 -1t197.5 -1q14 0 25.5 -10t11.5 -24.5t-11 -24.5t-26 -10h-221h-221q-18 -117 -14 -232q41 0 224 -1t224 -1q14 0 25.5 -10t11.5 -24.5t-11 -25t-26 -10.5h-221h-221q2 -35 8 -67 q16 -82 61 -170q43 -88 107 -158q147 -160 315 -114q109 29 201 149q88 121 127 256q4 14 17.5 21.5t27.5 3.5t21.5 -17.5t3.5 -27.5q-25 -90 -74 -179q-49 -90 -132 -171t-175 -105q-207 -55 -385 135q-70 76 -119 174t-66 191q-8 37 -12 77q-113 0 -211 -4 q-14 -2 -25.5 8.5t-12.5 24.5z" />
<glyph unicode="&#x2122;" horiz-adv-x="1390" d="M253 1325q-3 14 6.5 26.5t23.5 14.5q72 14 192 45q145 39 197 51q14 4 27.5 -4t16.5 -22.5t-5.5 -27.5t-22.5 -15q-55 -12 -176 -45q-4 -111 2 -291q10 -301 10 -315.5t-11 -25.5t-25.5 -11t-25.5 11t-11 25q0 70 -9 312q-6 176 -2 276q-84 -23 -145 -33 q-14 -4 -26.5 5.5t-15.5 23.5zM881 745q0 23 14 259q0 23 4 241q2 86 4 129v43q2 8 2 15q0 4 2 8l4 8q12 18 35 16q29 -2 53 -32q18 -20 37 -58q29 -57 62 -160q20 -59 51 -167l25 -82l6 14q25 55 57 154q53 160 82 270v8q2 12 2 16q2 16 8 27q14 23 41 21q39 -2 47 -48 q0 -6 2 -18v-10q14 -72 17.5 -165t-0.5 -163t-13 -174l-12 -154q0 -14 -11 -24t-25.5 -9t-25 12t-8.5 26q2 51 12.5 181t11.5 185t-3 178q-29 -98 -57 -182q-33 -102 -60 -160q-14 -37 -28 -55q-8 -12 -15 -21q-16 -14 -35 -14q-33 0 -45 35q-2 4 -4 14l-2 4q-8 20 -35 113 l-51 166q-31 96 -57 147q0 -35 -2 -96q-4 -219 -6 -244q-10 -231 -11 -254q0 -14 -11 -25t-25.5 -11t-25.5 11t-11 25z" />
<glyph unicode="&#x25fc;" horiz-adv-x="1075" d="M0 0v1075h1075v-1075h-1075z" />
</font>
</defs>
</svg>
